<?xml version="1.0" encoding="UTF-8" standalone="no"?>
<!-- Created with Inkscape (http://www.inkscape.org/) -->

<svg
   xmlns:dc="http://purl.org/dc/elements/1.1/"
   xmlns:cc="http://creativecommons.org/ns#"
   xmlns:rdf="http://www.w3.org/1999/02/22-rdf-syntax-ns#"
   xmlns:svg="http://www.w3.org/2000/svg"
   xmlns="http://www.w3.org/2000/svg"
   xmlns:xlink="http://www.w3.org/1999/xlink"
   xmlns:sodipodi="http://sodipodi.sourceforge.net/DTD/sodipodi-0.dtd"
   xmlns:inkscape="http://www.inkscape.org/namespaces/inkscape"
   width="1000"
   height="1000"
   id="svg2"
   version="1.1"
   inkscape:version="0.48.2 r9819"
   sodipodi:docname="ui.svg">
  <defs
     id="defs4">
    <linearGradient
       id="linearGradient5889">
      <stop
         id="stop5891"
         offset="0"
         style="stop-color:#80b3ff;stop-opacity:1;" />
      <stop
         style="stop-color:#4779c3;stop-opacity:1;"
         offset="0.75"
         id="stop5893" />
      <stop
         id="stop5895"
         offset="1"
         style="stop-color:#80b3ff;stop-opacity:0;" />
    </linearGradient>
    <linearGradient
       id="linearGradient5881">
      <stop
         id="stop5883"
         offset="0"
         style="stop-color:#070d15;stop-opacity:1;" />
      <stop
         style="stop-color:#102544;stop-opacity:1;"
         offset="0.80000001"
         id="stop5885" />
      <stop
         id="stop5887"
         offset="1"
         style="stop-color:#375b90;stop-opacity:1;" />
    </linearGradient>
    <radialGradient
       inkscape:collect="always"
       xlink:href="#linearGradient5254"
       id="radialGradient5260"
       cx="32"
       cy="32"
       fx="32"
       fy="32"
       r="25"
       gradientUnits="userSpaceOnUse"
       gradientTransform="matrix(1.0000022,0,0,1.0219334,0.00686812,-1.4038043)" />
    <linearGradient
       id="linearGradient5254">
      <stop
         style="stop-color:#002255;stop-opacity:1;"
         offset="0"
         id="stop5256" />
      <stop
         id="stop5262"
         offset="0.80000001"
         style="stop-color:#002255;stop-opacity:1;" />
      <stop
         style="stop-color:#5686ce;stop-opacity:1;"
         offset="1"
         id="stop5258" />
    </linearGradient>
    <radialGradient
       inkscape:collect="always"
       xlink:href="#linearGradient5244"
       id="radialGradient5250"
       cx="32"
       cy="32"
       fx="32"
       fy="32"
       r="32"
       gradientUnits="userSpaceOnUse" />
    <linearGradient
       id="linearGradient5244">
      <stop
         style="stop-color:#80b3ff;stop-opacity:1;"
         offset="0"
         id="stop5246" />
      <stop
         id="stop5252"
         offset="0.75"
         style="stop-color:#80b3ff;stop-opacity:1;" />
      <stop
         style="stop-color:#80b3ff;stop-opacity:0;"
         offset="1"
         id="stop5248" />
    </linearGradient>
    <radialGradient
       r="32"
       fy="32"
       fx="32"
       cy="32"
       cx="32"
       gradientUnits="userSpaceOnUse"
       id="radialGradient5288"
       xlink:href="#linearGradient5244"
       inkscape:collect="always"
       gradientTransform="matrix(3.1250069,0,0,3.1935484,0.02145776,847.97508)" />
    <radialGradient
       inkscape:collect="always"
       xlink:href="#linearGradient5244"
       id="radialGradient5861"
       cx="100"
       cy="900"
       fx="100"
       fy="900"
       r="100"
       gradientUnits="userSpaceOnUse" />
    <radialGradient
       inkscape:collect="always"
       xlink:href="#linearGradient5254"
       id="radialGradient5871"
       cx="100"
       cy="900"
       fx="100"
       fy="900"
       r="80"
       gradientUnits="userSpaceOnUse" />
    <radialGradient
       inkscape:collect="always"
       xlink:href="#linearGradient5889"
       id="radialGradient5877"
       gradientUnits="userSpaceOnUse"
       cx="100"
       cy="900"
       fx="100"
       fy="900"
       r="100"
       gradientTransform="translate(200,52.36218)" />
    <radialGradient
       inkscape:collect="always"
       xlink:href="#linearGradient5881"
       id="radialGradient5879"
       gradientUnits="userSpaceOnUse"
       cx="100"
       cy="900"
       fx="100"
       fy="900"
       r="80" />
    <radialGradient
       inkscape:collect="always"
       xlink:href="#linearGradient5254"
       id="radialGradient5899"
       gradientUnits="userSpaceOnUse"
       cx="100"
       cy="900"
       fx="100"
       fy="900"
       r="80" />
    <filter
       inkscape:collect="always"
       id="filter6023"
       x="-0.25714286"
       width="1.5142857"
       y="-0.225"
       height="1.45">
      <feGaussianBlur
         inkscape:collect="always"
         stdDeviation="7.5"
         id="feGaussianBlur6025" />
    </filter>
    <radialGradient
       inkscape:collect="always"
       xlink:href="#linearGradient5881"
       id="radialGradient6029"
       gradientUnits="userSpaceOnUse"
       cx="100"
       cy="900"
       fx="100"
       fy="900"
       r="80" />
    <filter
       inkscape:collect="always"
       id="filter6035"
       x="-0.25714286"
       width="1.5142857"
       y="-0.225"
       height="1.45">
      <feGaussianBlur
         inkscape:collect="always"
         stdDeviation="7.5"
         id="feGaussianBlur6037" />
    </filter>
    <radialGradient
       inkscape:collect="always"
       xlink:href="#linearGradient5254"
       id="radialGradient6978"
       gradientUnits="userSpaceOnUse"
       cx="100"
       cy="900"
       fx="100"
       fy="900"
       r="80" />
    <filter
       inkscape:collect="always"
       id="filter7020"
       x="-0.24422034"
       width="1.4884407"
       y="-0.23592305"
       height="1.4718461">
      <feGaussianBlur
         inkscape:collect="always"
         stdDeviation="9.830127"
         id="feGaussianBlur7022" />
    </filter>
    <filter
       inkscape:collect="always"
       id="filter7056"
       x="-0.24422034"
       width="1.4884407"
       y="-0.23592305"
       height="1.4718461">
      <feGaussianBlur
         inkscape:collect="always"
         stdDeviation="9.830127"
         id="feGaussianBlur7058" />
    </filter>
    <filter
       inkscape:collect="always"
       id="filter7064"
       x="-0.22666667"
       width="1.4533333"
       y="-0.255"
       height="1.51">
      <feGaussianBlur
         inkscape:collect="always"
         stdDeviation="8.5"
         id="feGaussianBlur7066" />
    </filter>
    <filter
       inkscape:collect="always"
       id="filter7072"
       x="-0.22666667"
       width="1.4533333"
       y="-0.255"
       height="1.51">
      <feGaussianBlur
         inkscape:collect="always"
         stdDeviation="8.5"
         id="feGaussianBlur7074" />
    </filter>
    <filter
       inkscape:collect="always"
       id="filter7116"
       x="-0.216"
       width="1.432"
       y="-0.27"
       height="1.54">
      <feGaussianBlur
         inkscape:collect="always"
         stdDeviation="9"
         id="feGaussianBlur7118" />
    </filter>
    <filter
       inkscape:collect="always"
       id="filter7132"
       x="-0.216"
       width="1.432"
       y="-0.27"
       height="1.54">
      <feGaussianBlur
         inkscape:collect="always"
         stdDeviation="9"
         id="feGaussianBlur7134" />
    </filter>
  </defs>
  <sodipodi:namedview
     id="base"
     pagecolor="#ffffff"
     bordercolor="#666666"
     borderopacity="1.0"
     inkscape:pageopacity="0.0"
     inkscape:pageshadow="2"
     inkscape:zoom="0.64"
     inkscape:cx="405.35534"
     inkscape:cy="358.03119"
     inkscape:document-units="px"
     inkscape:current-layer="layer1"
     showgrid="true"
     inkscape:window-width="1440"
     inkscape:window-height="774"
     inkscape:window-x="0"
     inkscape:window-y="0"
     inkscape:window-maximized="1">
    <inkscape:grid
       type="xygrid"
       id="grid2985"
       empspacing="10"
       visible="true"
       enabled="true"
       snapvisiblegridlinesonly="true"
       originx="0px"
       dotted="false"
       color="#00aeff"
       opacity="0.1254902"
       spacingx="10px"
       spacingy="10px" />
  </sodipodi:namedview>
  <metadata
     id="metadata7">
    <rdf:RDF>
      <cc:Work
         rdf:about="">
        <dc:format>image/svg+xml</dc:format>
        <dc:type
           rdf:resource="http://purl.org/dc/dcmitype/StillImage" />
        <dc:title />
      </cc:Work>
    </rdf:RDF>
  </metadata>
  <g
     inkscape:label="Layer 1"
     inkscape:groupmode="layer"
     id="layer1"
     transform="translate(0,-52.36218)">
    <path
       style="fill:url(#radialGradient5861);fill-opacity:1.0;stroke:none"
       d="M 100 800 C 44.771525 800 1.5533243e-16 844.77153 0 900 C 0 955.22847 44.771525 1000 100 1000 C 155.22847 1000 200 955.22847 200 900 C 200 844.77153 155.22847 800 100 800 z M 100 820 C 144.18278 820 180 855.81722 180 900 C 180 944.18278 144.18278 980 100 980 C 55.81722 980 20 944.18278 20 900 C 20 855.81722 55.81722 820 100 820 z "
       transform="translate(0,52.36218)"
       id="path5829" />
    <path
       sodipodi:type="arc"
       style="fill:url(#radialGradient5871);fill-opacity:1;stroke:#d5e5ff;stroke-opacity:1;stroke-width:4;stroke-miterlimit:4;stroke-dasharray:none"
       id="path5863"
       sodipodi:cx="100"
       sodipodi:cy="900"
       sodipodi:rx="80"
       sodipodi:ry="80"
       d="m 180,900 a 80,80 0 1 1 -160,0 80,80 0 1 1 160,0 z"
       transform="translate(0,52.36218)" />
    <path
       id="path5873"
       d="m 300,852.36218 c -55.22848,0 -100,44.77153 -100,100 0,55.22852 44.77152,100.00002 100,100.00002 55.22847,0 100,-44.7715 100,-100.00002 0,-55.22847 -44.77153,-100 -100,-100 z m 0,20 c 44.18278,0 80,35.81722 80,80 0,44.18278 -35.81722,80.00002 -80,80.00002 -44.18278,0 -80,-35.81724 -80,-80.00002 0,-44.18278 35.81722,-80 80,-80 z"
       style="fill:url(#radialGradient5877);fill-opacity:1.0;stroke:none"
       inkscape:connector-curvature="0" />
    <path
       transform="translate(200,52.36218)"
       d="m 180,900 a 80,80 0 1 1 -160,0 80,80 0 1 1 160,0 z"
       sodipodi:ry="80"
       sodipodi:rx="80"
       sodipodi:cy="900"
       sodipodi:cx="100"
       id="path5875"
       style="fill:url(#radialGradient5879);fill-opacity:1.0;stroke:#80b3ff;stroke-width:4;stroke-miterlimit:4;stroke-opacity:1;stroke-dasharray:none"
       sodipodi:type="arc" />
    <path
       inkscape:connector-curvature="0"
       id="path5905"
       d="m 470,912.36218 0,80 70,-40 -70,-40"
       style="fill:#aaccff;stroke:none;filter:url(#filter6023)" />
    <path
       style="fill:#aaccff;stroke:none"
       d="m 470,912.36218 0,80 70,-40 -70,-40"
       id="path5901"
       inkscape:connector-curvature="0" />
    <path
       style="fill:#5599ff;stroke:none;filter:url(#filter6035)"
       d="m 670,912.36218 0,80 70,-40 -70,-40"
       id="path6033"
       inkscape:connector-curvature="0" />
    <path
       inkscape:connector-curvature="0"
       id="path6031"
       d="m 670,912.36218 0,80 70,-40 -70,-40"
       style="fill:#5599ff;stroke:none" />
    <g
       id="g7000"
       transform="translate(0,252.36218)"
       style="filter:url(#filter7020)">
      <path
         id="path7002"
         d="m 100,460 c -22.09139,0 -40,17.90861 -40,40 0,22.09139 17.90861,40 40,40 22.09139,0 40,-17.90861 40,-40 0,-22.09139 -17.90861,-40 -40,-40 z m 0,15 c 13.80712,0 25,11.19288 25,25 0,13.80712 -11.19288,25 -25,25 -13.807119,0 -25,-11.19288 -25,-25 0,-13.80712 11.192881,-25 25,-25 z"
         style="fill:#aaccff;fill-opacity:1;stroke:none"
         inkscape:connector-curvature="0" />
      <path
         inkscape:tile-y0="450"
         inkscape:tile-x0="82"
         inkscape:tile-h="20"
         inkscape:tile-w="36"
         inkscape:tile-cy="500"
         inkscape:tile-cx="100"
         sodipodi:nodetypes="ccccc"
         inkscape:transform-center-y="-40"
         inkscape:connector-curvature="0"
         id="path7004"
         d="m 82,470 8,-20 20,0 8,20 z"
         style="fill:#aaccff;stroke:none" />
      <path
         inkscape:tile-y0="450"
         inkscape:tile-x0="82"
         sodipodi:nodetypes="ccccc"
         inkscape:transform-center-y="-40"
         inkscape:connector-curvature="0"
         id="path7006"
         d="m 116.98076,469.41154 21.32051,-3.07179 10,17.3205 -13.32051,16.92821 z"
         style="fill:#aaccff;stroke:none" />
      <path
         inkscape:tile-y0="450"
         inkscape:tile-x0="82"
         sodipodi:nodetypes="ccccc"
         inkscape:transform-center-y="-40"
         inkscape:connector-curvature="0"
         id="path7008"
         d="m 134.98076,499.41154 13.32051,16.92821 -10,17.3205 -21.32051,-3.07179 z"
         style="fill:#aaccff;stroke:none" />
      <path
         inkscape:tile-y0="450"
         inkscape:tile-x0="82"
         sodipodi:nodetypes="ccccc"
         inkscape:transform-center-y="-40"
         inkscape:connector-curvature="0"
         id="path7010"
         d="m 118,530 -8,20 -20,0 -8,-20 z"
         style="fill:#aaccff;stroke:none" />
      <path
         inkscape:tile-y0="450"
         inkscape:tile-x0="82"
         sodipodi:nodetypes="ccccc"
         inkscape:transform-center-y="-40"
         inkscape:connector-curvature="0"
         id="path7012"
         d="m 83.019238,530.58846 -21.320508,3.07179 -10,-17.3205 13.320508,-16.92821 z"
         style="fill:#aaccff;stroke:none" />
      <path
         inkscape:tile-y0="450"
         inkscape:tile-x0="82"
         sodipodi:nodetypes="ccccc"
         inkscape:transform-center-y="-40"
         inkscape:connector-curvature="0"
         id="path7014"
         d="m 65.019238,500.58846 -13.320508,-16.92821 10,-17.3205 21.320508,3.07179 z"
         style="fill:#aaccff;stroke:none" />
    </g>
    <g
       transform="translate(0,252.36218)"
       id="g6746">
      <path
         inkscape:connector-curvature="0"
         style="fill:#aaccff;fill-opacity:1;stroke:none"
         d="m 100,460 c -22.09139,0 -40,17.90861 -40,40 0,22.09139 17.90861,40 40,40 22.09139,0 40,-17.90861 40,-40 0,-22.09139 -17.90861,-40 -40,-40 z m 0,15 c 13.80712,0 25,11.19288 25,25 0,13.80712 -11.19288,25 -25,25 -13.807119,0 -25,-11.19288 -25,-25 0,-13.80712 11.192881,-25 25,-25 z"
         id="path6748" />
      <path
         style="fill:#aaccff;stroke:none"
         d="m 82,470 8,-20 20,0 8,20 z"
         id="path6750"
         inkscape:connector-curvature="0"
         inkscape:transform-center-y="-40"
         sodipodi:nodetypes="ccccc"
         inkscape:tile-cx="100"
         inkscape:tile-cy="500"
         inkscape:tile-w="36"
         inkscape:tile-h="20"
         inkscape:tile-x0="82"
         inkscape:tile-y0="450" />
      <path
         style="fill:#aaccff;stroke:none"
         d="m 116.98076,469.41154 21.32051,-3.07179 10,17.3205 -13.32051,16.92821 z"
         id="use6752"
         inkscape:connector-curvature="0"
         inkscape:transform-center-y="-40"
         sodipodi:nodetypes="ccccc"
         inkscape:tile-x0="82"
         inkscape:tile-y0="450" />
      <path
         style="fill:#aaccff;stroke:none"
         d="m 134.98076,499.41154 13.32051,16.92821 -10,17.3205 -21.32051,-3.07179 z"
         id="use6754"
         inkscape:connector-curvature="0"
         inkscape:transform-center-y="-40"
         sodipodi:nodetypes="ccccc"
         inkscape:tile-x0="82"
         inkscape:tile-y0="450" />
      <path
         style="fill:#aaccff;stroke:none"
         d="m 118,530 -8,20 -20,0 -8,-20 z"
         id="use6756"
         inkscape:connector-curvature="0"
         inkscape:transform-center-y="-40"
         sodipodi:nodetypes="ccccc"
         inkscape:tile-x0="82"
         inkscape:tile-y0="450" />
      <path
         style="fill:#aaccff;stroke:none"
         d="m 83.019238,530.58846 -21.320508,3.07179 -10,-17.3205 13.320508,-16.92821 z"
         id="use6758"
         inkscape:connector-curvature="0"
         inkscape:transform-center-y="-40"
         sodipodi:nodetypes="ccccc"
         inkscape:tile-x0="82"
         inkscape:tile-y0="450" />
      <path
         style="fill:#aaccff;stroke:none"
         d="m 65.019238,500.58846 -13.320508,-16.92821 10,-17.3205 21.320508,3.07179 z"
         id="use6760"
         inkscape:connector-curvature="0"
         inkscape:transform-center-y="-40"
         sodipodi:nodetypes="ccccc"
         inkscape:tile-x0="82"
         inkscape:tile-y0="450" />
    </g>
    <g
       style="fill:#5599ff;filter:url(#filter7056)"
       transform="translate(200.00027,252.36218)"
       id="g7040">
      <path
         inkscape:connector-curvature="0"
         style="fill:#5599ff;fill-opacity:1;stroke:none"
         d="m 100,460 c -22.09139,0 -40,17.90861 -40,40 0,22.09139 17.90861,40 40,40 22.09139,0 40,-17.90861 40,-40 0,-22.09139 -17.90861,-40 -40,-40 z m 0,15 c 13.80712,0 25,11.19288 25,25 0,13.80712 -11.19288,25 -25,25 -13.807119,0 -25,-11.19288 -25,-25 0,-13.80712 11.192881,-25 25,-25 z"
         id="path7042" />
      <path
         style="fill:#5599ff;stroke:none"
         d="m 82,470 8,-20 20,0 8,20 z"
         id="path7044"
         inkscape:connector-curvature="0"
         inkscape:transform-center-y="-40"
         sodipodi:nodetypes="ccccc"
         inkscape:tile-cx="100"
         inkscape:tile-cy="500"
         inkscape:tile-w="36"
         inkscape:tile-h="20"
         inkscape:tile-x0="82"
         inkscape:tile-y0="450" />
      <path
         style="fill:#5599ff;stroke:none"
         d="m 116.98076,469.41154 21.32051,-3.07179 10,17.3205 -13.32051,16.92821 z"
         id="path7046"
         inkscape:connector-curvature="0"
         inkscape:transform-center-y="-40"
         sodipodi:nodetypes="ccccc"
         inkscape:tile-x0="82"
         inkscape:tile-y0="450" />
      <path
         style="fill:#5599ff;stroke:none"
         d="m 134.98076,499.41154 13.32051,16.92821 -10,17.3205 -21.32051,-3.07179 z"
         id="path7048"
         inkscape:connector-curvature="0"
         inkscape:transform-center-y="-40"
         sodipodi:nodetypes="ccccc"
         inkscape:tile-x0="82"
         inkscape:tile-y0="450" />
      <path
         style="fill:#5599ff;stroke:none"
         d="m 118,530 -8,20 -20,0 -8,-20 z"
         id="path7050"
         inkscape:connector-curvature="0"
         inkscape:transform-center-y="-40"
         sodipodi:nodetypes="ccccc"
         inkscape:tile-x0="82"
         inkscape:tile-y0="450" />
      <path
         style="fill:#5599ff;stroke:none"
         d="m 83.019238,530.58846 -21.320508,3.07179 -10,-17.3205 13.320508,-16.92821 z"
         id="path7052"
         inkscape:connector-curvature="0"
         inkscape:transform-center-y="-40"
         sodipodi:nodetypes="ccccc"
         inkscape:tile-x0="82"
         inkscape:tile-y0="450" />
      <path
         style="fill:#5599ff;stroke:none"
         d="m 65.019238,500.58846 -13.320508,-16.92821 10,-17.3205 21.320508,3.07179 z"
         id="path7054"
         inkscape:connector-curvature="0"
         inkscape:transform-center-y="-40"
         sodipodi:nodetypes="ccccc"
         inkscape:tile-x0="82"
         inkscape:tile-y0="450" />
    </g>
    <g
       id="g7024"
       transform="translate(200.00027,252.36218)"
       style="fill:#5599ff">
      <path
         id="path7026"
         d="m 100,460 c -22.09139,0 -40,17.90861 -40,40 0,22.09139 17.90861,40 40,40 22.09139,0 40,-17.90861 40,-40 0,-22.09139 -17.90861,-40 -40,-40 z m 0,15 c 13.80712,0 25,11.19288 25,25 0,13.80712 -11.19288,25 -25,25 -13.807119,0 -25,-11.19288 -25,-25 0,-13.80712 11.192881,-25 25,-25 z"
         style="fill:#5599ff;fill-opacity:1;stroke:none"
         inkscape:connector-curvature="0" />
      <path
         inkscape:tile-y0="450"
         inkscape:tile-x0="82"
         inkscape:tile-h="20"
         inkscape:tile-w="36"
         inkscape:tile-cy="500"
         inkscape:tile-cx="100"
         sodipodi:nodetypes="ccccc"
         inkscape:transform-center-y="-40"
         inkscape:connector-curvature="0"
         id="path7028"
         d="m 82,470 8,-20 20,0 8,20 z"
         style="fill:#5599ff;stroke:none" />
      <path
         inkscape:tile-y0="450"
         inkscape:tile-x0="82"
         sodipodi:nodetypes="ccccc"
         inkscape:transform-center-y="-40"
         inkscape:connector-curvature="0"
         id="path7030"
         d="m 116.98076,469.41154 21.32051,-3.07179 10,17.3205 -13.32051,16.92821 z"
         style="fill:#5599ff;stroke:none" />
      <path
         inkscape:tile-y0="450"
         inkscape:tile-x0="82"
         sodipodi:nodetypes="ccccc"
         inkscape:transform-center-y="-40"
         inkscape:connector-curvature="0"
         id="path7032"
         d="m 134.98076,499.41154 13.32051,16.92821 -10,17.3205 -21.32051,-3.07179 z"
         style="fill:#5599ff;stroke:none" />
      <path
         inkscape:tile-y0="450"
         inkscape:tile-x0="82"
         sodipodi:nodetypes="ccccc"
         inkscape:transform-center-y="-40"
         inkscape:connector-curvature="0"
         id="path7034"
         d="m 118,530 -8,20 -20,0 -8,-20 z"
         style="fill:#5599ff;stroke:none" />
      <path
         inkscape:tile-y0="450"
         inkscape:tile-x0="82"
         sodipodi:nodetypes="ccccc"
         inkscape:transform-center-y="-40"
         inkscape:connector-curvature="0"
         id="path7036"
         d="m 83.019238,530.58846 -21.320508,3.07179 -10,-17.3205 13.320508,-16.92821 z"
         style="fill:#5599ff;stroke:none" />
      <path
         inkscape:tile-y0="450"
         inkscape:tile-x0="82"
         sodipodi:nodetypes="ccccc"
         inkscape:transform-center-y="-40"
         inkscape:connector-curvature="0"
         id="path7038"
         d="m 65.019238,500.58846 -13.320508,-16.92821 10,-17.3205 21.320508,3.07179 z"
         style="fill:#5599ff;stroke:none" />
    </g>
    <path
       sodipodi:nodetypes="csscccccsscc"
       inkscape:connector-curvature="0"
       id="path7062"
       d="m 500,792.36218 c 0,0 -40,0 -40,-40 0,-20 20,-40 40,-40 40,0 40,40 40,40 l 10,0 -20,20 -20,-20 10,0 c 0,0 0,-20 -20,-20 -9.42809,0 -20,10.57191 -20,20 0,20 20,20 20,20 z"
       style="fill:#aaccff;stroke:none;filter:url(#filter7064)" />
    <path
       style="fill:#aaccff;stroke:none"
       d="m 500,792.36218 c 0,0 -40,0 -40,-40 0,-20 20,-40 40,-40 40,0 40,40 40,40 l 10,0 -20,20 -20,-20 10,0 c 0,0 0,-20 -20,-20 -9.42809,0 -20,10.57191 -20,20 0,20 20,20 20,20 z"
       id="path7060"
       inkscape:connector-curvature="0"
       sodipodi:nodetypes="csscccccsscc" />
    <path
       style="fill:#5599ff;stroke:none;filter:url(#filter7072)"
       d="m 700,792.36218 c 0,0 -40,0 -40,-40 0,-20 20,-40 40,-40 40,0 40,40 40,40 l 10,0 -20,20 -20,-20 10,0 c 0,0 0,-20 -20,-20 -9.42809,0 -20,10.57191 -20,20 0,20 20,20 20,20 z"
       id="path7070"
       inkscape:connector-curvature="0"
       sodipodi:nodetypes="csscccccsscc" />
    <path
       sodipodi:nodetypes="csscccccsscc"
       inkscape:connector-curvature="0"
       id="path7068"
       d="m 700,792.36218 c 0,0 -40,0 -40,-40 0,-20 20,-40 40,-40 40,0 40,40 40,40 l 10,0 -20,20 -20,-20 10,0 c 0,0 0,-20 -20,-20 -9.42809,0 -20,10.57191 -20,20 0,20 20,20 20,20 z"
       style="fill:#5599ff;stroke:none" />
    <g
       transform="translate(800,0)"
       id="g7110"
       style="filter:url(#filter7116)">
      <path
         style="fill:#aaccff;stroke:none"
         d="m 60,860 0,80 60,0 0,-20 -10,0 0,10 -40,0 0,-60 40,0 0,10 10,0 0,-20 z"
         id="path7112"
         inkscape:connector-curvature="0"
         transform="translate(0,52.36218)"
         sodipodi:nodetypes="ccccccccccccc" />
      <path
         style="fill:#aaccff;stroke:none"
         d="m 90,890 0,20 40,0 0,20 30,-30 -30,-30 0,20 z"
         id="path7114"
         inkscape:connector-curvature="0"
         transform="translate(0,52.36218)"
         sodipodi:nodetypes="cccccccc" />
    </g>
    <g
       id="g7080"
       transform="translate(800,0)">
      <path
         sodipodi:nodetypes="ccccccccccccc"
         transform="translate(0,52.36218)"
         inkscape:connector-curvature="0"
         id="path7076"
         d="m 60,860 0,80 60,0 0,-20 -10,0 0,10 -40,0 0,-60 40,0 0,10 10,0 0,-20 z"
         style="fill:#aaccff;stroke:none" />
      <path
         sodipodi:nodetypes="cccccccc"
         transform="translate(0,52.36218)"
         inkscape:connector-curvature="0"
         id="path7078"
         d="m 90,890 0,20 40,0 0,20 30,-30 -30,-30 0,20 z"
         style="fill:#aaccff;stroke:none" />
    </g>
    <g
       style="fill:#5599ff;filter:url(#filter7132)"
       id="g7126"
       transform="translate(800,-200)">
      <path
         sodipodi:nodetypes="ccccccccccccc"
         transform="translate(0,52.36218)"
         inkscape:connector-curvature="0"
         id="path7128"
         d="m 60,860 0,80 60,0 0,-20 -10,0 0,10 -40,0 0,-60 40,0 0,10 10,0 0,-20 z"
         style="fill:#5599ff;stroke:none" />
      <path
         sodipodi:nodetypes="cccccccc"
         transform="translate(0,52.36218)"
         inkscape:connector-curvature="0"
         id="path7130"
         d="m 90,890 0,20 40,0 0,20 30,-30 -30,-30 0,20 z"
         style="fill:#5599ff;stroke:none" />
    </g>
    <g
       transform="translate(800,-200)"
       id="g7120"
       style="fill:#5599ff">
      <path
         style="fill:#5599ff;stroke:none"
         d="m 60,860 0,80 60,0 0,-20 -10,0 0,10 -40,0 0,-60 40,0 0,10 10,0 0,-20 z"
         id="path7122"
         inkscape:connector-curvature="0"
         transform="translate(0,52.36218)"
         sodipodi:nodetypes="ccccccccccccc" />
      <path
         style="fill:#5599ff;stroke:none"
         d="m 90,890 0,20 40,0 0,20 30,-30 -30,-30 0,20 z"
         id="path7124"
         inkscape:connector-curvature="0"
         transform="translate(0,52.36218)"
         sodipodi:nodetypes="cccccccc" />
    </g>
  </g>
</svg>
