<?xml version="1.0" encoding="UTF-8" standalone="no"?>
<!-- Created with Inkscape (http://www.inkscape.org/) -->

<svg
   xmlns:dc="http://purl.org/dc/elements/1.1/"
   xmlns:cc="http://creativecommons.org/ns#"
   xmlns:rdf="http://www.w3.org/1999/02/22-rdf-syntax-ns#"
   xmlns:svg="http://www.w3.org/2000/svg"
   xmlns="http://www.w3.org/2000/svg"
   xmlns:sodipodi="http://sodipodi.sourceforge.net/DTD/sodipodi-0.dtd"
   xmlns:inkscape="http://www.inkscape.org/namespaces/inkscape"
   width="700"
   height="150"
   id="svg2"
   version="1.1"
   inkscape:version="0.48.2 r9819"
   sodipodi:docname="title.svg">
  <defs
     id="defs4">
    <filter
       inkscape:collect="always"
       id="filter3841"
       x="-0.031824328"
       width="1.0636487"
       y="-0.52333266"
       height="2.0466652"
       color-interpolation-filters="sRGB">
      <feGaussianBlur
         inkscape:collect="always"
         stdDeviation="7.8499898"
         id="feGaussianBlur3843" />
    </filter>
  </defs>
  <sodipodi:namedview
     id="base"
     pagecolor="#ffffff"
     bordercolor="#666666"
     borderopacity="1.0"
     inkscape:pageopacity="0.0"
     inkscape:pageshadow="2"
     inkscape:zoom="0.64"
     inkscape:cx="588.83122"
     inkscape:cy="74.504887"
     inkscape:document-units="px"
     inkscape:current-layer="layer1"
     showgrid="true"
     inkscape:window-width="1440"
     inkscape:window-height="774"
     inkscape:window-x="0"
     inkscape:window-y="0"
     inkscape:window-maximized="1">
    <inkscape:grid
       type="xygrid"
       id="grid2985"
       empspacing="10"
       visible="true"
       enabled="true"
       snapvisiblegridlinesonly="true"
       originx="0px"
       dotted="false"
       color="#00aeff"
       opacity="0.1254902"
       spacingx="20px"
       spacingy="20px" />
  </sodipodi:namedview>
  <metadata
     id="metadata7">
    <rdf:RDF>
      <cc:Work
         rdf:about="">
        <dc:format>image/svg+xml</dc:format>
        <dc:type
           rdf:resource="http://purl.org/dc/dcmitype/StillImage" />
        <dc:title></dc:title>
      </cc:Work>
    </rdf:RDF>
  </metadata>
  <g
     inkscape:label="Layer 1"
     inkscape:groupmode="layer"
     id="layer1"
     transform="translate(0,-902.36218)">
    <g
       style="font-size:72px;font-style:normal;font-variant:normal;font-weight:300;font-stretch:normal;line-height:125%;letter-spacing:0px;word-spacing:0px;fill:#cccccc;fill-opacity:1;stroke:none;font-family:Orbitron;-inkscape-font-specification:Orbitron Light"
       id="text2983">
      <path
         d="m 75.512,942.40843 -11.304,0 0,-4.248 -29.376,0 0,9.072 30.024,0 c 1.439954,3e-5 2.807952,0.28803 4.104,0.864 1.29595,0.52803 2.423949,1.27203 3.384,2.232 1.007947,0.96003 1.775946,2.08803 2.304,3.384 0.575945,1.29603 0.863944,2.68802 0.864,4.176 l 0,10.224 c -5.6e-5,1.48801 -0.288055,2.88001 -0.864,4.176 -0.528054,1.29601 -1.296053,2.42401 -2.304,3.384 -0.960051,0.96 -2.08805,1.728 -3.384,2.304 -1.296048,0.528 -2.664046,0.792 -4.104,0.792 l -30.528,0 c -1.488013,0 -2.880011,-0.264 -4.176,-0.792 -1.296009,-0.576 -2.424008,-1.344 -3.384,-2.304 -0.960006,-0.95999 -1.728005,-2.08799 -2.304,-3.384 -0.528004,-1.29599 -0.792004,-2.68799 -0.792,-4.176 l 0,-4.824 11.16,0 0,4.248 29.376,0 0,-9.072 -29.88,0 c -1.488013,2e-5 -2.880011,-0.26398 -4.176,-0.792 -1.296009,-0.57598 -2.424008,-1.34397 -3.384,-2.304 -0.960006,-0.95997 -1.728005,-2.08797 -2.304,-3.384 -0.528004,-1.29597 -0.792004,-2.68797 -0.792,-4.176 l 0,-10.224 c -4e-6,-1.48795 0.263996,-2.87995 0.792,-4.176 0.575995,-1.29595 1.343994,-2.42395 2.304,-3.384 0.959992,-0.95995 2.087991,-1.70395 3.384,-2.232 1.295989,-0.57595 2.687987,-0.86395 4.176,-0.864 l 30.528,0 c 1.439954,5e-5 2.807952,0.28805 4.104,0.864 1.29595,0.52805 2.423949,1.27205 3.384,2.232 1.007947,0.96005 1.775946,2.08805 2.304,3.384 0.575945,1.29605 0.863944,2.68805 0.864,4.176 l 0,4.824"
         style="font-weight:900;fill:#cccccc;-inkscape-font-specification:Orbitron Heavy"
         id="path3865" />
      <path
         d="m 82.8065,937.00843 11.016,0 0,41.76 -11.016,0 0,-41.76 m 11.016,-13.68 0,11.088 -11.016,0 0,-11.088 11.016,0"
         style="font-weight:900;fill:#cccccc;-inkscape-font-specification:Orbitron Heavy"
         id="path3867" />
      <path
         d="m 112.457,923.25643 0,44.496 8.424,0 0,11.016 -9.072,0 c -1.44001,0 -2.78401,-0.264 -4.032,-0.792 -1.24801,-0.576 -2.35201,-1.344 -3.312,-2.304 -0.96001,-0.95999 -1.72801,-2.06399 -2.304,-3.312 -0.528,-1.24799 -0.792,-2.59199 -0.792,-4.032 l 0,-45.072 11.088,0"
         style="font-weight:900;fill:#cccccc;-inkscape-font-specification:Orbitron Heavy"
         id="path3869" />
      <path
         d="m 158.22425,937.00843 c 1.43996,4e-5 2.78396,0.28804 4.032,0.864 1.29596,0.52804 2.39996,1.27204 3.312,2.232 0.95996,0.96004 1.70396,2.06404 2.232,3.312 0.57595,1.24804 0.86395,2.59204 0.864,4.032 l 0,15.984 -31.32,0 0,4.32 31.32,0 0,11.016 -31.896,0 c -1.44001,0 -2.78401,-0.264 -4.032,-0.792 -1.24801,-0.576 -2.35201,-1.344 -3.312,-2.304 -0.96001,-0.95999 -1.72801,-2.06399 -2.304,-3.312 -0.528,-1.24799 -0.792,-2.59199 -0.792,-4.032 l 0,-20.88 c 0,-1.43996 0.264,-2.78396 0.792,-4.032 0.57599,-1.24796 1.34399,-2.35196 2.304,-3.312 0.95999,-0.95996 2.06399,-1.70396 3.312,-2.232 1.24799,-0.57596 2.59199,-0.86396 4.032,-0.864 l 21.456,0 m -0.576,16.776 0,-5.76 -20.304,0 0,5.76 20.304,0"
         style="font-weight:900;fill:#cccccc;-inkscape-font-specification:Orbitron Heavy"
         id="path3871" />
      <path
         d="m 208.2215,937.00843 c 1.43996,4e-5 2.78396,0.28804 4.032,0.864 1.29596,0.52804 2.39996,1.27204 3.312,2.232 0.95996,0.96004 1.70396,2.06404 2.232,3.312 0.57595,1.24804 0.86395,2.59204 0.864,4.032 l 0,31.32 -11.016,0 0,-30.744 -20.304,0 0,30.744 -11.016,0 0,-41.76 31.896,0"
         style="font-weight:900;fill:#cccccc;-inkscape-font-specification:Orbitron Heavy"
         id="path3873" />
      <path
         d="m 237.332,948.02443 0,19.728 15.48,0 0,11.016 -15.984,0 c -1.44001,0 -2.80801,-0.264 -4.104,-0.792 -1.29601,-0.576 -2.42401,-1.344 -3.384,-2.304 -0.91201,-0.95999 -1.65601,-2.06399 -2.232,-3.312 -0.528,-1.24799 -0.792,-2.59199 -0.792,-4.032 l 0,-43.704 11.016,0 0,12.384 15.48,0 0,11.016 -15.48,0"
         style="font-weight:900;fill:#cccccc;-inkscape-font-specification:Orbitron Heavy"
         id="path3875" />
      <path
         d="m 331.4675,926.92843 0,11.232 -20.304,0 0,40.608 -11.232,0 0,-40.608 -20.304,0 0,-11.232 51.84,0"
         style="font-weight:900;fill:#cccccc;-inkscape-font-specification:Orbitron Heavy"
         id="path3877" />
      <path
         d="m 368.45862,937.00843 c 1.43997,4e-5 2.78397,0.28804 4.03201,0.864 1.29595,0.52804 2.39995,1.27204 3.31199,2.232 0.95996,0.96004 1.70396,2.06404 2.232,3.312 0.57596,1.24804 0.86396,2.59204 0.864,4.032 l 0,15.984 -31.32,0 0,4.32 31.32,0 0,11.016 -31.89599,0 c -1.44002,0 -2.78402,-0.264 -4.03201,-0.792 -1.248,-0.576 -2.352,-1.344 -3.312,-2.304 -0.96,-0.95999 -1.728,-2.06399 -2.304,-3.312 -0.528,-1.24799 -0.792,-2.59199 -0.79199,-4.032 l 0,-20.88 c -1e-5,-1.43996 0.26399,-2.78396 0.79199,-4.032 0.576,-1.24796 1.344,-2.35196 2.304,-3.312 0.96,-0.95996 2.064,-1.70396 3.312,-2.232 1.24799,-0.57596 2.59199,-0.86396 4.03201,-0.864 l 21.45599,0 m -0.57599,16.776 0,-5.76 -20.30401,0 0,5.76 20.30401,0"
         style="font-weight:900;fill:#cccccc;-inkscape-font-specification:Orbitron Heavy"
         id="path3879" />
      <path
         d="m 436.81587,937.00843 c 1.43995,4e-5 2.78395,0.28804 4.032,0.864 1.29595,0.52804 2.39994,1.27204 3.312,2.232 0.95994,0.96004 1.70394,2.06404 2.23201,3.312 0.57593,1.24804 0.86393,2.59204 0.86399,4.032 l 0,31.32 -10.944,0 0,-30.744 -13.82399,0 0,30.744 -11.08801,0 0,-30.744 -13.824,0 0,30.744 -11.016,0 0,-41.76 50.256,0"
         style="font-weight:900;fill:#cccccc;-inkscape-font-specification:Orbitron Heavy"
         id="path3881" />
      <path
         d="m 484.69025,937.00843 c 1.43996,4e-5 2.78396,0.28804 4.032,0.864 1.29596,0.52804 2.39996,1.27204 3.312,2.232 0.95996,0.96004 1.70396,2.06404 2.232,3.312 0.57595,1.24804 0.86395,2.59204 0.864,4.032 l 0,20.88 c -5e-5,1.44001 -0.28805,2.78401 -0.864,4.032 -0.52804,1.24801 -1.27204,2.35201 -2.232,3.312 -0.91204,0.96 -2.01604,1.728 -3.312,2.304 -1.24804,0.528 -2.59204,0.792 -4.032,0.792 l -20.88,0 0,16.56 -11.016,0 0,-58.32 31.896,0 m -20.88,30.744 20.304,0 0,-19.728 -20.304,0 0,19.728"
         style="font-weight:900;fill:#cccccc;-inkscape-font-specification:Orbitron Heavy"
         id="path3883" />
      <path
         d="m 532.14612,937.00843 c 1.43997,4e-5 2.78397,0.28804 4.03201,0.864 1.29595,0.52804 2.39995,1.27204 3.312,2.232 0.95995,0.96004 1.70395,2.06404 2.23199,3.312 0.57596,1.24804 0.86396,2.59204 0.86401,4.032 l 0,15.984 -31.32001,0 0,4.32 31.32001,0 0,11.016 -31.896,0 c -1.44002,0 -2.78402,-0.264 -4.03201,-0.792 -1.248,-0.576 -2.352,-1.344 -3.312,-2.304 -0.96,-0.95999 -1.728,-2.06399 -2.304,-3.312 -0.528,-1.24799 -0.792,-2.59199 -0.79199,-4.032 l 0,-20.88 c -1e-5,-1.43996 0.26399,-2.78396 0.79199,-4.032 0.576,-1.24796 1.344,-2.35196 2.304,-3.312 0.96,-0.95996 2.064,-1.70396 3.312,-2.232 1.24799,-0.57596 2.59199,-0.86396 4.03201,-0.864 l 21.45599,0 m -0.576,16.776 0,-5.76 -20.304,0 0,5.76 20.304,0"
         style="font-weight:900;fill:#cccccc;-inkscape-font-specification:Orbitron Heavy"
         id="path3885" />
      <path
         d="m 591.52025,949.53643 -11.088,0 0,-1.512 -20.304,0 0,4.32 20.88,0 c 1.43996,3e-5 2.80796,0.28803 4.104,0.864 1.29596,0.52803 2.39996,1.27203 3.312,2.232 0.95996,0.96002 1.70396,2.06402 2.232,3.312 0.57595,1.24802 0.86395,2.59202 0.864,4.032 l 0,5.544 c -5e-5,1.44001 -0.28805,2.78401 -0.864,4.032 -0.52804,1.24801 -1.27204,2.35201 -2.232,3.312 -0.91204,0.96 -2.01604,1.728 -3.312,2.304 -1.29604,0.528 -2.66404,0.792 -4.104,0.792 l -21.456,0 c -1.44001,0 -2.78401,-0.264 -4.032,-0.792 -1.24801,-0.576 -2.35201,-1.344 -3.312,-2.304 -0.96001,-0.95999 -1.728,-2.06399 -2.304,-3.312 -0.528,-1.24799 -0.792,-2.59199 -0.792,-4.032 l 0,-2.088 11.016,0 0,1.512 20.304,0 0,-4.32 -20.88,0 c -1.44001,2e-5 -2.78401,-0.26398 -4.032,-0.792 -1.24801,-0.57598 -2.35201,-1.34398 -3.312,-2.304 -0.96001,-0.95998 -1.728,-2.06398 -2.304,-3.312 -0.528,-1.24797 -0.792,-2.59197 -0.792,-4.032 l 0,-5.544 c 0,-1.43996 0.264,-2.78396 0.792,-4.032 0.576,-1.24796 1.34399,-2.35196 2.304,-3.312 0.95999,-0.95996 2.06399,-1.70396 3.312,-2.232 1.24799,-0.57596 2.59199,-0.86396 4.032,-0.864 l 21.456,0 c 1.43996,4e-5 2.80796,0.28804 4.104,0.864 1.29596,0.52804 2.39996,1.27204 3.312,2.232 0.95996,0.96004 1.70396,2.06404 2.232,3.312 0.57595,1.24804 0.86395,2.59204 0.864,4.032 l 0,2.088"
         style="font-weight:900;fill:#cccccc;-inkscape-font-specification:Orbitron Heavy"
         id="path3887" />
      <path
         d="m 609.84762,948.02443 0,19.728 15.48,0 0,11.016 -15.984,0 c -1.44001,0 -2.80801,-0.264 -4.10399,-0.792 -1.29601,-0.576 -2.42401,-1.344 -3.384,-2.304 -0.91201,-0.95999 -1.65601,-2.06399 -2.23201,-3.312 -0.528,-1.24799 -0.792,-2.59199 -0.79199,-4.032 l 0,-43.704 11.01599,0 0,12.384 15.48,0 0,11.016 -15.48,0"
         style="font-weight:900;fill:#cccccc;-inkscape-font-specification:Orbitron Heavy"
         id="path3889" />
    </g>
    <g
       style="font-size:48px;font-style:normal;font-variant:normal;font-weight:300;font-stretch:normal;line-height:125%;letter-spacing:0px;word-spacing:0px;fill:#cccccc;fill-opacity:1;stroke:none;font-family:Orbitron;-inkscape-font-specification:Orbitron Light"
       id="text2989">
      <path
         d="m 161.056,1009.3222 c 0.53331,0 1.03464,0.1067 1.504,0.32 0.46931,0.192 0.87464,0.4587 1.216,0.8 0.34131,0.3413 0.60798,0.7467 0.8,1.216 0.21331,0.4693 0.31998,0.9707 0.32,1.504 l 0,19.2 -2.592,0 0,-8.416 -17.856,0 0,8.416 -2.592,0 0,-19.2 c 0,-0.5333 0.096,-1.0347 0.288,-1.504 0.21333,-0.4693 0.49066,-0.8747 0.832,-1.216 0.34133,-0.3413 0.74666,-0.608 1.216,-0.8 0.46933,-0.2133 0.97066,-0.32 1.504,-0.32 l 15.36,0 m 1.248,12.032 0,-8.192 c -2e-5,-0.3413 -0.12802,-0.6293 -0.384,-0.864 -0.23469,-0.256 -0.52269,-0.384 -0.864,-0.384 l -15.36,0 c -0.34134,0 -0.64001,0.128 -0.896,0.384 -0.23467,0.2347 -0.352,0.5227 -0.352,0.864 l 0,8.192 17.856,0"
         style="font-size:32px;fill:#cccccc"
         id="path3892" />
      <path
         d="m 200.2695,1014.0902 -2.592,0 0,-0.928 c -2e-5,-0.3413 -0.12802,-0.6293 -0.384,-0.864 -0.23469,-0.256 -0.52269,-0.384 -0.864,-0.384 l -15.36,0 c -0.34134,0 -0.64,0.128 -0.896,0.384 -0.23467,0.2347 -0.352,0.5227 -0.352,0.864 l 0,15.36 c 0,0.3413 0.11733,0.64 0.352,0.896 0.256,0.2347 0.55466,0.352 0.896,0.352 l 15.36,0 c 0.34131,0 0.62931,-0.1173 0.864,-0.352 0.25598,-0.256 0.38398,-0.5547 0.384,-0.896 l 0,-5.696 -5.696,0 0,-2.624 8.288,0 0,8.32 c -2e-5,0.5333 -0.10669,1.0347 -0.32,1.504 -0.19202,0.4693 -0.45869,0.8747 -0.8,1.216 -0.34136,0.3413 -0.74669,0.6186 -1.216,0.832 -0.46936,0.192 -0.97069,0.288 -1.504,0.288 l -15.36,0 c -0.53334,0 -1.03467,-0.096 -1.504,-0.288 -0.46934,-0.2134 -0.87467,-0.4907 -1.216,-0.832 -0.34134,-0.3413 -0.61867,-0.7467 -0.832,-1.216 -0.192,-0.4693 -0.288,-0.9707 -0.288,-1.504 l 0,-15.36 c 0,-0.5333 0.096,-1.0347 0.288,-1.504 0.21333,-0.4693 0.49066,-0.8747 0.832,-1.216 0.34133,-0.3413 0.74666,-0.608 1.216,-0.8 0.46933,-0.2133 0.97066,-0.32 1.504,-0.32 l 15.36,0 c 0.53331,0 1.03464,0.1067 1.504,0.32 0.46931,0.192 0.87464,0.4587 1.216,0.8 0.34131,0.3413 0.60798,0.7467 0.8,1.216 0.21331,0.4693 0.31998,0.9707 0.32,1.504 l 0,0.928"
         style="font-size:32px;fill:#cccccc"
         id="path3894" />
      <path
         d="m 218.672,1013.8022 c 0.53332,0 1.03465,0.1067 1.504,0.32 0.49065,0.192 0.90665,0.4693 1.248,0.832 0.36265,0.3413 0.63998,0.7467 0.832,1.216 0.21331,0.4693 0.31998,0.9707 0.32,1.504 l 0,14.688 -15.04,0 c -0.53334,0 -1.03467,-0.096 -1.504,-0.288 -0.46934,-0.2134 -0.88534,-0.4907 -1.248,-0.832 -0.34134,-0.3627 -0.61867,-0.7787 -0.832,-1.248 -0.192,-0.4693 -0.288,-0.9707 -0.288,-1.504 l 0,-6.72 16.256,0 0,-4.096 c -2e-5,-0.3413 -0.11735,-0.6293 -0.352,-0.864 -0.23468,-0.256 -0.53335,-0.384 -0.896,-0.384 l -15.008,0 0,-2.624 15.008,0 m 1.248,10.592 -13.632,0 0,4.096 c 0,0.3413 0.11733,0.64 0.352,0.896 0.256,0.2347 0.55466,0.352 0.896,0.352 l 12.384,0 0,-5.344"
         style="font-size:32px;fill:#cccccc"
         id="path3896" />
      <path
         d="m 249.865,1013.8022 c 0.53331,0 1.03464,0.1067 1.504,0.32 0.49064,0.192 0.90664,0.4693 1.248,0.832 0.3413,0.3413 0.60797,0.7467 0.8,1.216 0.2133,0.4693 0.31997,0.9707 0.32,1.504 l 0,14.688 -2.592,0 0,-14.688 c -3e-5,-0.3413 -0.12803,-0.6293 -0.384,-0.864 -0.23469,-0.256 -0.53336,-0.384 -0.896,-0.384 l -7.712,0 c -0.36268,0 -0.66135,0.128 -0.896,0.384 -0.23468,0.2347 -0.35202,0.5227 -0.352,0.864 l 0,14.688 -2.656,0 0,-14.688 c -1e-5,-0.3413 -0.12801,-0.6293 -0.384,-0.864 -0.23468,-0.256 -0.52268,-0.384 -0.864,-0.384 l -7.744,0 c -0.34134,0 -0.64,0.128 -0.896,0.384 -0.23467,0.2347 -0.352,0.5227 -0.352,0.864 l 0,14.688 -2.656,0 0,-18.56 24.512,0"
         style="font-size:32px;fill:#cccccc"
         id="path3898" />
      <path
         d="m 271.5775,1013.8022 c 0.53332,0 1.03465,0.1067 1.504,0.32 0.49065,0.192 0.90665,0.4693 1.248,0.832 0.36265,0.3413 0.63998,0.7467 0.832,1.216 0.21331,0.4693 0.31998,0.9707 0.32,1.504 l 0,6.72 -16.288,0 0,4.096 c 0,0.3413 0.11733,0.64 0.352,0.896 0.256,0.2347 0.55466,0.352 0.896,0.352 l 15.04,0 0,2.624 -15.04,0 c -0.53334,0 -1.03467,-0.096 -1.504,-0.288 -0.46934,-0.2134 -0.88534,-0.4907 -1.248,-0.832 -0.34134,-0.3627 -0.61867,-0.7787 -0.832,-1.248 -0.192,-0.4693 -0.288,-0.9707 -0.288,-1.504 l 0,-10.816 c 0,-0.5333 0.096,-1.0347 0.288,-1.504 0.21333,-0.4693 0.49066,-0.8747 0.832,-1.216 0.36266,-0.3627 0.77866,-0.64 1.248,-0.832 0.46933,-0.2133 0.97066,-0.32 1.504,-0.32 l 11.136,0 m 1.248,7.968 0,-4.096 c -2e-5,-0.3413 -0.11735,-0.6293 -0.352,-0.864 -0.23468,-0.256 -0.53335,-0.384 -0.896,-0.384 l -11.136,0 c -0.34134,0 -0.64,0.128 -0.896,0.384 -0.23467,0.2347 -0.352,0.5227 -0.352,0.864 l 0,4.096 13.632,0"
         style="font-size:32px;fill:#cccccc"
         id="path3900" />
      <path
         d="m 322.5485,1009.3222 -8.384,23.04 -2.272,0 -7.168,-19.68 -7.168,19.68 -2.24,0 -8.384,-23.04 2.752,0 6.752,18.496 c 0.51199,-1.408 1.04532,-2.8907 1.6,-4.448 0.57599,-1.5787 1.15199,-3.168 1.728,-4.768 0.59732,-1.6 1.18398,-3.1893 1.76,-4.768 0.57598,-1.5787 1.11998,-3.0827 1.632,-4.512 l 3.136,0 6.752,18.496 c 0.51197,-1.408 1.04531,-2.8907 1.6,-4.448 0.57597,-1.5787 1.15197,-3.168 1.728,-4.768 0.57597,-1.6 1.15197,-3.1893 1.728,-4.768 0.57597,-1.5787 1.11997,-3.0827 1.632,-4.512 l 2.816,0"
         style="font-size:32px;fill:#cccccc"
         id="path3902" />
      <path
         d="m 339.5305,1013.8022 0,2.624 -10.432,0 c -0.34134,0 -0.64,0.128 -0.896,0.384 -0.23467,0.2347 -0.352,0.5227 -0.352,0.864 l 0,14.688 -2.624,0 0,-14.688 c 0,-0.5333 0.096,-1.0347 0.288,-1.504 0.21333,-0.4693 0.49066,-0.8747 0.832,-1.216 0.36266,-0.3627 0.77866,-0.64 1.248,-0.832 0.46933,-0.2133 0.97066,-0.32 1.504,-0.32 l 10.432,0"
         style="font-size:32px;fill:#cccccc"
         id="path3904" />
      <path
         d="m 341.6015,1013.8022 2.624,0 0,18.56 -2.624,0 0,-18.56 m 2.624,-6.08 0,2.624 -2.624,0 0,-2.624 2.624,0"
         style="font-size:32px;fill:#cccccc"
         id="path3906" />
      <path
         d="m 350.945,1016.4262 0,12.064 c 0,0.3413 0.11733,0.64 0.352,0.896 0.256,0.2347 0.55466,0.352 0.896,0.352 l 6.784,0 0,2.624 -6.784,0 c -0.55467,0 -1.06667,-0.096 -1.536,-0.288 -0.46934,-0.2134 -0.87467,-0.4907 -1.216,-0.832 -0.34134,-0.3627 -0.61867,-0.7787 -0.832,-1.248 -0.192,-0.4693 -0.288,-0.9707 -0.288,-1.504 l 0,-20.768 2.624,0 0,6.08 8.032,0 0,2.624 -8.032,0"
         style="font-size:32px;fill:#cccccc"
         id="path3908" />
      <path
         d="m 364.07,1016.4262 0,12.064 c 0,0.3413 0.11733,0.64 0.352,0.896 0.256,0.2347 0.55466,0.352 0.896,0.352 l 6.784,0 0,2.624 -6.784,0 c -0.55467,0 -1.06667,-0.096 -1.536,-0.288 -0.46934,-0.2134 -0.87467,-0.4907 -1.216,-0.832 -0.34134,-0.3627 -0.61867,-0.7787 -0.832,-1.248 -0.192,-0.4693 -0.288,-0.9707 -0.288,-1.504 l 0,-20.768 2.624,0 0,6.08 8.032,0 0,2.624 -8.032,0"
         style="font-size:32px;fill:#cccccc"
         id="path3910" />
      <path
         d="m 389.515,1013.8022 c 0.53332,0 1.03465,0.1067 1.504,0.32 0.49065,0.192 0.90665,0.4693 1.248,0.832 0.36265,0.3413 0.63998,0.7467 0.832,1.216 0.21331,0.4693 0.31998,0.9707 0.32,1.504 l 0,6.72 -16.288,0 0,4.096 c 0,0.3413 0.11733,0.64 0.352,0.896 0.256,0.2347 0.55466,0.352 0.896,0.352 l 15.04,0 0,2.624 -15.04,0 c -0.53334,0 -1.03467,-0.096 -1.504,-0.288 -0.46934,-0.2134 -0.88534,-0.4907 -1.248,-0.832 -0.34134,-0.3627 -0.61867,-0.7787 -0.832,-1.248 -0.192,-0.4693 -0.288,-0.9707 -0.288,-1.504 l 0,-10.816 c 0,-0.5333 0.096,-1.0347 0.288,-1.504 0.21333,-0.4693 0.49066,-0.8747 0.832,-1.216 0.36266,-0.3627 0.77866,-0.64 1.248,-0.832 0.46933,-0.2133 0.97066,-0.32 1.504,-0.32 l 11.136,0 m 1.248,7.968 0,-4.096 c -2e-5,-0.3413 -0.11735,-0.6293 -0.352,-0.864 -0.23468,-0.256 -0.53335,-0.384 -0.896,-0.384 l -11.136,0 c -0.34134,0 -0.64,0.128 -0.896,0.384 -0.23467,0.2347 -0.352,0.5227 -0.352,0.864 l 0,4.096 13.632,0"
         style="font-size:32px;fill:#cccccc"
         id="path3912" />
      <path
         d="m 411.8305,1013.8022 c 0.53332,0 1.03465,0.1067 1.504,0.32 0.46931,0.192 0.87465,0.4693 1.216,0.832 0.36265,0.3413 0.63998,0.7467 0.832,1.216 0.21331,0.4693 0.31998,0.9707 0.32,1.504 l 0,14.688 -2.624,0 0,-14.688 c -2e-5,-0.3413 -0.12802,-0.6293 -0.384,-0.864 -0.23468,-0.256 -0.52268,-0.384 -0.864,-0.384 l -11.136,0 c -0.36267,0 -0.672,0.128 -0.928,0.384 -0.23467,0.2347 -0.352,0.5227 -0.352,0.864 l 0,14.688 -2.624,0 0,-18.56 15.04,0"
         style="font-size:32px;fill:#cccccc"
         id="path3914" />
      <path
         d="m 449.648,1020.2982 c 0.38398,0.3627 0.69331,0.7893 0.928,1.28 0.23464,0.4907 0.35198,1.0133 0.352,1.568 l 0,5.376 c -2e-5,0.5333 -0.10669,1.0347 -0.32,1.504 -0.19202,0.4693 -0.45869,0.8747 -0.8,1.216 -0.34136,0.3413 -0.74669,0.6186 -1.216,0.832 -0.46936,0.192 -0.97069,0.288 -1.504,0.288 l -19.2,0 0,-23.04 18.208,0 c 0.53331,0 1.03465,0.1067 1.504,0.32 0.46931,0.192 0.87464,0.4587 1.216,0.8 0.34131,0.3413 0.60798,0.7467 0.8,1.216 0.21331,0.4693 0.31998,0.9707 0.32,1.504 l 0,4.896 c -2e-5,0.576 -0.13869,1.1413 -0.416,1.696 l 0.128,0.544 m -17.92,-8.384 c -0.34134,0 -0.64001,0.128 -0.896,0.384 -0.23467,0.2347 -0.352,0.5227 -0.352,0.864 l 0,4.896 c 0,0.3413 0.11733,0.64 0.352,0.896 0.25599,0.2347 0.55466,0.352 0.896,0.352 l 14.368,0 c 0.34131,0 0.62931,-0.1173 0.864,-0.352 0.23465,-0.256 0.35198,-0.5547 0.352,-0.896 l 0,-4.896 c -2e-5,-0.3413 -0.11735,-0.6293 -0.352,-0.864 -0.23469,-0.256 -0.52269,-0.384 -0.864,-0.384 l -14.368,0 m 16.608,11.232 c -2e-5,-0.3413 -0.12802,-0.6293 -0.384,-0.864 -0.23469,-0.256 -0.52269,-0.384 -0.864,-0.384 l -15.36,0 c -0.34134,0 -0.64001,0.128 -0.896,0.384 -0.23467,0.2347 -0.352,0.5227 -0.352,0.864 l 0,5.376 c 0,0.3413 0.11733,0.64 0.352,0.896 0.25599,0.2347 0.55466,0.352 0.896,0.352 l 15.36,0 c 0.34131,0 0.62931,-0.1173 0.864,-0.352 0.25598,-0.256 0.38398,-0.5547 0.384,-0.896 l 0,-5.376"
         style="font-size:32px;fill:#cccccc"
         id="path3916" />
      <path
         d="m 472.7865,1035.8182 c -2e-5,0.5546 -0.10669,1.0666 -0.32,1.536 -0.19202,0.4693 -0.45869,0.8746 -0.8,1.216 -0.34135,0.3626 -0.75735,0.64 -1.248,0.832 -0.46935,0.2133 -0.97068,0.32 -1.504,0.32 l -11.584,0 0,-2.656 11.584,0 c 0.34132,0 0.62932,-0.128 0.864,-0.384 0.25598,-0.2347 0.38398,-0.5227 0.384,-0.864 l 0,-3.456 -12.384,0 c -0.53334,0 -1.03467,-0.096 -1.504,-0.288 -0.46934,-0.2134 -0.88534,-0.4907 -1.248,-0.832 -0.34134,-0.3627 -0.61867,-0.7787 -0.832,-1.248 -0.192,-0.4693 -0.288,-0.9707 -0.288,-1.504 l 0,-14.624 2.624,0 0,14.624 c 0,0.3413 0.11733,0.64 0.352,0.896 0.256,0.2347 0.55466,0.352 0.896,0.352 l 11.136,0 c 0.34132,0 0.62932,-0.1173 0.864,-0.352 0.25598,-0.256 0.38398,-0.5547 0.384,-0.896 l 0,-14.624 2.624,0 0,21.952"
         style="font-size:32px;fill:#cccccc"
         id="path3918" />
      <path
         d="m 505.4275,1009.3222 2.592,0 0,23.04 -3.552,0 -16.896,-20.096 0,20.096 -2.592,0 0,-23.04 3.552,0 16.896,20.096 0,-20.096"
         style="font-size:32px;fill:#cccccc"
         id="path3920" />
      <path
         d="m 511.4765,1013.8022 2.624,0 0,18.56 -2.624,0 0,-18.56 m 2.624,-6.08 0,2.624 -2.624,0 0,-2.624 2.624,0"
         style="font-size:32px;fill:#cccccc"
         id="path3922" />
      <path
         d="m 536.692,1035.7862 c -2e-5,0.5546 -0.10669,1.0666 -0.32,1.536 -0.19202,0.4693 -0.45869,0.8746 -0.8,1.216 -0.34135,0.3626 -0.75735,0.64 -1.248,0.832 -0.46935,0.2133 -0.97068,0.32 -1.504,0.32 l -11.584,0 0,-2.656 11.584,0 c 0.34132,0 0.62932,-0.128 0.864,-0.384 0.25598,-0.2347 0.38398,-0.5227 0.384,-0.864 l 0,-3.424 -12.384,0 c -0.53334,0 -1.03467,-0.096 -1.504,-0.288 -0.46934,-0.2134 -0.88534,-0.4907 -1.248,-0.832 -0.34134,-0.3627 -0.61867,-0.7787 -0.832,-1.248 -0.192,-0.4693 -0.288,-0.9707 -0.288,-1.504 l 0,-10.816 c 0,-0.5333 0.096,-1.0347 0.288,-1.504 0.21333,-0.4693 0.49066,-0.8747 0.832,-1.216 0.36266,-0.3627 0.77866,-0.64 1.248,-0.832 0.46933,-0.2133 0.97066,-0.32 1.504,-0.32 l 11.136,0 c 0.53332,0 1.03465,0.1067 1.504,0.32 0.49065,0.192 0.90665,0.4693 1.248,0.832 0.34131,0.3413 0.60798,0.7467 0.8,1.216 0.21331,0.4693 0.31998,0.9707 0.32,1.504 l 0,18.112 m -3.872,-6.048 c 0.34132,0 0.62932,-0.1173 0.864,-0.352 0.25598,-0.256 0.38398,-0.5547 0.384,-0.896 l 0,-10.816 c -2e-5,-0.3413 -0.12802,-0.6293 -0.384,-0.864 -0.23468,-0.256 -0.52268,-0.384 -0.864,-0.384 l -11.136,0 c -0.34134,0 -0.64,0.128 -0.896,0.384 -0.23467,0.2347 -0.352,0.5227 -0.352,0.864 l 0,10.816 c 0,0.3413 0.11733,0.64 0.352,0.896 0.256,0.2347 0.55466,0.352 0.896,0.352 l 11.136,0"
         style="font-size:32px;fill:#cccccc"
         id="path3924" />
      <path
         d="m 554.515,1013.8022 c 0.53332,0 1.03465,0.1067 1.504,0.32 0.49065,0.192 0.90665,0.4693 1.248,0.832 0.36265,0.3413 0.63998,0.7467 0.832,1.216 0.21331,0.4693 0.31998,0.9707 0.32,1.504 l 0,6.72 -16.288,0 0,4.096 c 0,0.3413 0.11733,0.64 0.352,0.896 0.256,0.2347 0.55466,0.352 0.896,0.352 l 15.04,0 0,2.624 -15.04,0 c -0.53334,0 -1.03467,-0.096 -1.504,-0.288 -0.46934,-0.2134 -0.88534,-0.4907 -1.248,-0.832 -0.34134,-0.3627 -0.61867,-0.7787 -0.832,-1.248 -0.192,-0.4693 -0.288,-0.9707 -0.288,-1.504 l 0,-10.816 c 0,-0.5333 0.096,-1.0347 0.288,-1.504 0.21333,-0.4693 0.49066,-0.8747 0.832,-1.216 0.36266,-0.3627 0.77866,-0.64 1.248,-0.832 0.46933,-0.2133 0.97066,-0.32 1.504,-0.32 l 11.136,0 m 1.248,7.968 0,-4.096 c -2e-5,-0.3413 -0.11735,-0.6293 -0.352,-0.864 -0.23468,-0.256 -0.53335,-0.384 -0.896,-0.384 l -11.136,0 c -0.34134,0 -0.64,0.128 -0.896,0.384 -0.23467,0.2347 -0.352,0.5227 -0.352,0.864 l 0,4.096 13.632,0"
         style="font-size:32px;fill:#cccccc"
         id="path3926" />
      <path
         d="m 563.7255,1007.7222 0,20.768 c 0,0.3413 0.11733,0.64 0.352,0.896 0.256,0.2347 0.55466,0.352 0.896,0.352 l 3.136,0 0,2.624 -3.136,0 c -0.53334,0 -1.03467,-0.096 -1.504,-0.288 -0.46934,-0.2134 -0.88534,-0.4907 -1.248,-0.832 -0.34134,-0.3627 -0.61867,-0.7787 -0.832,-1.248 -0.192,-0.4693 -0.288,-0.9707 -0.288,-1.504 l 0,-20.768 2.624,0"
         style="font-size:32px;fill:#cccccc"
         id="path3928" />
      <path
         d="m 583.4445,1011.9142 c -0.34134,0 -0.64,0.128 -0.896,0.384 -0.23467,0.2347 -0.352,0.5227 -0.352,0.864 l 0,15.36 c 0,0.3413 0.11733,0.64 0.352,0.896 0.256,0.2347 0.55466,0.352 0.896,0.352 l 19.136,0 0,2.592 -19.136,0 c -0.53334,0 -1.03467,-0.096 -1.504,-0.288 -0.46934,-0.2134 -0.87467,-0.4907 -1.216,-0.832 -0.34134,-0.3413 -0.61867,-0.7467 -0.832,-1.216 -0.192,-0.4693 -0.288,-0.9707 -0.288,-1.504 l 0,-15.36 c 0,-0.5333 0.096,-1.0347 0.288,-1.504 0.21333,-0.4693 0.49066,-0.8747 0.832,-1.216 0.34133,-0.3413 0.74666,-0.608 1.216,-0.8 0.46933,-0.2133 0.97066,-0.32 1.504,-0.32 l 19.136,0 0,2.592 -19.136,0"
         style="font-size:32px;fill:#cccccc"
         id="path3930" />
      <path
         d="m 620.893,1013.8022 c 0.53332,0 1.03465,0.1067 1.504,0.32 0.46931,0.192 0.87465,0.4693 1.216,0.832 0.36265,0.3413 0.63998,0.7467 0.832,1.216 0.21331,0.4693 0.31998,0.9707 0.32,1.504 l 0,14.688 -2.624,0 0,-14.688 c -2e-5,-0.3413 -0.12802,-0.6293 -0.384,-0.864 -0.23468,-0.256 -0.52268,-0.384 -0.864,-0.384 l -11.136,0 c -0.36267,0 -0.672,0.128 -0.928,0.384 -0.23467,0.2347 -0.352,0.5227 -0.352,0.864 l 0,14.688 -2.624,0 0,-24.64 2.624,0 0,6.08 12.416,0"
         style="font-size:32px;fill:#cccccc"
         id="path3932" />
      <path
         d="m 642.3595,1013.8022 c 0.53332,0 1.03465,0.1067 1.504,0.32 0.49065,0.192 0.90665,0.4693 1.248,0.832 0.36265,0.3413 0.63998,0.7467 0.832,1.216 0.21331,0.4693 0.31998,0.9707 0.32,1.504 l 0,14.688 -15.04,0 c -0.53334,0 -1.03467,-0.096 -1.504,-0.288 -0.46934,-0.2134 -0.88534,-0.4907 -1.248,-0.832 -0.34134,-0.3627 -0.61867,-0.7787 -0.832,-1.248 -0.192,-0.4693 -0.288,-0.9707 -0.288,-1.504 l 0,-6.72 16.256,0 0,-4.096 c -2e-5,-0.3413 -0.11735,-0.6293 -0.352,-0.864 -0.23468,-0.256 -0.53335,-0.384 -0.896,-0.384 l -15.008,0 0,-2.624 15.008,0 m 1.248,10.592 -13.632,0 0,4.096 c 0,0.3413 0.11733,0.64 0.352,0.896 0.256,0.2347 0.55466,0.352 0.896,0.352 l 12.384,0 0,-5.344"
         style="font-size:32px;fill:#cccccc"
         id="path3934" />
      <path
         d="m 664.2055,1013.8022 c 0.53332,0 1.03465,0.1067 1.504,0.32 0.46931,0.192 0.87465,0.4693 1.216,0.832 0.36265,0.3413 0.63998,0.7467 0.832,1.216 0.21331,0.4693 0.31998,0.9707 0.32,1.504 l 0,14.688 -2.624,0 0,-14.688 c -2e-5,-0.3413 -0.12802,-0.6293 -0.384,-0.864 -0.23468,-0.256 -0.52268,-0.384 -0.864,-0.384 l -11.136,0 c -0.36267,0 -0.672,0.128 -0.928,0.384 -0.23467,0.2347 -0.352,0.5227 -0.352,0.864 l 0,14.688 -2.624,0 0,-18.56 15.04,0"
         style="font-size:32px;fill:#cccccc"
         id="path3936" />
    </g>
  </g>
</svg>
