<?xml version="1.0" encoding="UTF-8" standalone="no"?>
<!-- Created with Inkscape (http://www.inkscape.org/) -->

<svg
   xmlns:dc="http://purl.org/dc/elements/1.1/"
   xmlns:cc="http://creativecommons.org/ns#"
   xmlns:rdf="http://www.w3.org/1999/02/22-rdf-syntax-ns#"
   xmlns:svg="http://www.w3.org/2000/svg"
   xmlns="http://www.w3.org/2000/svg"
   xmlns:xlink="http://www.w3.org/1999/xlink"
   xmlns:sodipodi="http://sodipodi.sourceforge.net/DTD/sodipodi-0.dtd"
   xmlns:inkscape="http://www.inkscape.org/namespaces/inkscape"
   width="736"
   height="920.00348"
   id="svg2"
   version="1.1"
   inkscape:version="0.48.4 r9939"
   sodipodi:docname="penguin.svg">
  <defs
     id="defs4">
    <linearGradient
       id="linearGradient3810">
      <stop
         style="stop-color:#0b1728;stop-opacity:1;"
         offset="0"
         id="stop3812" />
      <stop
         id="stop3822"
         offset="0.39739981"
         style="stop-color:#0b1728;stop-opacity:1;" />
      <stop
         style="stop-color:#003380;stop-opacity:1;"
         offset="1"
         id="stop3814" />
    </linearGradient>
    <filter
       inkscape:collect="always"
       id="filter3781"
       x="-0.23999999"
       width="1.48"
       y="-0.23999999"
       height="1.48"
       color-interpolation-filters="sRGB">
      <feGaussianBlur
         inkscape:collect="always"
         stdDeviation="4"
         id="feGaussianBlur3783" />
    </filter>
    <filter
       color-interpolation-filters="sRGB"
       height="1.48"
       y="-0.23999999"
       width="1.48"
       x="-0.23999999"
       id="filter3781-4"
       inkscape:collect="always">
      <feGaussianBlur
         id="feGaussianBlur3783-0"
         stdDeviation="4"
         inkscape:collect="always" />
    </filter>
    <radialGradient
       inkscape:collect="always"
       xlink:href="#linearGradient3810"
       id="radialGradient3870"
       cx="494.37592"
       cy="527.12531"
       fx="494.37592"
       fy="527.12531"
       r="52.65625"
       gradientTransform="matrix(2.8727899,0.00488251,-0.00650029,3.8231612,-939.66789,-1471.3673)"
       gradientUnits="userSpaceOnUse" />
  </defs>
  <sodipodi:namedview
     id="base"
     pagecolor="#ffffff"
     bordercolor="#666666"
     borderopacity="1.0"
     inkscape:pageopacity="0.0"
     inkscape:pageshadow="2"
     inkscape:zoom="0.45254834"
     inkscape:cx="154.63695"
     inkscape:cy="529.43507"
     inkscape:document-units="px"
     inkscape:current-layer="layer1"
     showgrid="false"
     inkscape:window-width="1920"
     inkscape:window-height="1018"
     inkscape:window-x="-8"
     inkscape:window-y="-8"
     inkscape:window-maximized="1"
     fit-margin-top="0"
     fit-margin-left="0"
     fit-margin-right="0"
     fit-margin-bottom="0">
    <inkscape:grid
       type="xygrid"
       id="grid2985"
       empspacing="10"
       visible="true"
       enabled="true"
       snapvisiblegridlinesonly="true"
       originx="-32.7px"
       dotted="false"
       color="#00aeff"
       opacity="0.1254902"
       spacingx="20px"
       spacingy="20px" />
  </sodipodi:namedview>
  <metadata
     id="metadata7">
    <rdf:RDF>
      <cc:Work
         rdf:about="">
        <dc:format>image/svg+xml</dc:format>
        <dc:type
           rdf:resource="http://purl.org/dc/dcmitype/StillImage" />
        <dc:title></dc:title>
      </cc:Work>
    </rdf:RDF>
  </metadata>
  <g
     inkscape:label="Layer 1"
     inkscape:groupmode="layer"
     id="layer1"
     transform="translate(-2.8968665e-8,-132.3587)">
    <path
       sodipodi:nodetypes="cszccc"
       inkscape:connector-curvature="0"
       id="path3055"
       d="m 487.5509,952.3587 c 0,0 107.4951,37.97567 100,80 -3.7015,20.7543 -23.4972,20 -60,20 -36.5028,0 -60,-20 -60,-20 l -100,-80 z"
       style="fill:#ffcc00;stroke:none" />
    <path
       style="fill:#ffcc00;stroke:none"
       d="m 247.55091,952.3587 c 0,0 -107.49509,37.97567 -100,80 3.70156,20.7543 23.49718,20 60,20 36.50282,0 59.99999,-20 59.99999,-20 l 100,-80 z"
       id="path3049"
       inkscape:connector-curvature="0"
       sodipodi:nodetypes="cszccc" />
    <path
       style="fill:#00112b;fill-opacity:0.99607843;stroke:none"
       d="m 107.55091,412.3587 c 0,-100 80,-220 259.99999,-220 180,0 260,120 260,220 0,53.74838 -20,160 -20,160 0,0 40,120 40,220 0,200 -157.4348,200 -280,200 -122.56517,0 -279.99999,0 -279.99999,-200 0,-100 40,-220 40,-220 0,0 -20,-106.25162 -20,-160 z"
       id="path3004"
       inkscape:connector-curvature="0"
       sodipodi:nodetypes="ssscszscs" />
    <path
       sodipodi:type="arc"
       style="fill:#ffffff;fill-opacity:1;stroke:none"
       id="path3006"
       sodipodi:cx="420"
       sodipodi:cy="380"
       sodipodi:rx="100"
       sodipodi:ry="100"
       d="m 520,380 a 100,100 0 1 1 -200,0 100,100 0 1 1 200,0 z"
       transform="translate(-132.44909,52.358696)" />
    <path
       transform="translate(27.55091,52.358696)"
       d="m 520,380 a 100,100 0 1 1 -200,0 100,100 0 1 1 200,0 z"
       sodipodi:ry="100"
       sodipodi:rx="100"
       sodipodi:cy="380"
       sodipodi:cx="420"
       id="path3008"
       style="fill:#ffffff;fill-opacity:1;stroke:none"
       sodipodi:type="arc" />
    <path
       sodipodi:nodetypes="sccscszscs"
       inkscape:connector-curvature="0"
       id="path3010"
       d="m 185.55091,466.3587 c 2,-34 2,-34 2,-34 l 359.99999,0 c 0,0 0,0 2,34 2.2094,37.55895 -22,106 -22,106 0,0 55.5785,110.13978 60,180 10,158 -40,220 -220,220 -179.99999,0 -229.99999,-62 -219.99999,-220 4.42153,-69.86022 60,-180 60,-180 0,0 -24.20935,-68.44105 -22,-106 z"
       style="fill:#ffffff;stroke:none" />
    <path
       id="path3809"
       d="m 129.70716,320.5462 c 47.19196,29.96285 67.4767,33.76409 157.71874,51.8125 l -20,40 c -76.93973,-19.23493 -80.59647,-20.32639 -151.87499,-55.9375 3.52826,-12.11667 8.26336,-24.14386 14.15625,-35.875 z"
       style="fill:#1a1a1a;stroke:none"
       inkscape:connector-curvature="0" />
    <path
       style="fill:#1a1a1a;stroke:none"
       d="m 605.2697,320.5462 c -47.192,29.96285 -67.4767,33.76409 -157.7188,51.8125 l 20,40 c 76.9398,-19.23493 80.5965,-20.32639 151.875,-55.9375 -3.5283,-12.11667 -8.2633,-24.14386 -14.1562,-35.875 z"
       id="path3789"
       inkscape:connector-curvature="0" />
    <path
       style="fill:#1a1a1a;stroke:none"
       d="m 287.5509,432.3587 c 20,0 42.6977,-20 60,-20 20,0 20,0 40,0 27.4874,0 40,20 60,20 20,0 40,-21.14382 40,-40 0,-18.85618 -20,-40 -40,-40 -20,0 -40,20 -40,20 0,0 -26.5175,6 -40,6 -13.4825,0 -40,-6 -40,-6 0,0 -20,-20 -40,-20 -20,0 -39.99999,21.14382 -39.99999,40 0,18.85618 19.99999,40 39.99999,40 z"
       id="path2996"
       inkscape:connector-curvature="0"
       sodipodi:nodetypes="ssssascscsas" />
    <path
       transform="matrix(1.44,0,0,1.44,-288.44909,-97.241304)"
       d="m 420,340 a 20,20 0 1 1 -40,0 20,20 0 1 1 40,0 z"
       sodipodi:ry="20"
       sodipodi:rx="20"
       sodipodi:cy="340"
       sodipodi:cx="400"
       id="path3000"
       style="fill:#333333;fill-opacity:1;stroke:none"
       sodipodi:type="arc" />
    <path
       sodipodi:type="arc"
       style="fill:#afe9af;fill-opacity:1;stroke:none"
       id="path3012"
       sodipodi:cx="400"
       sodipodi:cy="340"
       sodipodi:rx="20"
       sodipodi:ry="20"
       d="m 420,340 a 20,20 0 1 1 -40,0 20,20 0 1 1 40,0 z"
       transform="translate(-112.44909,52.358696)" />
    <path
       transform="matrix(1.44,0,0,1.44,-416.44909,-97.241304)"
       d="m 620,340 a 20,20 0 1 1 -40,0 20,20 0 1 1 40,0 z"
       sodipodi:ry="20"
       sodipodi:rx="20"
       sodipodi:cy="340"
       sodipodi:cx="600"
       id="path3005"
       style="fill:#333333;fill-opacity:1;stroke:none"
       sodipodi:type="arc" />
    <path
       sodipodi:type="arc"
       style="fill:#afe9af;fill-opacity:1;stroke:none"
       id="path3014"
       sodipodi:cx="600"
       sodipodi:cy="340"
       sodipodi:rx="20"
       sodipodi:ry="20"
       d="m 620,340 a 20,20 0 1 1 -40,0 20,20 0 1 1 40,0 z"
       transform="translate(-152.44909,52.358696)" />
    <path
       style="fill:#aa8800"
       d="m 287.5509,532.3587 160,0 -80,20 z"
       id="path3020"
       inkscape:connector-curvature="0" />
    <path
       style="fill:#ffff00;stroke:none"
       d="m 287.5509,532.3587 c 0,0 50.1858,-40 80,-40 29.8143,0 80,40 80,40 l -80,10 z"
       id="path3016"
       inkscape:connector-curvature="0"
       sodipodi:nodetypes="czccc" />
    <path
       style="fill:#00112b;stroke:none"
       d="m 375.5509,232.3587 c 11.4063,-99.92188 112.296,-57.65277 112.296,-57.65277 0,0 -48.9063,-0.39063 -60.296,17.65277 0,0 60.0313,-27.10938 108.9375,24.45313 0,0 -88.9375,-44.45313 -80.9375,35.54687 8,80 -91.4062,79.92188 -80,-20 z"
       id="path3045"
       inkscape:connector-curvature="0"
       sodipodi:nodetypes="zccczz" />
    <path
       style="fill:#00112b;stroke:none"
       d="m 157.15443,687.27767 c 20,20 107.73397,-119.44757 119.99997,-140 12.266,-20.55243 0,-60 -39.99998,-60 -40,0 -41.02509,29.89169 -59.99999,60 -18.97491,30.10831 -53.33333,106.66667 -20,140 z"
       id="path3057"
       inkscape:connector-curvature="0"
       sodipodi:nodetypes="szzzs" />
    <path
       sodipodi:nodetypes="szzzs"
       inkscape:connector-curvature="0"
       id="path3059"
       d="m 578.4883,687.27719 c -20,20 -107.734,-119.44757 -120,-140 -12.266,-20.55243 0,-60 40,-60 40,0 41.0251,29.89169 60,60 18.9749,30.10831 53.3334,106.66667 20,140 z"
       style="fill:#00112b;stroke:none" />
    <path
       sodipodi:type="arc"
       style="fill:#afe9af;fill-opacity:0.6682692;stroke:none;filter:url(#filter3781)"
       id="path3785"
       sodipodi:cx="400"
       sodipodi:cy="340"
       sodipodi:rx="20"
       sodipodi:ry="20"
       d="m 420,340 a 20,20 0 1 1 -40,0 20,20 0 1 1 40,0 z"
       transform="matrix(1.8,0,0,1.8,-432.44909,-219.6413)" />
    <path
       transform="matrix(1.8,0,0,1.8,-272.44909,-219.6413)"
       d="m 420,340 a 20,20 0 1 1 -40,0 20,20 0 1 1 40,0 z"
       sodipodi:ry="20"
       sodipodi:rx="20"
       sodipodi:cy="340"
       sodipodi:cx="400"
       id="path3787"
       style="fill:#afe9af;fill-opacity:0.6682692;stroke:none;filter:url(#filter3781)"
       sodipodi:type="arc" />
    <path
       sodipodi:type="arc"
       style="fill:#000000;fill-opacity:1;stroke:none"
       id="path3794"
       sodipodi:cx="420"
       sodipodi:cy="380"
       sodipodi:rx="20"
       sodipodi:ry="20"
       d="m 440,380 a 20,20 0 1 1 -40,0 20,20 0 1 1 40,0 z"
       transform="matrix(1.5,0,0,1.125,-342.44909,34.8587)" />
    <path
       transform="matrix(0.9,0,0,0.675,-90.44909,205.8587)"
       d="m 440,380 a 20,20 0 1 1 -40,0 20,20 0 1 1 40,0 z"
       sodipodi:ry="20"
       sodipodi:rx="20"
       sodipodi:cy="380"
       sodipodi:cx="420"
       id="path3798"
       style="fill:#ffffff;fill-opacity:1;stroke:none"
       sodipodi:type="arc" />
    <path
       sodipodi:type="arc"
       style="fill:#aaccff;fill-opacity:1;stroke:none"
       id="path3783"
       sodipodi:cx="269.14062"
       sodipodi:cy="347.6402"
       sodipodi:rx="11.523438"
       sodipodi:ry="8.3007812"
       d="m 280.66406,347.6402 a 11.523438,8.3007813 0 1 1 -23.04687,0 11.523438,8.3007813 0 1 1 23.04687,0 z"
       transform="matrix(1.1694915,0,0,1.1058824,-46.26511,94.93333)" />
    <path
       transform="matrix(1.1694915,0,0,1.1058824,-28.26511,94.93333)"
       d="m 280.66406,347.6402 a 11.523438,8.3007813 0 1 1 -23.04687,0 11.523438,8.3007813 0 1 1 23.04687,0 z"
       sodipodi:ry="8.3007812"
       sodipodi:rx="11.523438"
       sodipodi:cy="347.6402"
       sodipodi:cx="269.14062"
       id="path3786"
       style="fill:#aaccff;fill-opacity:1;stroke:none"
       sodipodi:type="arc" />
    <path
       sodipodi:type="arc"
       style="fill:#aaccff;fill-opacity:1;stroke:none"
       id="path3788"
       sodipodi:cx="269.14062"
       sodipodi:cy="347.6402"
       sodipodi:rx="11.523438"
       sodipodi:ry="8.3007812"
       d="m 280.66406,347.6402 a 11.523438,8.3007813 0 1 1 -23.04687,0 11.523438,8.3007813 0 1 1 23.04687,0 z"
       transform="matrix(1.1694915,0,0,1.1058824,-8.26511,94.93333)" />
    <path
       transform="matrix(1.5,0,0,1.125,-182.44909,34.8587)"
       d="m 440,380 a 20,20 0 1 1 -40,0 20,20 0 1 1 40,0 z"
       sodipodi:ry="20"
       sodipodi:rx="20"
       sodipodi:cy="380"
       sodipodi:cx="420"
       id="path3790"
       style="fill:#000000;fill-opacity:1;stroke:none"
       sodipodi:type="arc" />
    <path
       sodipodi:type="arc"
       style="fill:#ffffff;fill-opacity:1;stroke:none"
       id="path3792"
       sodipodi:cx="420"
       sodipodi:cy="380"
       sodipodi:rx="20"
       sodipodi:ry="20"
       d="m 440,380 a 20,20 0 1 1 -40,0 20,20 0 1 1 40,0 z"
       transform="matrix(0.9,0,0,0.675,69.55091,205.8587)" />
    <path
       transform="matrix(1.1694915,0,0,1.1058824,113.73489,94.93333)"
       d="m 280.66406,347.6402 a 11.523438,8.3007813 0 1 1 -23.04687,0 11.523438,8.3007813 0 1 1 23.04687,0 z"
       sodipodi:ry="8.3007812"
       sodipodi:rx="11.523438"
       sodipodi:cy="347.6402"
       sodipodi:cx="269.14062"
       id="path3795"
       style="fill:#aaccff;fill-opacity:1;stroke:none"
       sodipodi:type="arc" />
    <path
       sodipodi:type="arc"
       style="fill:#aaccff;fill-opacity:1;stroke:none"
       id="path3797"
       sodipodi:cx="269.14062"
       sodipodi:cy="347.6402"
       sodipodi:rx="11.523438"
       sodipodi:ry="8.3007812"
       d="m 280.66406,347.6402 a 11.523438,8.3007813 0 1 1 -23.04687,0 11.523438,8.3007813 0 1 1 23.04687,0 z"
       transform="matrix(1.1694915,0,0,1.1058824,131.73489,94.93333)" />
    <path
       transform="matrix(1.1694915,0,0,1.1058824,151.73489,94.93333)"
       d="m 280.66406,347.6402 a 11.523438,8.3007813 0 1 1 -23.04687,0 11.523438,8.3007813 0 1 1 23.04687,0 z"
       sodipodi:ry="8.3007812"
       sodipodi:rx="11.523438"
       sodipodi:cy="347.6402"
       sodipodi:cx="269.14062"
       id="path3799"
       style="fill:#aaccff;fill-opacity:1;stroke:none"
       sodipodi:type="arc" />
  </g>
</svg>
