<?xml version="1.0" encoding="UTF-8" standalone="no"?>
<!-- Created with Inkscape (http://www.inkscape.org/) -->

<svg
   xmlns:dc="http://purl.org/dc/elements/1.1/"
   xmlns:cc="http://creativecommons.org/ns#"
   xmlns:rdf="http://www.w3.org/1999/02/22-rdf-syntax-ns#"
   xmlns:svg="http://www.w3.org/2000/svg"
   xmlns="http://www.w3.org/2000/svg"
   xmlns:sodipodi="http://sodipodi.sourceforge.net/DTD/sodipodi-0.dtd"
   xmlns:inkscape="http://www.inkscape.org/namespaces/inkscape"
   width="400"
   height="200"
   id="svg2"
   version="1.1"
   inkscape:version="0.48.2 r9819"
   sodipodi:docname="New document 1">
  <defs
     id="defs4">
    <filter
       height="1.96"
       y="-0.47999999"
       width="1.3200001"
       x="-0.16"
       id="filter3851"
       inkscape:collect="always"
       color-interpolation-filters="sRGB">
      <feGaussianBlur
         id="feGaussianBlur3853"
         stdDeviation="8"
         inkscape:collect="always" />
    </filter>
  </defs>
  <sodipodi:namedview
     id="base"
     pagecolor="#ffffff"
     bordercolor="#666666"
     borderopacity="1.0"
     inkscape:pageopacity="0.0"
     inkscape:pageshadow="2"
     inkscape:zoom="1.28"
     inkscape:cx="158.03115"
     inkscape:cy="133.25948"
     inkscape:document-units="px"
     inkscape:current-layer="layer1"
     showgrid="true"
     inkscape:window-width="1440"
     inkscape:window-height="774"
     inkscape:window-x="0"
     inkscape:window-y="0"
     inkscape:window-maximized="1">
    <inkscape:grid
       type="xygrid"
       id="grid2985"
       empspacing="10"
       visible="true"
       enabled="true"
       snapvisiblegridlinesonly="true"
       originx="0px"
       dotted="false"
       color="#00aeff"
       opacity="0.1254902"
       spacingx="20px"
       spacingy="20px" />
  </sodipodi:namedview>
  <metadata
     id="metadata7">
    <rdf:RDF>
      <cc:Work
         rdf:about="">
        <dc:format>image/svg+xml</dc:format>
        <dc:type
           rdf:resource="http://purl.org/dc/dcmitype/StillImage" />
        <dc:title></dc:title>
      </cc:Work>
    </rdf:RDF>
  </metadata>
  <g
     inkscape:label="Layer 1"
     inkscape:groupmode="layer"
     id="layer1"
     transform="translate(0,-852.36218)">
    <path
       style="fill:none;stroke:#803300;stroke-width:15;stroke-linecap:round;stroke-linejoin:miter;stroke-miterlimit:4;stroke-opacity:1;stroke-dasharray:none"
       d="m 300,960 c 0,0 0,20 -30,20 -30,0 -30,-20 -30,-20"
       id="path4722"
       inkscape:connector-curvature="0"
       transform="translate(0,52.36218)"
       sodipodi:nodetypes="czc" />
    <path
       sodipodi:type="arc"
       style="fill:#803300;fill-opacity:1;stroke:none"
       id="path2987"
       sodipodi:cx="80"
       sodipodi:cy="85"
       sodipodi:rx="60"
       sodipodi:ry="45"
       d="m 140,85 c 0,24.85281 -26.86292,45 -60,45 -33.137085,0 -60,-20.14719 -60,-45 0,-24.852814 26.862915,-45 60,-45 33.13708,0 60,20.147186 60,45 z"
       transform="matrix(1.25,0,0,1.390299,200.125,834.62331)" />
    <path
       inkscape:connector-curvature="0"
       style="fill:#ffb380;fill-opacity:1;stroke:none"
       d="m 300.125,890.24499 c -25.08511,0 -47.28243,10.27669 -60.89844,26.05469 4.37795,13.95021 17.37876,24.0625 32.77344,24.0625 18.98479,0 34.375,-15.39021 34.375,-34.375 0,-5.6584 -1.36705,-10.99567 -3.78906,-15.70313 -0.81725,-0.022 -1.63729,-0.0391 -2.46094,-0.0391 z"
       id="path2995" />
    <path
       inkscape:connector-curvature="0"
       style="fill:#ffb380;fill-opacity:1;stroke:none"
       d="m 300.125,890.24499 c -0.82365,0 -1.64369,0.0171 -2.46094,0.0391 -2.42201,4.70746 -3.78906,10.04473 -3.78906,15.70313 0,18.98479 15.39021,34.375 34.375,34.375 15.39467,0 28.39549,-10.11229 32.77344,-24.0625 -13.616,-15.778 -35.81333,-26.05469 -60.89844,-26.05469 z"
       id="path2997" />
    <path
       sodipodi:type="arc"
       style="fill:#803300;fill-opacity:1;stroke:none"
       id="path3006"
       sodipodi:cx="20"
       sodipodi:cy="80"
       sodipodi:rx="5"
       sodipodi:ry="10"
       d="m 25,80 c 0,5.522847 -2.238576,10 -5,10 -2.761424,0 -5,-4.477153 -5,-10 0,-5.522847 2.238576,-10 5,-10 2.761424,0 5,4.477153 5,10 z"
       transform="matrix(1.25,0,0,1.25,200.125,852.86218)" />
    <path
       sodipodi:type="arc"
       style="fill:#803300;fill-opacity:1;stroke:none"
       id="path3010"
       sodipodi:cx="140"
       sodipodi:cy="80"
       sodipodi:rx="5"
       sodipodi:ry="10"
       d="m 145,80 c 0,5.522847 -2.23858,10 -5,10 -2.76142,0 -5,-4.477153 -5,-10 0,-5.522847 2.23858,-10 5,-10 2.76142,0 5,4.477153 5,10 z"
       transform="matrix(1.25,0,0,1.25,200.125,852.86218)" />
    <path
       style="fill:#ffff00"
       d="m 100,882.36218 -20,12 40,0 z"
       id="path3863"
       inkscape:connector-curvature="0" />
    <path
       sodipodi:type="arc"
       style="fill:#aaffaa;fill-opacity:1;stroke:none;filter:url(#filter3851)"
       id="path3859"
       sodipodi:cx="380"
       sodipodi:cy="120"
       sodipodi:rx="60"
       sodipodi:ry="20"
       d="m 440,120 c 0,11.04569 -26.86292,20 -60,20 -33.13708,0 -60,-8.95431 -60,-20 0,-11.04569 26.86292,-20 60,-20 33.13708,0 60,8.95431 60,20 z"
       transform="matrix(0.2,0,0,0.2,52,858.76218)" />
    <path
       transform="matrix(0.2,0,0,0.2,-4,858.76218)"
       d="m 440,120 c 0,11.04569 -26.86292,20 -60,20 -33.13708,0 -60,-8.95431 -60,-20 0,-11.04569 26.86292,-20 60,-20 33.13708,0 60,8.95431 60,20 z"
       sodipodi:ry="20"
       sodipodi:rx="60"
       sodipodi:cy="120"
       sodipodi:cx="380"
       id="path3855"
       style="fill:#aaffaa;fill-opacity:1;stroke:none;filter:url(#filter3851)"
       sodipodi:type="arc" />
    <path
       style="fill:#333333;stroke:none"
       d="m 60,885.36218 c 0,0 0,-5 12,-5 12,0 12,5 12,5 l 0,15 -24,0 z"
       id="path3019"
       inkscape:connector-curvature="0"
       sodipodi:nodetypes="czcccc" />
    <path
       sodipodi:nodetypes="czcccc"
       inkscape:connector-curvature="0"
       id="path3023"
       d="m 116,885.36218 c 0,0 0,-5 12,-5 12,0 12,5 12,5 l 0,15 -24,0 z"
       style="fill:#333333;stroke:none" />
    <path
       style="fill:#00112b;stroke:none"
       d="m 84,1008.3622 c 8,8 8,24 0,32 16,-8 28,-20 32,-32 z"
       id="path3861"
       inkscape:connector-curvature="0"
       sodipodi:nodetypes="cccc" />
    <path
       transform="matrix(1.25,0,0,1.390299,0.125,834.62331)"
       d="m 140,85 c 0,24.85281 -26.86292,45 -60,45 -33.137085,0 -60,-20.14719 -60,-45 0,-24.852814 26.862915,-45 60,-45 33.13708,0 60,20.147186 60,45 z"
       sodipodi:ry="45"
       sodipodi:rx="60"
       sodipodi:cy="85"
       sodipodi:cx="80"
       id="path4505"
       style="fill:#0b1728;fill-opacity:1;stroke:none"
       sodipodi:type="arc" />
    <path
       style="fill:#e6e6e6;fill-opacity:1;stroke:none"
       d="m 100.125,837.875 c -1.210955,0 -2.428094,0.0464 -3.625,0.0937 -1.612679,3.68161 -2.5,7.7547 -2.5,12.0313 0,16.56854 13.43146,30 30,30 14.39814,0 26.40805,-10.1571 29.3125,-23.6875 C 139.72826,844.91559 120.91357,837.875 100.125,837.875 z"
       transform="translate(0,52.36218)"
       id="path4507"
       inkscape:connector-curvature="0" />
    <path
       style="fill:#e6e6e6;fill-opacity:1;stroke:none"
       d="m 100.125,837.875 c -21.763395,0 -41.36214,7.7424 -55.0625,20.09375 C 48.554218,870.6676 60.191859,880 74,880 c 16.568542,0 30,-13.43146 30,-30 0,-4.30149 -0.90079,-8.39529 -2.53125,-12.09375 -0.44699,-0.007 -0.89489,-0.0312 -1.34375,-0.0312 z"
       transform="translate(0,52.36218)"
       id="path4512"
       inkscape:connector-curvature="0" />
  </g>
</svg>
