<?xml version="1.0" encoding="UTF-8" standalone="no"?>
<!-- Created with Inkscape (http://www.inkscape.org/) -->

<svg
   xmlns:dc="http://purl.org/dc/elements/1.1/"
   xmlns:cc="http://creativecommons.org/ns#"
   xmlns:rdf="http://www.w3.org/1999/02/22-rdf-syntax-ns#"
   xmlns:svg="http://www.w3.org/2000/svg"
   xmlns="http://www.w3.org/2000/svg"
   xmlns:sodipodi="http://sodipodi.sourceforge.net/DTD/sodipodi-0.dtd"
   xmlns:inkscape="http://www.inkscape.org/namespaces/inkscape"
   width="1000"
   height="1000"
   id="svg2"
   version="1.1"
   inkscape:version="0.48.2 r9819"
   sodipodi:docname="field.svg">
  <defs
     id="defs4" />
  <sodipodi:namedview
     id="base"
     pagecolor="#ffffff"
     bordercolor="#666666"
     borderopacity="1.0"
     inkscape:pageopacity="0.0"
     inkscape:pageshadow="2"
     inkscape:zoom="0.64"
     inkscape:cx="245.80466"
     inkscape:cy="554.19979"
     inkscape:document-units="px"
     inkscape:current-layer="layer1"
     showgrid="true"
     inkscape:window-width="1440"
     inkscape:window-height="774"
     inkscape:window-x="0"
     inkscape:window-y="0"
     inkscape:window-maximized="1"
     inkscape:snap-nodes="true">
    <inkscape:grid
       type="xygrid"
       id="grid2985"
       empspacing="10"
       visible="true"
       enabled="true"
       snapvisiblegridlinesonly="true"
       originx="0px"
       dotted="false"
       color="#00aeff"
       opacity="0.1254902"
       spacingx="20px"
       spacingy="20px" />
  </sodipodi:namedview>
  <metadata
     id="metadata7">
    <rdf:RDF>
      <cc:Work
         rdf:about="">
        <dc:format>image/svg+xml</dc:format>
        <dc:type
           rdf:resource="http://purl.org/dc/dcmitype/StillImage" />
        <dc:title></dc:title>
      </cc:Work>
    </rdf:RDF>
  </metadata>
  <g
     inkscape:label="Layer 1"
     inkscape:groupmode="layer"
     id="layer1"
     transform="translate(0,-52.36218)">
    <rect
       style="fill:#cccccc;fill-opacity:1;stroke:none"
       id="rect2983"
       width="200"
       height="200"
       x="0"
       y="0"
       transform="translate(0,52.36218)" />
    <rect
       style="fill:#999999;fill-opacity:1;stroke:none"
       id="rect2993"
       width="10"
       height="10"
       x="15"
       y="67.362183" />
    <rect
       y="67.362183"
       x="15"
       height="10"
       width="10"
       id="rect3043"
       style="fill:#999999;fill-opacity:1;stroke:none" />
    <rect
       style="fill:#999999;fill-opacity:1;stroke:none"
       id="rect3045"
       width="10"
       height="10"
       x="55"
       y="67.362183" />
    <rect
       y="67.362183"
       x="95"
       height="10"
       width="10"
       id="rect3047"
       style="fill:#999999;fill-opacity:1;stroke:none" />
    <rect
       style="fill:#999999;fill-opacity:1;stroke:none"
       id="rect3049"
       width="10"
       height="10"
       x="135"
       y="67.362183" />
    <rect
       y="67.362183"
       x="175"
       height="10"
       width="10"
       id="rect3051"
       style="fill:#999999;fill-opacity:1;stroke:none" />
    <rect
       y="107.36218"
       x="15"
       height="10"
       width="10"
       id="rect3053"
       style="fill:#999999;fill-opacity:1;stroke:none" />
    <rect
       style="fill:#999999;fill-opacity:1;stroke:none"
       id="rect3055"
       width="10"
       height="10"
       x="15"
       y="107.36218" />
    <rect
       y="107.36218"
       x="55"
       height="10"
       width="10"
       id="rect3057"
       style="fill:#999999;fill-opacity:1;stroke:none" />
    <rect
       style="fill:#999999;fill-opacity:1;stroke:none"
       id="rect3059"
       width="10"
       height="10"
       x="95"
       y="107.36218" />
    <rect
       y="107.36218"
       x="135"
       height="10"
       width="10"
       id="rect3061"
       style="fill:#999999;fill-opacity:1;stroke:none" />
    <rect
       style="fill:#999999;fill-opacity:1;stroke:none"
       id="rect3063"
       width="10"
       height="10"
       x="175"
       y="107.36218" />
    <rect
       style="fill:#999999;fill-opacity:1;stroke:none"
       id="rect3065"
       width="10"
       height="10"
       x="15"
       y="147.36218" />
    <rect
       y="147.36218"
       x="15"
       height="10"
       width="10"
       id="rect3067"
       style="fill:#999999;fill-opacity:1;stroke:none" />
    <rect
       style="fill:#999999;fill-opacity:1;stroke:none"
       id="rect3069"
       width="10"
       height="10"
       x="55"
       y="147.36218" />
    <rect
       y="147.36218"
       x="95"
       height="10"
       width="10"
       id="rect3071"
       style="fill:#999999;fill-opacity:1;stroke:none" />
    <rect
       style="fill:#999999;fill-opacity:1;stroke:none"
       id="rect3073"
       width="10"
       height="10"
       x="135"
       y="147.36218" />
    <rect
       y="147.36218"
       x="175"
       height="10"
       width="10"
       id="rect3075"
       style="fill:#999999;fill-opacity:1;stroke:none" />
    <rect
       y="187.36218"
       x="15"
       height="10"
       width="10"
       id="rect3077"
       style="fill:#999999;fill-opacity:1;stroke:none" />
    <rect
       style="fill:#999999;fill-opacity:1;stroke:none"
       id="rect3079"
       width="10"
       height="10"
       x="15"
       y="187.36218" />
    <rect
       y="187.36218"
       x="55"
       height="10"
       width="10"
       id="rect3081"
       style="fill:#999999;fill-opacity:1;stroke:none" />
    <rect
       style="fill:#999999;fill-opacity:1;stroke:none"
       id="rect3083"
       width="10"
       height="10"
       x="95"
       y="187.36218" />
    <rect
       y="187.36218"
       x="135"
       height="10"
       width="10"
       id="rect3085"
       style="fill:#999999;fill-opacity:1;stroke:none" />
    <rect
       style="fill:#999999;fill-opacity:1;stroke:none"
       id="rect3087"
       width="10"
       height="10"
       x="175"
       y="187.36218" />
    <rect
       style="fill:#999999;fill-opacity:1;stroke:none"
       id="rect3089"
       width="10"
       height="10"
       x="15"
       y="227.36218" />
    <rect
       y="227.36218"
       x="15"
       height="10"
       width="10"
       id="rect3091"
       style="fill:#999999;fill-opacity:1;stroke:none" />
    <rect
       style="fill:#999999;fill-opacity:1;stroke:none"
       id="rect3093"
       width="10"
       height="10"
       x="55"
       y="227.36218" />
    <rect
       y="227.36218"
       x="95"
       height="10"
       width="10"
       id="rect3095"
       style="fill:#999999;fill-opacity:1;stroke:none" />
    <rect
       style="fill:#999999;fill-opacity:1;stroke:none"
       id="rect3097"
       width="10"
       height="10"
       x="135"
       y="227.36218" />
    <rect
       y="227.36218"
       x="175"
       height="10"
       width="10"
       id="rect3099"
       style="fill:#999999;fill-opacity:1;stroke:none" />
    <rect
       style="fill:#a05a2c;fill-opacity:1;stroke:#502d16;stroke-width:9.52380943;stroke-miterlimit:4;stroke-opacity:1;stroke-dasharray:none"
       id="rect3151"
       width="190.4762"
       height="190.4762"
       x="204.7619"
       y="57.124081" />
    <rect
       y="87.362183"
       x="235"
       height="130"
       width="130"
       id="rect3921"
       style="fill:#d38d5f;fill-opacity:1;stroke:#502d16;stroke-width:10;stroke-miterlimit:4;stroke-opacity:1;stroke-dasharray:none" />
    <path
       style="fill:#803300;stroke:#552200;stroke-width:10;stroke-linecap:square;stroke-linejoin:miter;stroke-opacity:1;stroke-miterlimit:4;stroke-dasharray:none"
       d="m 260,60 80,0"
       id="path3923"
       inkscape:connector-curvature="0"
       transform="translate(0,52.36218)" />
    <path
       inkscape:connector-curvature="0"
       id="path3927"
       d="m 260,152.36218 80,0"
       style="fill:#803300;stroke:#552200;stroke-width:10;stroke-linecap:square;stroke-linejoin:miter;stroke-miterlimit:4;stroke-opacity:1;stroke-dasharray:none" />
    <path
       style="fill:#803300;stroke:#552200;stroke-width:10;stroke-linecap:square;stroke-linejoin:miter;stroke-miterlimit:4;stroke-opacity:1;stroke-dasharray:none"
       d="m 260,192.36218 80,0"
       id="path3929"
       inkscape:connector-curvature="0" />
    <rect
       style="fill:#80ff80;fill-opacity:1;stroke:#552200;stroke-width:0;stroke-linecap:square;stroke-miterlimit:4;stroke-opacity:1;stroke-dasharray:none"
       id="rect3931"
       width="400"
       height="400"
       x="400"
       y="52.362179" />
    <path
       style="fill:#c6e9af;stroke:none"
       d="m 430,112.36218 -10,-20 12.5,12.5 -2.5,-12.5 10,10 10,-10 -2.5,12.5 12.5,-12.5 -10,20 z"
       id="path3940"
       inkscape:connector-curvature="0"
       sodipodi:nodetypes="cccccccccc" />
    <path
       sodipodi:nodetypes="cccccccccc"
       inkscape:connector-curvature="0"
       id="path3942"
       d="m 522.5,159.86218 -10,-20 12.5,12.5 -2.5,-12.5 10,10 10,-10 -2.5,12.5 12.5,-12.5 -10,20 z"
       style="fill:#c6e9af;stroke:none" />
    <path
       style="fill:#c6e9af;stroke:none"
       d="m 470,222.36218 -10,-20 12.5,12.5 -2.5,-12.5 10,10 10,-10 -2.5,12.5 12.5,-12.5 -10,20 z"
       id="path3944"
       inkscape:connector-curvature="0"
       sodipodi:nodetypes="cccccccccc" />
    <path
       style="fill:#c6e9af;stroke:none"
       d="m 630,162.36218 -10,-20 12.5,12.5 -2.5,-12.5 10,10 10,-10 -2.5,12.5 12.5,-12.5 -10,20 z"
       id="path3959"
       inkscape:connector-curvature="0"
       sodipodi:nodetypes="cccccccccc" />
    <path
       sodipodi:nodetypes="cccccccccc"
       inkscape:connector-curvature="0"
       id="path3963"
       d="m 742.5,239.86218 -10,-20 12.5,12.5 -2.5,-12.5 10,10 10,-10 -2.5,12.5 12.5,-12.5 -10,20 z"
       style="fill:#c6e9af;stroke:none" />
    <path
       style="fill:#c6e9af;stroke:none"
       d="m 740,92.36218 -10,-20 12.5,12.5 -2.5,-12.5 10,10 10,-10 -2.5,12.5 12.5,-12.5 -10,20 z"
       id="path3965"
       inkscape:connector-curvature="0"
       sodipodi:nodetypes="cccccccccc" />
    <path
       style="fill:#c6e9af;stroke:none"
       d="m 697.5,139.86218 -10,-20 12.5,12.5 -2.5,-12.5 10,10 10,-10 -2.5,12.5 12.5,-12.5 -10,20 z"
       id="path3967"
       inkscape:connector-curvature="0"
       sodipodi:nodetypes="cccccccccc" />
    <path
       sodipodi:nodetypes="cccccccccc"
       inkscape:connector-curvature="0"
       id="path3969"
       d="m 490,302.36218 -10,-20 12.5,12.5 -2.5,-12.5 10,10 10,-10 -2.5,12.5 12.5,-12.5 -10,20 z"
       style="fill:#c6e9af;stroke:none" />
    <path
       style="fill:#c6e9af;stroke:none"
       d="m 542.5,339.86218 -10,-20 12.5,12.5 -2.5,-12.5 10,10 10,-10 -2.5,12.5 12.5,-12.5 -10,20 z"
       id="path3971"
       inkscape:connector-curvature="0"
       sodipodi:nodetypes="cccccccccc" />
    <path
       sodipodi:nodetypes="cccccccccc"
       inkscape:connector-curvature="0"
       id="path3973"
       d="m 437.5,419.86218 -10,-20 12.5,12.5 -2.5,-12.5 10,10 10,-10 -2.5,12.5 12.5,-12.5 -10,20 z"
       style="fill:#c6e9af;stroke:none" />
    <path
       style="fill:#c6e9af;stroke:none"
       d="m 722.5,399.86218 -10,-20 12.5,12.5 -2.5,-12.5 10,10 10,-10 -2.5,12.5 12.5,-12.5 -10,20 z"
       id="path3975"
       inkscape:connector-curvature="0"
       sodipodi:nodetypes="cccccccccc" />
    <path
       sodipodi:nodetypes="cccccccccc"
       inkscape:connector-curvature="0"
       id="path3977"
       d="m 650,322.36218 -10,-20 12.5,12.5 -2.5,-12.5 10,10 10,-10 -2.5,12.5 12.5,-12.5 -10,20 z"
       style="fill:#c6e9af;stroke:none" />
    <path
       style="fill:#502d16;stroke:none"
       d="m 880,432.36218 c 0,0 0,10 20,10 20,0 20,-10 20,-10 l 0,-40 -40,0 z"
       id="path3981"
       inkscape:connector-curvature="0"
       sodipodi:nodetypes="cscccc" />
    <path
       transform="translate(30,-17.63782)"
       d="m 880,290 a 30,30 0 1 1 -60,0 30,30 0 1 1 60,0 z"
       sodipodi:ry="30"
       sodipodi:rx="30"
       sodipodi:cy="290"
       sodipodi:cx="850"
       id="path4007"
       style="fill:#71c837;fill-opacity:1;stroke:none"
       sodipodi:type="arc" />
    <path
       sodipodi:type="arc"
       style="fill:#5aa02c;fill-opacity:1;stroke:none"
       id="path4001"
       sodipodi:cx="850"
       sodipodi:cy="290"
       sodipodi:rx="30"
       sodipodi:ry="30"
       d="m 880,290 a 30,30 0 1 1 -60,0 30,30 0 1 1 60,0 z"
       transform="translate(10,12.36218)" />
    <path
       sodipodi:type="arc"
       style="fill:#71c837;fill-opacity:1;stroke:none"
       id="path4009"
       sodipodi:cx="850"
       sodipodi:cy="290"
       sodipodi:rx="30"
       sodipodi:ry="30"
       d="m 880,290 a 30,30 0 1 1 -60,0 30,30 0 1 1 60,0 z"
       transform="translate(70,-17.63782)" />
    <path
       transform="translate(50,12.36218)"
       d="m 880,290 a 30,30 0 1 1 -60,0 30,30 0 1 1 60,0 z"
       sodipodi:ry="30"
       sodipodi:rx="30"
       sodipodi:cy="290"
       sodipodi:cx="850"
       id="path4003"
       style="fill:#5aa02c;fill-opacity:1;stroke:none"
       sodipodi:type="arc" />
    <path
       transform="translate(-10,42.36218)"
       d="m 880,290 a 30,30 0 1 1 -60,0 30,30 0 1 1 60,0 z"
       sodipodi:ry="30"
       sodipodi:rx="30"
       sodipodi:cy="290"
       sodipodi:cx="850"
       id="path3993"
       style="fill:#447821;fill-opacity:1;stroke:none"
       sodipodi:type="arc" />
    <path
       sodipodi:type="arc"
       style="fill:#5aa02c;fill-opacity:1;stroke:none"
       id="path4005"
       sodipodi:cx="850"
       sodipodi:cy="290"
       sodipodi:rx="30"
       sodipodi:ry="30"
       d="m 880,290 a 30,30 0 1 1 -60,0 30,30 0 1 1 60,0 z"
       transform="translate(90,12.36218)" />
    <path
       sodipodi:type="arc"
       style="fill:#447821;fill-opacity:1;stroke:none"
       id="path3995"
       sodipodi:cx="850"
       sodipodi:cy="290"
       sodipodi:rx="30"
       sodipodi:ry="30"
       d="m 880,290 a 30,30 0 1 1 -60,0 30,30 0 1 1 60,0 z"
       transform="translate(110,42.36218)" />
    <path
       transform="translate(30,52.36218)"
       d="m 880,290 a 30,30 0 1 1 -60,0 30,30 0 1 1 60,0 z"
       sodipodi:ry="30"
       sodipodi:rx="30"
       sodipodi:cy="290"
       sodipodi:cx="850"
       id="path3997"
       style="fill:#447821;fill-opacity:1;stroke:none"
       sodipodi:type="arc" />
    <path
       sodipodi:type="arc"
       style="fill:#2d5016;fill-opacity:1;stroke:none"
       id="path3983"
       sodipodi:cx="850"
       sodipodi:cy="290"
       sodipodi:rx="30"
       sodipodi:ry="30"
       d="m 880,290 a 30,30 0 1 1 -60,0 30,30 0 1 1 60,0 z"
       transform="translate(-20,72.36218)" />
    <path
       sodipodi:type="arc"
       style="fill:#447821;fill-opacity:1;stroke:none"
       id="path3999"
       sodipodi:cx="850"
       sodipodi:cy="290"
       sodipodi:rx="30"
       sodipodi:ry="30"
       d="m 880,290 a 30,30 0 1 1 -60,0 30,30 0 1 1 60,0 z"
       transform="translate(70,52.36218)" />
    <path
       transform="translate(20,82.36218)"
       d="m 880,290 a 30,30 0 1 1 -60,0 30,30 0 1 1 60,0 z"
       sodipodi:ry="30"
       sodipodi:rx="30"
       sodipodi:cy="290"
       sodipodi:cx="850"
       id="path3985"
       style="fill:#2d5016;fill-opacity:1;stroke:none"
       sodipodi:type="arc" />
    <path
       sodipodi:type="arc"
       style="fill:#2d5016;fill-opacity:1;stroke:none"
       id="path3987"
       sodipodi:cx="850"
       sodipodi:cy="290"
       sodipodi:rx="30"
       sodipodi:ry="30"
       d="m 880,290 a 30,30 0 1 1 -60,0 30,30 0 1 1 60,0 z"
       transform="translate(80,82.36218)" />
    <path
       transform="translate(120,72.36218)"
       d="m 880,290 a 30,30 0 1 1 -60,0 30,30 0 1 1 60,0 z"
       sodipodi:ry="30"
       sodipodi:rx="30"
       sodipodi:cy="290"
       sodipodi:cx="850"
       id="path3989"
       style="fill:#2d5016;fill-opacity:1;stroke:none"
       sodipodi:type="arc" />
    <path
       transform="translate(50,92.36218)"
       d="m 880,290 a 30,30 0 1 1 -60,0 30,30 0 1 1 60,0 z"
       sodipodi:ry="30"
       sodipodi:rx="30"
       sodipodi:cy="290"
       sodipodi:cx="850"
       id="path3991"
       style="fill:#2d5016;fill-opacity:1;stroke:none"
       sodipodi:type="arc" />
    <path
       sodipodi:type="arc"
       style="fill:#71c837;fill-opacity:1;stroke:none"
       id="path4022"
       sodipodi:cx="850"
       sodipodi:cy="290"
       sodipodi:rx="30"
       sodipodi:ry="30"
       d="m 880,290 a 30,30 0 1 1 -60,0 30,30 0 1 1 60,0 z"
       transform="translate(50,-47.63782)" />
    <rect
       style="fill:#000000;fill-opacity:1;stroke:none"
       id="rect4024"
       width="200"
       height="200"
       x="0"
       y="200"
       transform="translate(0,52.36218)" />
    <path
       style="fill:#ffd42a;stroke:none;stroke-width:1px;stroke-linecap:butt;stroke-linejoin:miter;stroke-opacity:1"
       d="m 40,800 120,0 c 0,0 40,0 40,-40 0,-40 0,-240 0,-300 0,-60 -60,-60 -60,-60 l -80,0 c 0,0 -60,0 -60,60 0,60 0,260 0,300 0,40 40,40 40,40 z"
       id="path4034"
       inkscape:connector-curvature="0"
       transform="translate(0,52.36218)"
       sodipodi:nodetypes="cczzccczc" />
    <path
       style="fill:#333333;fill-opacity:1;stroke:none"
       d="m 40,612.36218 -20,-60 c 0,0 25.491661,-16.57505 40,-20 25.953306,-6.12674 54.04669,-6.12674 80,0 14.50834,3.42495 40,20 40,20 l -20,60 c 0,0 -39.72412,-10 -60,-10 -20.275875,0 -60,10 -60,10 z"
       id="path4036"
       inkscape:connector-curvature="0"
       sodipodi:nodetypes="ccssccsc" />
    <path
       style="fill:#333333;stroke:none"
       d="m 20,520 20,60 0,90 -20,-40 z"
       id="path4050"
       inkscape:connector-curvature="0"
       transform="translate(0,52.36218)"
       sodipodi:nodetypes="ccccc" />
    <path
       sodipodi:nodetypes="ccccc"
       inkscape:connector-curvature="0"
       id="path4054"
       d="m 180,572.36218 -20,60 0,90 20,-40 z"
       style="fill:#333333;stroke:none" />
    <path
       style="fill:#333333;stroke:none"
       d="m 44,802.36218 -4,-57.5 c 0,0 20,-22.5 60,-22.5 40,0 60,22.5 60,22.5 l -4,57.5 c 0,0 -16,10 -56,10 -40,0 -56,-10 -56,-10 z"
       id="path4056"
       inkscape:connector-curvature="0"
       sodipodi:nodetypes="ccsccsc" />
    <path
       style="fill:#cccccc;stroke:none;stroke-width:1px;stroke-linecap:butt;stroke-linejoin:miter;stroke-opacity:1"
       d="m 20,482.36218 c 0,0 0,-20 40,-20 l 0,20 z"
       id="path4058"
       inkscape:connector-curvature="0"
       sodipodi:nodetypes="cccc" />
    <path
       sodipodi:nodetypes="cccc"
       inkscape:connector-curvature="0"
       id="path4060"
       d="m 180,482.36218 c 0,0 0,-20 -40,-20 l 0,20 z"
       style="fill:#cccccc;stroke:none" />
    <path
       sodipodi:nodetypes="cccc"
       inkscape:connector-curvature="0"
       id="path4062"
       d="m 20,822.36218 c 0,0 0,20 40,20 l 0,-20 z"
       style="fill:#800000;stroke:none" />
    <path
       style="fill:#800000;stroke:none"
       d="m 180,822.36218 c 0,0 0,20 -40,20 l 0,-20 z"
       id="path4064"
       inkscape:connector-curvature="0"
       sodipodi:nodetypes="cccc" />
    <path
       style="fill:none;stroke:#4d4d4d;stroke-width:5;stroke-linecap:square;stroke-linejoin:miter;stroke-miterlimit:4;stroke-opacity:1;stroke-dasharray:none"
       d="m 50,700 c 0,0 30.125339,-10.06568 50,-10 19.17134,0.0634 50,10 50,10"
       id="path4066"
       inkscape:connector-curvature="0"
       transform="translate(0,52.36218)"
       sodipodi:nodetypes="csc" />
    <path
       sodipodi:nodetypes="csc"
       inkscape:connector-curvature="0"
       id="path4068"
       d="m 52,772.36218 c 0,0 28.125339,-10.06568 48,-10 19.17134,0.0634 48,10 48,10"
       style="fill:none;stroke:#4d4d4d;stroke-width:5;stroke-linecap:square;stroke-linejoin:miter;stroke-miterlimit:4;stroke-opacity:1;stroke-dasharray:none" />
    <path
       style="fill:none;stroke:#4d4d4d;stroke-width:5;stroke-linecap:square;stroke-linejoin:miter;stroke-miterlimit:4;stroke-opacity:1;stroke-dasharray:none"
       d="m 54,792.36218 c 0,0 26.125339,-10.06568 46,-10 19.17134,0.0634 46,10 46,10"
       id="path4070"
       inkscape:connector-curvature="0"
       sodipodi:nodetypes="csc" />
    <rect
       style="fill:#999999;fill-opacity:1;stroke:none;stroke-width:5;stroke-linecap:square;stroke-miterlimit:4;stroke-opacity:1;stroke-dasharray:none"
       id="rect4072"
       width="200"
       height="200"
       x="200"
       y="200"
       transform="translate(0,52.36218)" />
    <g
       id="g4098"
       transform="matrix(0,-1,1,0,-252.36218,652.36218)">
      <path
         transform="translate(0,52.36218)"
         style="fill:#ffd42a;stroke:none"
         d="m 40,800 120,0 c 0,0 40,0 40,-40 0,-40 0,-240 0,-300 0,-60 -60,-60 -60,-60 l -80,0 c 0,0 -60,0 -60,60 0,60 0,260 0,300 0,40 40,40 40,40 z"
         id="path4074"
         inkscape:connector-curvature="0"
         sodipodi:nodetypes="cczzccczc" />
      <path
         style="fill:#333333;fill-opacity:1;stroke:none"
         d="m 40,612.36218 -20,-60 c 0,0 25.491661,-16.57505 40,-20 25.953306,-6.12674 54.04669,-6.12674 80,0 14.50834,3.42495 40,20 40,20 l -20,60 c 0,0 -39.72412,-10 -60,-10 -20.275875,0 -60,10 -60,10 z"
         id="path4076"
         inkscape:connector-curvature="0"
         sodipodi:nodetypes="ccssccsc" />
      <path
         transform="translate(0,52.36218)"
         style="fill:#333333;stroke:none"
         d="m 20,520 20,60 0,90 -20,-40 z"
         id="path4078"
         inkscape:connector-curvature="0"
         sodipodi:nodetypes="ccccc" />
      <path
         sodipodi:nodetypes="ccccc"
         inkscape:connector-curvature="0"
         id="path4080"
         d="m 180,572.36218 -20,60 0,90 20,-40 z"
         style="fill:#333333;stroke:none" />
      <path
         style="fill:#333333;stroke:none"
         d="m 44,802.36218 -4,-57.5 c 0,0 20,-22.5 60,-22.5 40,0 60,22.5 60,22.5 l -4,57.5 c 0,0 -16,10 -56,10 -40,0 -56,-10 -56,-10 z"
         id="path4082"
         inkscape:connector-curvature="0"
         sodipodi:nodetypes="ccsccsc" />
      <path
         style="fill:#cccccc;stroke:none"
         d="m 20,482.36218 c 0,0 0,-20 40,-20 l 0,20 z"
         id="path4084"
         inkscape:connector-curvature="0"
         sodipodi:nodetypes="cccc" />
      <path
         sodipodi:nodetypes="cccc"
         inkscape:connector-curvature="0"
         id="path4086"
         d="m 180,482.36218 c 0,0 0,-20 -40,-20 l 0,20 z"
         style="fill:#cccccc;stroke:none" />
      <path
         sodipodi:nodetypes="cccc"
         inkscape:connector-curvature="0"
         id="path4088"
         d="m 20,822.36218 c 0,0 0,20 40,20 l 0,-20 z"
         style="fill:#800000;stroke:none" />
      <path
         style="fill:#800000;stroke:none"
         d="m 180,822.36218 c 0,0 0,20 -40,20 l 0,-20 z"
         id="path4090"
         inkscape:connector-curvature="0"
         sodipodi:nodetypes="cccc" />
      <path
         transform="translate(0,52.36218)"
         style="fill:none;stroke:#4d4d4d;stroke-width:5;stroke-linecap:square;stroke-linejoin:miter;stroke-miterlimit:4;stroke-opacity:1;stroke-dasharray:none"
         d="m 50,700 c 0,0 30.125339,-10.06568 50,-10 19.17134,0.0634 50,10 50,10"
         id="path4092"
         inkscape:connector-curvature="0"
         sodipodi:nodetypes="csc" />
      <path
         sodipodi:nodetypes="csc"
         inkscape:connector-curvature="0"
         id="path4094"
         d="m 52,772.36218 c 0,0 28.125339,-10.06568 48,-10 19.17134,0.0634 48,10 48,10"
         style="fill:none;stroke:#4d4d4d;stroke-width:5;stroke-linecap:square;stroke-linejoin:miter;stroke-miterlimit:4;stroke-opacity:1;stroke-dasharray:none" />
      <path
         style="fill:none;stroke:#4d4d4d;stroke-width:5;stroke-linecap:square;stroke-linejoin:miter;stroke-miterlimit:4;stroke-opacity:1;stroke-dasharray:none"
         d="m 54,792.36218 c 0,0 26.125339,-10.06568 46,-10 19.17134,0.0634 46,10 46,10"
         id="path4096"
         inkscape:connector-curvature="0"
         sodipodi:nodetypes="csc" />
    </g>
  </g>
</svg>
