<?xml version="1.0" encoding="UTF-8" standalone="no"?>
<!-- Created with Inkscape (http://www.inkscape.org/) -->

<svg
   xmlns:dc="http://purl.org/dc/elements/1.1/"
   xmlns:cc="http://creativecommons.org/ns#"
   xmlns:rdf="http://www.w3.org/1999/02/22-rdf-syntax-ns#"
   xmlns:svg="http://www.w3.org/2000/svg"
   xmlns="http://www.w3.org/2000/svg"
   xmlns:sodipodi="http://sodipodi.sourceforge.net/DTD/sodipodi-0.dtd"
   xmlns:inkscape="http://www.inkscape.org/namespaces/inkscape"
   width="200"
   height="400"
   id="svg2"
   version="1.1"
   inkscape:version="0.48.2 r9819"
   sodipodi:docname="laser_cannon.svg">
  <defs
     id="defs4">
    <filter
       inkscape:collect="always"
       id="filter4331"
       x="-0.20400001"
       width="1.408"
       y="-0.68000004"
       height="2.3600001">
      <feGaussianBlur
         inkscape:collect="always"
         stdDeviation="17.000001"
         id="feGaussianBlur4333" />
    </filter>
    <filter
       inkscape:collect="always"
       id="filter4335"
       x="-0.20400001"
       width="1.408"
       y="-0.67999936"
       height="2.3599987">
      <feGaussianBlur
         inkscape:collect="always"
         stdDeviation="17.000001"
         id="feGaussianBlur4337" />
    </filter>
  </defs>
  <sodipodi:namedview
     id="base"
     pagecolor="#ffffff"
     bordercolor="#666666"
     borderopacity="1.0"
     inkscape:pageopacity="0.0"
     inkscape:pageshadow="2"
     inkscape:zoom="0.90509668"
     inkscape:cx="238.34732"
     inkscape:cy="257.62571"
     inkscape:document-units="px"
     inkscape:current-layer="layer1"
     showgrid="true"
     inkscape:window-width="1440"
     inkscape:window-height="774"
     inkscape:window-x="0"
     inkscape:window-y="0"
     inkscape:window-maximized="1">
    <inkscape:grid
       type="xygrid"
       id="grid2985"
       empspacing="10"
       visible="true"
       enabled="true"
       snapvisiblegridlinesonly="true"
       originx="0px"
       dotted="false"
       color="#00aeff"
       opacity="0.1254902"
       spacingx="20px"
       spacingy="20px" />
  </sodipodi:namedview>
  <metadata
     id="metadata7">
    <rdf:RDF>
      <cc:Work
         rdf:about="">
        <dc:format>image/svg+xml</dc:format>
        <dc:type
           rdf:resource="http://purl.org/dc/dcmitype/StillImage" />
        <dc:title />
      </cc:Work>
    </rdf:RDF>
  </metadata>
  <g
     inkscape:label="Layer 1"
     inkscape:groupmode="layer"
     id="layer1"
     transform="translate(0,-652.36218)">
    <path
       style="fill:#4d4d4d;stroke:none;stroke-width:1px;stroke-linecap:butt;stroke-linejoin:miter;stroke-opacity:1"
       d="M 80,220 100,80 120,220 z"
       id="path4339"
       inkscape:connector-curvature="0"
       transform="translate(0,652.36218)" />
    <path
       style="fill:#4d4d4d;stroke:none"
       d="M 0,180 60,0 40,180 40,380 c 0,0 0,20 -20,20 C 0,400 0,380 0,380 z"
       id="path3775"
       inkscape:connector-curvature="0"
       transform="translate(0,652.36218)"
       sodipodi:nodetypes="cccczcc" />
    <path
       sodipodi:nodetypes="cccczcc"
       inkscape:connector-curvature="0"
       id="path3777"
       d="m 160,832.36218 -20,-180 60,180 0,200.00002 c 0,0 0,20 -20,20 -20,0 -20,-20 -20,-20 z"
       style="fill:#4d4d4d;stroke:none" />
    <path
       style="fill:#4d4d4d;stroke:none"
       d="m 20,360 c 0,0 0,20 80,20 80,0 80,-20 80,-20 l 0,-180 c 0,0 0,20 -80,20 -80,0 -80,-20 -80,-20 z"
       id="path3779"
       inkscape:connector-curvature="0"
       transform="translate(0,652.36218)"
       sodipodi:nodetypes="czcczcc" />
    <path
       style="fill:#ff5555;stroke:none"
       d="m 0,872.36218 c 0,0 20,20 100,20 80,0 100,-20 100,-20 l 0,40 c 0,0 -20,20 -100,20 -80,0 -100,-20 -100,-20 z"
       id="path3781"
       inkscape:connector-curvature="0"
       sodipodi:nodetypes="czcczcc" />
    <path
       sodipodi:nodetypes="czcczcc"
       inkscape:connector-curvature="0"
       id="path4319"
       d="m 0,872.36218 c 0,0 20,20 100,20 80,0 100,-20 100,-20 l 0,40 c 0,0 -20,20 -100,20 -80,0 -100,-20 -100,-20 z"
       style="fill:#ff5555;stroke:none;filter:url(#filter4331)" />
    <path
       sodipodi:nodetypes="czcczcc"
       inkscape:connector-curvature="0"
       id="path3783"
       d="m 0,952.36214 c 0,0 20,20 100,20 80,0 100,-20 100,-20 l 0,40 c 0,0 -20,20.00006 -100,20.00006 -80,0 -100,-20.00006 -100,-20.00006 z"
       style="fill:#ff5555;stroke:none" />
    <path
       style="fill:#ff5555;stroke:none;filter:url(#filter4335)"
       d="m 0,952.36214 c 0,0 20,20 100,20 80,0 100,-20 100,-20 l 0,40 c 0,0 -20,20.00006 -100,20.00006 -80,0 -100,-20.00006 -100,-20.00006 z"
       id="path4321"
       inkscape:connector-curvature="0"
       sodipodi:nodetypes="czcczcc" />
  </g>
</svg>
