<?xml version="1.0" encoding="UTF-8" standalone="no"?>
<!-- Created with Inkscape (http://www.inkscape.org/) -->

<svg
   xmlns:dc="http://purl.org/dc/elements/1.1/"
   xmlns:cc="http://creativecommons.org/ns#"
   xmlns:rdf="http://www.w3.org/1999/02/22-rdf-syntax-ns#"
   xmlns:svg="http://www.w3.org/2000/svg"
   xmlns="http://www.w3.org/2000/svg"
   xmlns:sodipodi="http://sodipodi.sourceforge.net/DTD/sodipodi-0.dtd"
   xmlns:inkscape="http://www.inkscape.org/namespaces/inkscape"
   width="160"
   height="160"
   id="svg2"
   version="1.1"
   inkscape:version="0.48.2 r9819"
   sodipodi:docname="monkey_base.svg">
  <defs
     id="defs4" />
  <sodipodi:namedview
     id="base"
     pagecolor="#ffffff"
     bordercolor="#666666"
     borderopacity="1.0"
     inkscape:pageopacity="0.0"
     inkscape:pageshadow="2"
     inkscape:zoom="5.6"
     inkscape:cx="62.744762"
     inkscape:cy="79.572395"
     inkscape:document-units="px"
     inkscape:current-layer="layer1"
     showgrid="true"
     inkscape:window-width="1440"
     inkscape:window-height="774"
     inkscape:window-x="0"
     inkscape:window-y="0"
     inkscape:window-maximized="1">
    <inkscape:grid
       type="xygrid"
       id="grid2985"
       empspacing="5"
       visible="true"
       enabled="true"
       snapvisiblegridlinesonly="true" />
  </sodipodi:namedview>
  <metadata
     id="metadata7">
    <rdf:RDF>
      <cc:Work
         rdf:about="">
        <dc:format>image/svg+xml</dc:format>
        <dc:type
           rdf:resource="http://purl.org/dc/dcmitype/StillImage" />
        <dc:title></dc:title>
      </cc:Work>
    </rdf:RDF>
  </metadata>
  <g
     inkscape:label="Layer 1"
     inkscape:groupmode="layer"
     id="layer1"
     transform="translate(0,-892.36218)">
    <path
       sodipodi:type="arc"
       style="fill:#803300;fill-opacity:1;stroke:none"
       id="path2987"
       sodipodi:cx="80"
       sodipodi:cy="85"
       sodipodi:rx="60"
       sodipodi:ry="45"
       d="m 140,85 c 0,24.85281 -26.86292,45 -60,45 -33.137085,0 -60,-20.14719 -60,-45 0,-24.852814 26.862915,-45 60,-45 33.13708,0 60,20.147186 60,45 z"
       transform="matrix(1,0,0,1.1122392,0,877.77108)" />
    <path
       style="fill:#ffb380;fill-opacity:1;stroke:none"
       d="M 80 29.90625 C 59.931909 29.90625 42.174054 38.127602 31.28125 50.75 C 34.783607 61.910168 45.18426 70 57.5 70 C 72.687831 70 85 57.687831 85 42.5 C 85 37.97328 83.906363 33.703463 81.96875 29.9375 C 81.314955 29.919914 80.658919 29.90625 80 29.90625 z "
       transform="translate(0,892.36218)"
       id="path2995" />
    <path
       style="fill:#ffb380;fill-opacity:1;stroke:none"
       d="M 80 29.90625 C 79.341081 29.90625 78.685045 29.919914 78.03125 29.9375 C 76.093637 33.703463 75 37.97328 75 42.5 C 75 57.687831 87.312169 70 102.5 70 C 114.81574 70 125.21639 61.910168 128.71875 50.75 C 117.82595 38.127602 100.06809 29.90625 80 29.90625 z "
       transform="translate(0,892.36218)"
       id="path2997" />
    <path
       sodipodi:type="arc"
       style="fill:#803300;fill-opacity:1;stroke:none"
       id="path3006"
       sodipodi:cx="20"
       sodipodi:cy="80"
       sodipodi:rx="5"
       sodipodi:ry="10"
       d="m 25,80 c 0,5.522847 -2.238576,10 -5,10 -2.761424,0 -5,-4.477153 -5,-10 0,-5.522847 2.238576,-10 5,-10 2.761424,0 5,4.477153 5,10 z"
       transform="translate(0,892.36218)" />
    <path
       sodipodi:type="arc"
       style="fill:#803300;fill-opacity:1;stroke:none"
       id="path3010"
       sodipodi:cx="140"
       sodipodi:cy="80"
       sodipodi:rx="5"
       sodipodi:ry="10"
       d="m 145,80 c 0,5.522847 -2.23858,10 -5,10 -2.76142,0 -5,-4.477153 -5,-10 0,-5.522847 2.23858,-10 5,-10 2.76142,0 5,4.477153 5,10 z"
       transform="translate(0,892.36218)" />
  </g>
</svg>
