<?xml version="1.0" encoding="UTF-8" standalone="no"?>
<!-- Created with Inkscape (http://www.inkscape.org/) -->

<svg
   xmlns:dc="http://purl.org/dc/elements/1.1/"
   xmlns:cc="http://creativecommons.org/ns#"
   xmlns:rdf="http://www.w3.org/1999/02/22-rdf-syntax-ns#"
   xmlns:svg="http://www.w3.org/2000/svg"
   xmlns="http://www.w3.org/2000/svg"
   xmlns:sodipodi="http://sodipodi.sourceforge.net/DTD/sodipodi-0.dtd"
   xmlns:inkscape="http://www.inkscape.org/namespaces/inkscape"
   width="1000"
   height="1000"
   id="svg2"
   version="1.1"
   inkscape:version="0.48.2 r9819"
   sodipodi:docname="New document 1">
  <defs
     id="defs4">
    <filter
       inkscape:collect="always"
       id="filter3851"
       x="-0.16"
       width="1.32"
       y="-0.48"
       height="1.96">
      <feGaussianBlur
         inkscape:collect="always"
         stdDeviation="8"
         id="feGaussianBlur3853" />
    </filter>
  </defs>
  <sodipodi:namedview
     id="base"
     pagecolor="#ffffff"
     bordercolor="#666666"
     borderopacity="1.0"
     inkscape:pageopacity="0.0"
     inkscape:pageshadow="2"
     inkscape:zoom="0.32"
     inkscape:cx="-761.82572"
     inkscape:cy="412.22418"
     inkscape:document-units="px"
     inkscape:current-layer="layer1"
     showgrid="true"
     inkscape:window-width="1440"
     inkscape:window-height="774"
     inkscape:window-x="0"
     inkscape:window-y="0"
     inkscape:window-maximized="1">
    <inkscape:grid
       type="xygrid"
       id="grid2985"
       empspacing="10"
       visible="true"
       enabled="true"
       snapvisiblegridlinesonly="true"
       originx="0px"
       dotted="false"
       color="#00aeff"
       opacity="0.1254902"
       spacingx="20px"
       spacingy="20px" />
  </sodipodi:namedview>
  <metadata
     id="metadata7">
    <rdf:RDF>
      <cc:Work
         rdf:about="">
        <dc:format>image/svg+xml</dc:format>
        <dc:type
           rdf:resource="http://purl.org/dc/dcmitype/StillImage" />
        <dc:title></dc:title>
      </cc:Work>
    </rdf:RDF>
  </metadata>
  <g
     inkscape:label="Layer 1"
     inkscape:groupmode="layer"
     id="layer1"
     transform="translate(0,-52.36218)">
    <path
       style="fill:#ffff00"
       d="m 500,162.36218 -100,60 200,0 z"
       id="path3863"
       inkscape:connector-curvature="0" />
    <path
       sodipodi:type="arc"
       style="fill:#aaffaa;fill-opacity:1;stroke:none;filter:url(#filter3851)"
       id="path3859"
       sodipodi:cx="380"
       sodipodi:cy="120"
       sodipodi:rx="60"
       sodipodi:ry="20"
       d="m 440,120 a 60,20 0 1 1 -120,0 60,20 0 1 1 120,0 z"
       transform="translate(260,44.36218)" />
    <path
       transform="translate(-20,44.36218)"
       d="m 440,120 a 60,20 0 1 1 -120,0 60,20 0 1 1 120,0 z"
       sodipodi:ry="20"
       sodipodi:rx="60"
       sodipodi:cy="120"
       sodipodi:cx="380"
       id="path3855"
       style="fill:#aaffaa;fill-opacity:1;stroke:none;filter:url(#filter3851)"
       sodipodi:type="arc" />
    <path
       style="fill:#333333;stroke:none"
       d="m 300,177.36218 c 0,0 0,-25 60,-25 60,0 60,25 60,25 l 0,75 -120,0 z"
       id="path3019"
       inkscape:connector-curvature="0"
       sodipodi:nodetypes="czcccc" />
    <path
       sodipodi:nodetypes="czcccc"
       inkscape:connector-curvature="0"
       id="path3023"
       d="m 580,177.36218 c 0,0 0,-25 60,-25 60,0 60,25 60,25 l 0,75 -120,0 z"
       style="fill:#333333;stroke:none" />
    <path
       sodipodi:type="arc"
       style="fill:#0b1728;fill-opacity:1;stroke:none"
       id="path3043"
       sodipodi:cx="500"
       sodipodi:cy="500"
       sodipodi:rx="400"
       sodipodi:ry="360"
       d="m 900,500 a 400,360 0 1 1 -800,0 400,360 0 1 1 800,0 z"
       transform="translate(0,52.36218)" />
    <path
       style="fill:#ffffff;fill-opacity:1;stroke:none"
       d="M 500 140 C 486.58709 140 473.3238 140.58933 460.25 141.75 C 460.09197 144.48215 460 147.23088 460 150 C 460 232.84271 531.63444 300 620 300 C 679.1242 300 730.77025 269.93066 758.46875 225.21875 C 688.7566 172.04969 598.53469 140 500 140 z "
       transform="translate(0,52.36218)"
       id="path3047" />
    <path
       style="fill:#ffffff;fill-opacity:1;stroke:none"
       d="m 500,192.36218 c -98.53469,0 -188.7566,32.04969 -258.46875,85.21875 27.6985,44.71191 79.34455,74.78125 138.46875,74.78125 88.36556,0 160,-67.15729 160,-150 0,-2.76912 -0.092,-5.51785 -0.25,-8.25 -13.0738,-1.16067 -26.33709,-1.75 -39.75,-1.75 z"
       id="path3049"
       inkscape:connector-curvature="0" />
    <path
       style="fill:#00112b;stroke:none;stroke-width:1px;stroke-linecap:butt;stroke-linejoin:miter;stroke-opacity:1"
       d="m 420,872.36218 c 40,40 40,120 0,160.00002 80,-40.00002 140,-100.00002 160,-160.00002 z"
       id="path3861"
       inkscape:connector-curvature="0"
       sodipodi:nodetypes="cccc" />
  </g>
</svg>
