<?xml version="1.0" encoding="UTF-8" standalone="no"?>
<!-- Created with Inkscape (http://www.inkscape.org/) -->

<svg
   xmlns:dc="http://purl.org/dc/elements/1.1/"
   xmlns:cc="http://creativecommons.org/ns#"
   xmlns:rdf="http://www.w3.org/1999/02/22-rdf-syntax-ns#"
   xmlns:svg="http://www.w3.org/2000/svg"
   xmlns="http://www.w3.org/2000/svg"
   xmlns:sodipodi="http://sodipodi.sourceforge.net/DTD/sodipodi-0.dtd"
   xmlns:inkscape="http://www.inkscape.org/namespaces/inkscape"
   width="600"
   height="600"
   id="svg2983"
   version="1.1"
   inkscape:version="0.48.2 r9819"
   sodipodi:docname="saw_blade.svg">
  <defs
     id="defs2985" />
  <sodipodi:namedview
     id="base"
     pagecolor="#ffffff"
     bordercolor="#666666"
     borderopacity="1.0"
     inkscape:pageopacity="0.0"
     inkscape:pageshadow="2"
     inkscape:zoom="0.45254834"
     inkscape:cx="145.1755"
     inkscape:cy="327.98548"
     inkscape:current-layer="layer1"
     inkscape:document-units="px"
     showgrid="true"
     inkscape:window-width="1440"
     inkscape:window-height="774"
     inkscape:window-x="0"
     inkscape:window-y="0"
     inkscape:window-maximized="1">
    <inkscape:grid
       type="xygrid"
       id="grid2991"
       empspacing="10"
       visible="true"
       enabled="true"
       snapvisiblegridlinesonly="true"
       spacingx="10px"
       spacingy="10px" />
  </sodipodi:namedview>
  <metadata
     id="metadata2988">
    <rdf:RDF>
      <cc:Work
         rdf:about="">
        <dc:format>image/svg+xml</dc:format>
        <dc:type
           rdf:resource="http://purl.org/dc/dcmitype/StillImage" />
        <dc:title />
      </cc:Work>
    </rdf:RDF>
  </metadata>
  <g
     id="layer1"
     inkscape:label="Layer 1"
     inkscape:groupmode="layer">
    <path
       style="fill:#333333;stroke:none"
       d="m 230,0 48.625,81.03125 c -9.54556,0.920179 -18.91305,2.430531 -28.0625,4.53125 L 89.375,75.1875 l 82.65625,45.875 c -7.669,5.49461 -14.9857,11.463 -21.875,17.875 L 5.1875,210.625 99.65625,209.03125 c -3.89965,8.57406 -7.2737,17.44226 -10.0625,26.5625 L 0,370 81.03125,321.375 c 0.92018,9.54556 2.43053,18.91305 4.53125,28.0625 l -10.375,161.1875 45.875,-82.65625 c 5.49461,7.669 11.463,14.9857 17.875,21.875 l 71.6875,144.96875 -1.59375,-94.46875 c 8.57406,3.89965 17.44226,7.2737 26.5625,10.0625 L 370,600 321.375,518.96875 c 9.54556,-0.92018 18.91305,-2.43053 28.0625,-4.53125 l 161.1875,10.375 -82.65625,-45.875 c 7.669,-5.49461 14.9857,-11.463 21.875,-17.875 l 144.96875,-71.6875 -94.46875,1.59375 c 3.89965,-8.57406 7.2737,-17.44226 10.0625,-26.5625 L 600,230 518.96875,278.625 c -0.92018,-9.54556 -2.43053,-18.91305 -4.53125,-28.0625 l 10.375,-161.1875 -45.875,82.65625 c -5.49461,-7.669 -11.463,-14.9857 -17.875,-21.875 L 389.375,5.1875 l 1.59375,94.46875 c -8.57406,-3.899653 -17.44226,-7.273704 -26.5625,-10.0625 L 230,0 z"
       id="path3004"
       inkscape:connector-curvature="0" />
    <path
       transform="matrix(0.88,0,0,0.88,18.4,18.4)"
       style="fill:#333333;stroke:none"
       d="M 570,320 C 570,458.07119 458.07119,570 320,570 181.92881,570 70,458.07119 70,320 70,181.92881 181.92881,70 320,70 458.07119,70 570,181.92881 570,320 z"
       id="path3929" />
    <path
       transform="matrix(0.704,0,0,0.704,74.72,74.72)"
       style="fill:#b3b3b3;stroke:none"
       d="M 570,320 C 570,458.07119 458.07119,570 320,570 181.92881,570 70,458.07119 70,320 70,181.92881 181.92881,70 320,70 458.07119,70 570,181.92881 570,320 z"
       id="path3931" />
    <path
       style="fill:#333333;fill-opacity:1;stroke:none"
       d="m 330,300 c 0,16.56854 -13.43146,30 -30,30 -16.56854,0 -30,-13.43146 -30,-30 0,-16.56854 13.43146,-30 30,-30 16.56854,0 30,13.43146 30,30 z"
       id="path3933" />
    <path
       style="fill:none;stroke:#333333;stroke-width:10;stroke-miterlimit:4;stroke-opacity:1"
       d="m 350,300 c 0,27.61424 -22.38576,50 -50,50 -27.61424,0 -50,-22.38576 -50,-50 0,-27.61424 22.38576,-50 50,-50 27.61424,0 50,22.38576 50,50 z"
       id="path3935" />
  </g>
</svg>
