<?xml version="1.0" encoding="UTF-8" standalone="no"?>
<!-- Created with Inkscape (http://www.inkscape.org/) -->

<svg
   xmlns:dc="http://purl.org/dc/elements/1.1/"
   xmlns:cc="http://creativecommons.org/ns#"
   xmlns:rdf="http://www.w3.org/1999/02/22-rdf-syntax-ns#"
   xmlns:svg="http://www.w3.org/2000/svg"
   xmlns="http://www.w3.org/2000/svg"
   xmlns:sodipodi="http://sodipodi.sourceforge.net/DTD/sodipodi-0.dtd"
   xmlns:inkscape="http://www.inkscape.org/namespaces/inkscape"
   width="1480"
   height="620"
   id="svg2"
   version="1.1"
   inkscape:version="0.48.2 r9819"
   sodipodi:docname="penguin.svg">
  <defs
     id="defs4" />
  <sodipodi:namedview
     id="base"
     pagecolor="#ffffff"
     bordercolor="#666666"
     borderopacity="1.0"
     inkscape:pageopacity="0.0"
     inkscape:pageshadow="2"
     inkscape:zoom="0.32"
     inkscape:cx="1308.7719"
     inkscape:cy="363.08604"
     inkscape:document-units="px"
     inkscape:current-layer="layer1"
     showgrid="true"
     inkscape:window-width="1440"
     inkscape:window-height="774"
     inkscape:window-x="0"
     inkscape:window-y="0"
     inkscape:window-maximized="1"
     fit-margin-top="0"
     fit-margin-left="0"
     fit-margin-right="0"
     fit-margin-bottom="0">
    <inkscape:grid
       type="xygrid"
       id="grid2985"
       empspacing="10"
       visible="true"
       enabled="true"
       snapvisiblegridlinesonly="true"
       originx="9.6px"
       dotted="false"
       color="#00aeff"
       opacity="0.1254902"
       spacingx="20px"
       spacingy="20px" />
  </sodipodi:namedview>
  <metadata
     id="metadata7">
    <rdf:RDF>
      <cc:Work
         rdf:about="">
        <dc:format>image/svg+xml</dc:format>
        <dc:type
           rdf:resource="http://purl.org/dc/dcmitype/StillImage" />
        <dc:title></dc:title>
      </cc:Work>
    </rdf:RDF>
  </metadata>
  <g
     inkscape:label="Layer 1"
     inkscape:groupmode="layer"
     id="layer1"
     transform="translate(-2.8968665e-8,-432.36218)">
    <path
       style="fill:#00112b;fill-opacity:0.99607843;stroke:none"
       d="m 109.55091,712.35872 c 0,-100 80,-220 260,-220 180,0 260,120 260,220 0,53.74838 -20,160 -20,160 0,0 40,120 40,219.99998 l -559.999997,0 c 0,-99.99998 39.999997,-219.99998 39.999997,-219.99998 0,0 -20,-106.25162 -20,-160 z"
       id="path3004"
       inkscape:connector-curvature="0"
       sodipodi:nodetypes="sssccccs" />
    <path
       sodipodi:type="arc"
       style="fill:#ffffff;fill-opacity:1;stroke:none"
       id="path3006"
       sodipodi:cx="420"
       sodipodi:cy="380"
       sodipodi:rx="100"
       sodipodi:ry="100"
       d="m 520,380 a 100,100 0 1 1 -200,0 100,100 0 1 1 200,0 z"
       transform="translate(-130.44909,352.35871)" />
    <path
       transform="translate(29.550913,352.35871)"
       d="m 520,380 a 100,100 0 1 1 -200,0 100,100 0 1 1 200,0 z"
       sodipodi:ry="100"
       sodipodi:rx="100"
       sodipodi:cy="380"
       sodipodi:cx="420"
       id="path3008"
       style="fill:#ffffff;fill-opacity:1;stroke:none"
       sodipodi:type="arc" />
    <path
       sodipodi:nodetypes="sccsccccs"
       inkscape:connector-curvature="0"
       id="path3010"
       d="m 187.55091,766.35872 c 2,-34 2,-34 2,-34 l 360,0 c 0,0 0,0 2,34 2.20935,37.55895 -22,106 -22,106 0,0 55.57847,110.13978 60,179.99998 l -440,0 c 4.42153,-69.8602 60,-179.99998 60,-179.99998 0,0 -24.20935,-68.44105 -22,-106 z"
       style="fill:#ffffff;stroke:none" />
    <path
       style="fill:#aa8800"
       d="m 289.55091,832.35872 160,0 -80,20 z"
       id="path3020"
       inkscape:connector-curvature="0" />
    <path
       style="fill:#ffff00;stroke:none"
       d="m 289.55091,832.35872 c 0,0 50.18576,-40 80,-40 29.81424,0 80,40 80,40 l -80,10 z"
       id="path3016"
       inkscape:connector-curvature="0"
       sodipodi:nodetypes="czccc" />
    <path
       style="fill:#00112b;stroke:none"
       d="m 377.55091,532.35872 c 20,-80 60,-100 60,-100 0,0 -28,40 -8,60 0,0 28,-40 48,-40 0,0 -28,20 -20,100 8,80 -100,60 -80,-20 z"
       id="path3045"
       inkscape:connector-curvature="0"
       sodipodi:nodetypes="zccczz" />
    <path
       style="fill:#00112b;stroke:none"
       d="m 129.55091,892.35872 c -20,-20 -107.733977,119.44758 -119.9999969,139.99998 -12.26602,20.5524 0,60 39.9999999,60 40,0 41.02509,-29.8917 59.999997,-60 18.97491,-30.1083 53.33333,-106.66665 20,-139.99998 z"
       id="path3057"
       inkscape:connector-curvature="0"
       sodipodi:nodetypes="szzzs" />
    <path
       sodipodi:nodetypes="szzzs"
       inkscape:connector-curvature="0"
       id="path3059"
       d="m 608.96683,892.35872 c 20,-20 107.73398,119.44758 120,139.99998 12.26602,20.5524 0,60 -40,60 -40,0 -41.02509,-29.8917 -60,-60 -18.97491,-30.1083 -53.33333,-106.66665 -20,-139.99998 z"
       style="fill:#00112b;stroke:none" />
    <path
       sodipodi:type="arc"
       style="fill:#000000;fill-opacity:1;stroke:none"
       id="path3794"
       sodipodi:cx="420"
       sodipodi:cy="380"
       sodipodi:rx="20"
       sodipodi:ry="20"
       d="m 440,380 a 20,20 0 1 1 -40,0 20,20 0 1 1 40,0 z"
       transform="translate(-130.44909,382.35871)" />
    <path
       transform="translate(29.550913,382.35871)"
       d="m 440,380 a 20,20 0 1 1 -40,0 20,20 0 1 1 40,0 z"
       sodipodi:ry="20"
       sodipodi:rx="20"
       sodipodi:cy="380"
       sodipodi:cx="420"
       id="path3796"
       style="fill:#000000;fill-opacity:1;stroke:none"
       sodipodi:type="arc" />
    <path
       transform="matrix(0.4,0,0,0.4,121.55091,610.35872)"
       d="m 440,380 a 20,20 0 1 1 -40,0 20,20 0 1 1 40,0 z"
       sodipodi:ry="20"
       sodipodi:rx="20"
       sodipodi:cy="380"
       sodipodi:cx="420"
       id="path3798"
       style="fill:#ffffff;fill-opacity:1;stroke:none"
       sodipodi:type="arc" />
    <path
       sodipodi:type="arc"
       style="fill:#ffffff;fill-opacity:1;stroke:none"
       id="path3802"
       sodipodi:cx="420"
       sodipodi:cy="380"
       sodipodi:rx="20"
       sodipodi:ry="20"
       d="m 440,380 a 20,20 0 1 1 -40,0 20,20 0 1 1 40,0 z"
       transform="matrix(0.4,0,0,0.4,281.55091,610.35872)" />
    <path
       sodipodi:nodetypes="sssccccs"
       inkscape:connector-curvature="0"
       id="path3133"
       d="m 849.55091,712.35872 c 0,-100 80,-220 259.99999,-220 180,0 260,120 260,220 0,53.74838 -20,160 -20,160 0,0 40,120 40,219.99998 l -559.99999,0 c 0,-99.99998 40,-219.99998 40,-219.99998 0,0 -20,-106.25162 -20,-160 z"
       style="fill:#00112b;fill-opacity:0.99607843;stroke:none" />
    <path
       transform="translate(609.55091,352.35871)"
       d="m 520,380 a 100,100 0 1 1 -200,0 100,100 0 1 1 200,0 z"
       sodipodi:ry="100"
       sodipodi:rx="100"
       sodipodi:cy="380"
       sodipodi:cx="420"
       id="path3135"
       style="fill:#ffffff;fill-opacity:1;stroke:none"
       sodipodi:type="arc" />
    <path
       sodipodi:type="arc"
       style="fill:#ffffff;fill-opacity:1;stroke:none"
       id="path3137"
       sodipodi:cx="420"
       sodipodi:cy="380"
       sodipodi:rx="100"
       sodipodi:ry="100"
       d="m 520,380 a 100,100 0 1 1 -200,0 100,100 0 1 1 200,0 z"
       transform="translate(769.55091,352.35871)" />
    <path
       style="fill:#ffffff;stroke:none"
       d="m 927.55091,766.35872 c 2,-34 2,-34 2,-34 l 359.99999,0 c 0,0 0,0 2,34 2.2094,37.55895 -22,106 -22,106 0,0 55.5785,110.13978 60,179.99998 l -439.99999,0 c 4.42153,-69.8602 60,-179.99998 60,-179.99998 0,0 -24.20935,-68.44105 -22,-106 z"
       id="path3139"
       inkscape:connector-curvature="0"
       sodipodi:nodetypes="sccsccccs" />
    <path
       inkscape:connector-curvature="0"
       id="path3141"
       d="m 1029.5509,832.35872 160,0 -80,20 z"
       style="fill:#aa8800" />
    <path
       sodipodi:nodetypes="czccc"
       inkscape:connector-curvature="0"
       id="path3143"
       d="m 1029.5509,832.35872 c 0,0 50.1858,-40 80,-40 29.8142,0 80,40 80,40 l -80,10 z"
       style="fill:#ffff00;stroke:none" />
    <path
       sodipodi:nodetypes="cccccc"
       inkscape:connector-curvature="0"
       id="path3145"
       d="m 1129.6,532.36218 -60,-90 99.9509,49.99654 100.0491,-59.99654 -60,100 z"
       style="fill:#00112b;stroke:none" />
    <path
       sodipodi:nodetypes="szzzs"
       inkscape:connector-curvature="0"
       id="path3147"
       d="m 1340,992.36217 c 20,20.00003 107.734,-119.44759 120,-139.99999 12.266,-20.5524 0,-60 -40,-60 -40,0 -40,40 -60,60 -20,20 -53.3333,106.66669 -20,139.99999 z"
       style="fill:#00112b;stroke:none" />
    <path
       style="fill:none;stroke:#000000;stroke-width:15;stroke-linecap:butt;stroke-linejoin:miter;stroke-miterlimit:4;stroke-opacity:1;stroke-dasharray:none"
       d="m 989.6,340 c 0,0 100,-40 120,-50 20,-10 120,-30 120,-30"
       id="path3927"
       inkscape:connector-curvature="0"
       transform="translate(2.8968665e-8,432.36218)"
       sodipodi:nodetypes="csc" />
    <path
       sodipodi:nodetypes="csc"
       inkscape:connector-curvature="0"
       id="path3929"
       d="m 1229.6,772.36218 c 0,0 -100,-40 -120,-50 -20,-10 -120,-30 -120,-30"
       style="fill:none;stroke:#000000;stroke-width:15;stroke-linecap:butt;stroke-linejoin:miter;stroke-miterlimit:4;stroke-opacity:1;stroke-dasharray:none" />
    <path
       style="fill:#00112b;stroke:none"
       d="m 880.3859,992.36217 c -20,20.00003 -107.734,-119.44759 -120,-139.99999 -12.266,-20.5524 0,-60 40,-60 40,0 40,40 60,60 20,20 53.3333,106.66669 20,139.99999 z"
       id="path3931"
       inkscape:connector-curvature="0"
       sodipodi:nodetypes="szzzs" />
  </g>
</svg>
