<?xml version="1.0" encoding="UTF-8" standalone="no"?>
<!-- Created with Inkscape (http://www.inkscape.org/) -->

<svg
   xmlns:dc="http://purl.org/dc/elements/1.1/"
   xmlns:cc="http://creativecommons.org/ns#"
   xmlns:rdf="http://www.w3.org/1999/02/22-rdf-syntax-ns#"
   xmlns:svg="http://www.w3.org/2000/svg"
   xmlns="http://www.w3.org/2000/svg"
   xmlns:xlink="http://www.w3.org/1999/xlink"
   xmlns:sodipodi="http://sodipodi.sourceforge.net/DTD/sodipodi-0.dtd"
   xmlns:inkscape="http://www.inkscape.org/namespaces/inkscape"
   width="736"
   height="920.00348"
   id="svg2"
   version="1.1"
   inkscape:version="0.48.2 r9819"
   sodipodi:docname="penguin.svg">
  <defs
     id="defs4">
    <linearGradient
       id="linearGradient3951">
      <stop
         id="stop3953"
         offset="0"
         style="stop-color:#ffffff;stop-opacity:0;" />
      <stop
         style="stop-color:#ffffff;stop-opacity:0;"
         offset="0.4827587"
         id="stop3957" />
      <stop
         id="stop3955"
         offset="1"
         style="stop-color:#ffffff;stop-opacity:1;" />
    </linearGradient>
    <linearGradient
       id="linearGradient3943">
      <stop
         style="stop-color:#ffffff;stop-opacity:1;"
         offset="0"
         id="stop3945" />
      <stop
         style="stop-color:#ffffff;stop-opacity:0;"
         offset="1"
         id="stop3947" />
    </linearGradient>
    <radialGradient
       inkscape:collect="always"
       xlink:href="#linearGradient3951"
       id="radialGradient3949"
       cx="580"
       cy="713.39624"
       fx="580"
       fy="713.39624"
       r="364.25403"
       gradientTransform="matrix(-0.82360123,-2.1413625,1.7491708,-0.6727449,-190.1632,2634.286)"
       gradientUnits="userSpaceOnUse" />
  </defs>
  <sodipodi:namedview
     id="base"
     pagecolor="#ffffff"
     bordercolor="#666666"
     borderopacity="1.0"
     inkscape:pageopacity="0.0"
     inkscape:pageshadow="2"
     inkscape:zoom="0.22627417"
     inkscape:cx="-77.566948"
     inkscape:cy="598.36542"
     inkscape:document-units="px"
     inkscape:current-layer="layer1"
     showgrid="true"
     inkscape:window-width="1440"
     inkscape:window-height="774"
     inkscape:window-x="0"
     inkscape:window-y="0"
     inkscape:window-maximized="1"
     fit-margin-top="0"
     fit-margin-left="0"
     fit-margin-right="0"
     fit-margin-bottom="0">
    <inkscape:grid
       type="xygrid"
       id="grid2985"
       empspacing="10"
       visible="true"
       enabled="true"
       snapvisiblegridlinesonly="true"
       originx="0px"
       dotted="false"
       color="#00aeff"
       opacity="0.1254902"
       spacingx="20px"
       spacingy="20px" />
  </sodipodi:namedview>
  <metadata
     id="metadata7">
    <rdf:RDF>
      <cc:Work
         rdf:about="">
        <dc:format>image/svg+xml</dc:format>
        <dc:type
           rdf:resource="http://purl.org/dc/dcmitype/StillImage" />
        <dc:title></dc:title>
      </cc:Work>
    </rdf:RDF>
  </metadata>
  <g
     inkscape:label="Layer 1"
     inkscape:groupmode="layer"
     id="layer1"
     transform="translate(-2.8968665e-8,-132.3587)">
    <path
       style="fill:url(#radialGradient3949);fill-opacity:1;stroke:none"
       d="m 435.5624,132.3587 c 0,0 -26.245,13.12721 -46.8437,60.59375 -6.9007,-0.37724 -13.935,-0.59375 -21.1563,-0.59375 -125.9007,0 -202.8823,58.71058 -237.7812,128.21875 -0.02,-0.0127 -0.043,-0.0185 -0.062,-0.0312 -5.8929,11.73114 -10.628,23.75833 -14.1563,35.875 0.047,0.0234 0.078,0.0391 0.125,0.0625 -5.4466,18.7247 -8.125,37.63154 -8.125,55.875 0,53.74838 20,160 20,160 0,0 -2.2413,6.75734 -5.5937,18.09375 -27.148095,2.15873 -103.059395,122.89393 -114.4062953,141.90625 -12.266,20.55243 0,60 40.0000003,60 22.5528,0 32.7115,-9.50155 40.6875,-23.1875 -0.4307,7.80548 -0.6875,15.55287 -0.6875,23.1875 0,110.26171 47.834195,159.73917 111.312495,181.9375 -27.3391,14.93022 -55.2594,35.93235 -51.3125,58.06245 3.7016,20.7544 23.4972,20 60,20 36.5028,0 60,-20 60,-20 l 50.5625,-40.43745 c 16.7875,0.44702 33.4124,0.4375 49.4375,0.4375 16.0269,0 32.6481,0.01 49.4375,-0.4375 l 50.5625,40.43745 c 0,0 23.4972,20 60,20 36.5028,0 56.2985,0.7544 60,-20 3.9471,-22.1312 -24.0035,-43.13211 -51.3437,-58.06245 63.4782,-22.19833 111.3437,-71.67579 111.3437,-181.9375 0,-7.29862 -0.2612,-14.69898 -0.6562,-22.15625 7.887,13.12122 18.0893,22.15625 40.0625,22.15625 40,0 52.266,-39.44757 40,-60 C 715.7073,713.48887 640.8205,594.40909 613.1567,590.515 c -3.3626,-11.3737 -5.5938,-18.15625 -5.5938,-18.15625 0,0 20,-106.25162 20,-160 0,-18.26306 -2.6978,-37.19309 -8.1562,-55.9375 0.01,-0.005 0.022,0.005 0.031,0 -0.1461,-0.50169 -0.3185,-0.99864 -0.4687,-1.5 -0.302,-1.00885 -0.6193,-2.02374 -0.9375,-3.03125 -0.1877,-0.59268 -0.3691,-1.18915 -0.5625,-1.78125 -0.1019,-0.31294 -0.2091,-0.62472 -0.3125,-0.9375 -0.425,-1.2797 -0.8607,-2.56724 -1.3125,-3.84375 -0.8243,-2.33927 -1.6806,-4.67358 -2.5938,-7 0,-0.0126 -0.026,-0.0186 -0.031,-0.0312 -23.0305,-58.64222 -74.3967,-112.64926 -157.9375,-135.03125 4.458,-39.59701 20.2812,-50.90625 20.2812,-50.90625 -20,0 -48,40 -48,40 -20,-20 8,-60 8,-60 z"
       id="path3894"
       inkscape:connector-curvature="0" />
  </g>
</svg>
