<?xml version="1.0" encoding="UTF-8" standalone="no"?>
<!-- Created with Inkscape (http://www.inkscape.org/) -->

<svg
   xmlns:dc="http://purl.org/dc/elements/1.1/"
   xmlns:cc="http://creativecommons.org/ns#"
   xmlns:rdf="http://www.w3.org/1999/02/22-rdf-syntax-ns#"
   xmlns:svg="http://www.w3.org/2000/svg"
   xmlns="http://www.w3.org/2000/svg"
   xmlns:sodipodi="http://sodipodi.sourceforge.net/DTD/sodipodi-0.dtd"
   xmlns:inkscape="http://www.inkscape.org/namespaces/inkscape"
   width="400"
   height="1800"
   id="svg2"
   version="1.1"
   inkscape:version="0.48.2 r9819"
   sodipodi:docname="scene_buttons.svg">
  <defs
     id="defs4">
    <filter
       inkscape:collect="always"
       id="filter4506"
       x="-0.4554626"
       width="1.9109251"
       y="-0.45988458"
       height="1.919769"
       color-interpolation-filters="sRGB">
      <feGaussianBlur
         inkscape:collect="always"
         stdDeviation="17.905147"
         id="feGaussianBlur4508" />
    </filter>
    <filter
       inkscape:collect="always"
       id="filter4510"
       x="-0.45608911"
       width="1.9121782"
       y="-0.45988458"
       height="1.919769"
       color-interpolation-filters="sRGB">
      <feGaussianBlur
         inkscape:collect="always"
         stdDeviation="17.905147"
         id="feGaussianBlur4512" />
    </filter>
    <filter
       inkscape:collect="always"
       id="filter4514"
       x="-0.55170846"
       width="2.1034169"
       y="-0.45988458"
       height="1.919769"
       color-interpolation-filters="sRGB">
      <feGaussianBlur
         inkscape:collect="always"
         stdDeviation="17.905147"
         id="feGaussianBlur4516" />
    </filter>
    <filter
       inkscape:collect="always"
       id="filter4518"
       x="-0.45608911"
       width="1.9121782"
       y="-0.45988458"
       height="1.919769"
       color-interpolation-filters="sRGB">
      <feGaussianBlur
         inkscape:collect="always"
         stdDeviation="17.905147"
         id="feGaussianBlur4520" />
    </filter>
    <filter
       inkscape:collect="always"
       id="filter4522"
       x="-0.45608911"
       width="1.9121782"
       y="-0.45988458"
       height="1.919769"
       color-interpolation-filters="sRGB">
      <feGaussianBlur
         inkscape:collect="always"
         stdDeviation="17.905147"
         id="feGaussianBlur4524" />
    </filter>
    <filter
       inkscape:collect="always"
       id="filter4526"
       x="-0.47640342"
       width="1.9528068"
       y="-0.45988458"
       height="1.919769"
       color-interpolation-filters="sRGB">
      <feGaussianBlur
         inkscape:collect="always"
         stdDeviation="17.905147"
         id="feGaussianBlur4528" />
    </filter>
    <filter
       inkscape:collect="always"
       id="filter4530"
       x="-0.4554626"
       width="1.9109251"
       y="-0.45988458"
       height="1.919769"
       color-interpolation-filters="sRGB">
      <feGaussianBlur
         inkscape:collect="always"
         stdDeviation="17.905147"
         id="feGaussianBlur4532" />
    </filter>
    <filter
       inkscape:collect="always"
       id="filter4534"
       x="-0.45608911"
       width="1.9121782"
       y="-0.45988458"
       height="1.919769"
       color-interpolation-filters="sRGB">
      <feGaussianBlur
         inkscape:collect="always"
         stdDeviation="17.905147"
         id="feGaussianBlur4536" />
    </filter>
    <filter
       inkscape:collect="always"
       id="filter4538"
       x="-1.101584"
       width="3.2031679"
       y="-0.46052331"
       height="1.9210466"
       color-interpolation-filters="sRGB">
      <feGaussianBlur
         inkscape:collect="always"
         stdDeviation="17.905147"
         id="feGaussianBlur4540" />
    </filter>
    <filter
       inkscape:collect="always"
       id="filter4614"
       x="-0.41468999"
       width="1.82938"
       y="-0.4187161"
       height="1.8374321"
       color-interpolation-filters="sRGB">
      <feGaussianBlur
         inkscape:collect="always"
         stdDeviation="18.113659"
         id="feGaussianBlur4616" />
    </filter>
    <filter
       inkscape:collect="always"
       id="filter4618"
       x="-0.4152604"
       width="1.8305207"
       y="-0.4187161"
       height="1.8374321"
       color-interpolation-filters="sRGB">
      <feGaussianBlur
         inkscape:collect="always"
         stdDeviation="18.113659"
         id="feGaussianBlur4620" />
    </filter>
    <filter
       inkscape:collect="always"
       id="filter4622"
       x="-0.50231999"
       width="2.0046401"
       y="-0.4187161"
       height="1.8374321"
       color-interpolation-filters="sRGB">
      <feGaussianBlur
         inkscape:collect="always"
         stdDeviation="18.113659"
         id="feGaussianBlur4624" />
    </filter>
    <filter
       inkscape:collect="always"
       id="filter4626"
       x="-0.4152604"
       width="1.8305207"
       y="-0.4187161"
       height="1.8374321"
       color-interpolation-filters="sRGB">
      <feGaussianBlur
         inkscape:collect="always"
         stdDeviation="18.113659"
         id="feGaussianBlur4628" />
    </filter>
    <filter
       inkscape:collect="always"
       id="filter4630"
       x="-0.4152604"
       width="1.8305207"
       y="-0.4187161"
       height="1.8374321"
       color-interpolation-filters="sRGB">
      <feGaussianBlur
         inkscape:collect="always"
         stdDeviation="18.113659"
         id="feGaussianBlur4632" />
    </filter>
    <filter
       inkscape:collect="always"
       id="filter4634"
       x="-0.4337562"
       width="1.8675123"
       y="-0.4187161"
       height="1.8374321"
       color-interpolation-filters="sRGB">
      <feGaussianBlur
         inkscape:collect="always"
         stdDeviation="18.113659"
         id="feGaussianBlur4636" />
    </filter>
    <filter
       inkscape:collect="always"
       id="filter4638"
       x="-0.41468999"
       width="1.82938"
       y="-0.4187161"
       height="1.8374321"
       color-interpolation-filters="sRGB">
      <feGaussianBlur
         inkscape:collect="always"
         stdDeviation="18.113659"
         id="feGaussianBlur4640" />
    </filter>
    <filter
       inkscape:collect="always"
       id="filter4642"
       x="-0.4152604"
       width="1.8305207"
       y="-0.4187161"
       height="1.8374321"
       color-interpolation-filters="sRGB">
      <feGaussianBlur
         inkscape:collect="always"
         stdDeviation="18.113659"
         id="feGaussianBlur4644" />
    </filter>
    <filter
       inkscape:collect="always"
       id="filter4646"
       x="-1.0029711"
       width="3.0059423"
       y="-0.41929767"
       height="1.8385953"
       color-interpolation-filters="sRGB">
      <feGaussianBlur
         inkscape:collect="always"
         stdDeviation="18.113659"
         id="feGaussianBlur4648" />
    </filter>
  </defs>
  <sodipodi:namedview
     id="base"
     pagecolor="#ffffff"
     bordercolor="#666666"
     borderopacity="1.0"
     inkscape:pageopacity="0.0"
     inkscape:pageshadow="2"
     inkscape:zoom="0.22627417"
     inkscape:cx="621.30744"
     inkscape:cy="1005.9439"
     inkscape:document-units="px"
     inkscape:current-layer="layer1"
     showgrid="true"
     inkscape:window-width="1440"
     inkscape:window-height="774"
     inkscape:window-x="0"
     inkscape:window-y="0"
     inkscape:window-maximized="1">
    <inkscape:grid
       type="xygrid"
       id="grid2985"
       empspacing="10"
       visible="true"
       enabled="true"
       snapvisiblegridlinesonly="true"
       originx="0px"
       dotted="false"
       color="#00aeff"
       opacity="0.1254902"
       spacingx="20px"
       spacingy="20px" />
  </sodipodi:namedview>
  <metadata
     id="metadata7">
    <rdf:RDF>
      <cc:Work
         rdf:about="">
        <dc:format>image/svg+xml</dc:format>
        <dc:type
           rdf:resource="http://purl.org/dc/dcmitype/StillImage" />
        <dc:title />
      </cc:Work>
    </rdf:RDF>
  </metadata>
  <g
     inkscape:label="Layer 1"
     inkscape:groupmode="layer"
     id="layer1"
     transform="translate(0,747.63782)">
    <g
       style="font-size:40px;font-style:normal;font-variant:normal;font-weight:300;font-stretch:normal;line-height:125%;letter-spacing:0px;word-spacing:0px;fill:#5599ff;fill-opacity:1;stroke:none;filter:url(#filter4614);font-family:Orbitron;-inkscape-font-specification:Orbitron Light"
       id="text4542">
      <path
         d="m 265.28676,960.44218 c -2.49603,5e-5 -4.80002,-0.43195 -6.912,-1.296 -2.11202,-0.95995 -3.98402,-2.20795 -5.616,-3.744 -1.53601,-1.63195 -2.78401,-3.50394 -3.744,-5.616 -0.86401,-2.11194 -1.29601,-4.36794 -1.296,-6.768 l 0,-24.912 c -1e-5,-2.39991 0.43199,-4.65591 1.296,-6.768 0.95999,-2.2079 2.20799,-4.0799 3.744,-5.616 1.63198,-1.6319 3.50398,-2.8799 5.616,-3.744 2.11198,-0.95989 4.41597,-1.43989 6.912,-1.44 l 69.84,0 c 2.3999,1.1e-4 4.6559,0.48011 6.768,1.44 2.11189,0.8641 3.93589,2.1121 5.472,3.744 1.63189,1.5361 2.87989,3.4081 3.744,5.616 0.95988,2.11209 1.43988,4.36809 1.44,6.768 l 0,68.832 c -1.2e-4,2.40002 -0.48012,4.65602 -1.44,6.768 -0.86411,2.11201 -2.11211,3.98401 -3.744,5.616 -1.53611,1.53602 -3.36011,2.78402 -5.472,3.74402 -2.1121,0.864 -4.3681,1.296 -6.768,1.296 l -69.84,0 c -3.84003,0 -7.29602,-1.104 -10.368,-3.312 -2.97602,-2.20801 -5.04001,-5.04001 -6.192,-8.49602 l 86.4,0 c 1.5359,10e-6 2.8319,-0.52799 3.888,-1.584 1.1519,-1.15198 1.7279,-2.49598 1.728,-4.032 l 0,-20.88 c -10e-5,-1.53596 -0.5761,-2.83196 -1.728,-3.888 -1.0561,-1.15195 -2.3521,-1.72795 -3.888,-1.728 l -69.84,0 m -5.616,-17.424 c -2e-5,1.53606 0.52798,2.88006 1.584,4.032 1.15197,1.05606 2.49597,1.58406 4.032,1.584 l 75.456,0 0,-30.528 c -10e-5,-1.53591 -0.5761,-2.83191 -1.728,-3.888 -1.0561,-1.15191 -2.3521,-1.72791 -3.888,-1.728 l -69.84,0 c -1.53603,9e-5 -2.88003,0.57609 -4.032,1.728 -1.05602,1.05609 -1.58402,2.35209 -1.584,3.888 l 0,24.912"
         style="font-size:144px;text-align:center;text-anchor:middle;fill:#5599ff"
         id="path3242" />
    </g>
    <g
       style="font-size:40px;font-style:normal;font-variant:normal;font-weight:300;font-stretch:normal;line-height:125%;letter-spacing:0px;word-spacing:0px;fill:#5599ff;fill-opacity:1;stroke:none;filter:url(#filter4618);font-family:Orbitron;-inkscape-font-specification:Orbitron Light"
       id="text4546">
      <path
         d="m 352.84888,737.27418 c -1.1e-4,3.84006 -1.44011,7.72806 -4.32,11.664 2.87989,3.74405 4.31989,7.58405 4.32,11.52 l 0,24.48 c -1.1e-4,2.40002 -0.48011,4.65602 -1.44,6.768 -0.86411,2.11201 -2.11211,3.98401 -3.744,5.616 -1.53611,1.53601 -3.3601,2.784 -5.472,3.744 -2.1121,0.864 -4.3681,1.296 -6.768,1.296 l -69.84,0 c -2.49602,0 -4.80002,-0.432 -6.912,-1.296 -2.11202,-0.96 -3.93601,-2.20799 -5.472,-3.744 -1.53601,-1.63199 -2.78401,-3.50399 -3.744,-5.616 -0.86401,-2.11198 -1.29601,-4.36798 -1.296,-6.768 l 0,-24.48 c -1e-5,-3.93595 1.43999,-7.77595 4.32,-11.52 -2.88001,-3.93594 -4.32001,-7.82394 -4.32,-11.664 l 0,-21.168 c -1e-5,-2.39991 0.43199,-4.65591 1.296,-6.768 0.95999,-2.2079 2.20799,-4.0799 3.744,-5.616 1.53599,-1.6319 3.35998,-2.8799 5.472,-3.744 2.11198,-0.95989 4.41598,-1.43989 6.912,-1.44 l 69.84,0 c 2.0159,1.1e-4 3.9359,0.43211 5.76,1.296 1.9199,0.7681 3.6479,1.8721 5.184,3.312 1.53589,1.3441 2.83189,2.9281 3.888,4.752 1.15189,1.7281 2.01589,3.50409 2.592,5.328 l 0,24.048 m -11.808,23.184 c -1e-4,-1.53595 -0.5761,-2.83195 -1.728,-3.888 -1.0561,-1.15195 -2.3521,-1.72795 -3.888,-1.728 l -69.84,0 c -1.53602,5e-5 -2.88002,0.57605 -4.032,1.728 -1.05602,1.05605 -1.58402,2.35205 -1.584,3.888 l 0,24.48 c -2e-5,1.53602 0.52798,2.88002 1.584,4.032 1.15198,1.05601 2.49598,1.58401 4.032,1.584 l 69.84,0 c 1.5359,10e-6 2.8319,-0.52799 3.888,-1.584 1.1519,-1.15198 1.7279,-2.49598 1.728,-4.032 l 0,-24.48 m 0,-44.208 c -1e-4,-1.53591 -0.5761,-2.83191 -1.728,-3.888 -1.0561,-1.15191 -2.3521,-1.72791 -3.888,-1.728 l -69.84,0 c -1.53602,9e-5 -2.88002,0.57609 -4.032,1.728 -1.05602,1.05609 -1.58402,2.35209 -1.584,3.888 l 0,22.752 c -2e-5,1.53606 0.52798,2.88006 1.584,4.032 1.15198,1.05606 2.49598,1.58406 4.032,1.584 l 69.84,0 c 1.5359,6e-5 2.8319,-0.52794 3.888,-1.584 1.1519,-1.15194 1.7279,-2.49594 1.728,-4.032 l 0,-22.752"
         style="font-size:144px;text-align:center;text-anchor:middle;fill:#5599ff"
         id="path3245" />
    </g>
    <g
       style="font-size:40px;font-style:normal;font-variant:normal;font-weight:300;font-stretch:normal;line-height:125%;letter-spacing:0px;word-spacing:0px;fill:#5599ff;fill-opacity:1;stroke:none;filter:url(#filter4622);font-family:Orbitron;-inkscape-font-specification:Orbitron Light"
       id="text4550">
      <path
         d="m 256.90051,512.49018 0,-11.952 69.12,0 c 2.39992,1.1e-4 4.65592,0.48011 6.768,1.44 2.11192,0.8641 3.93592,2.1121 5.472,3.744 1.63191,1.5361 2.87991,3.4081 3.744,5.616 0.95991,2.11209 1.43991,4.36809 1.44,6.768 l 0,86.256 -11.808,0 0,-86.256 c -8e-5,-1.53591 -0.57608,-2.83191 -1.728,-3.888 -1.05608,-1.15191 -2.35208,-1.72791 -3.888,-1.728 l -69.12,0"
         style="font-size:144px;text-align:center;text-anchor:middle;fill:#5599ff"
         id="path3248" />
    </g>
    <g
       style="font-size:40px;font-style:normal;font-variant:normal;font-weight:300;font-stretch:normal;line-height:125%;letter-spacing:0px;word-spacing:0px;fill:#5599ff;fill-opacity:1;stroke:none;filter:url(#filter4626);font-family:Orbitron;-inkscape-font-specification:Orbitron Light"
       id="text4554">
      <path
         d="m 336.54988,344.60218 c 2.3999,6e-5 4.6559,0.48006 6.768,1.44 2.1119,0.86406 3.93589,2.06406 5.472,3.6 1.63189,1.53606 2.87989,3.40805 3.744,5.616 0.95989,2.11205 1.43989,4.36805 1.44,6.768 l 0,24.912 c -1.1e-4,2.40002 -0.48011,4.65602 -1.44,6.768 -0.86411,2.11201 -2.11211,3.98401 -3.744,5.616 -1.53611,1.53601 -3.3601,2.784 -5.472,3.744 -2.1121,0.864 -4.3681,1.296 -6.768,1.296 l -69.84,0 c -2.49602,0 -4.80002,-0.432 -6.912,-1.296 -2.11202,-0.96 -3.93601,-2.20799 -5.472,-3.744 -1.53601,-1.63199 -2.78401,-3.50399 -3.744,-5.616 -0.86401,-2.11198 -1.29601,-4.36798 -1.296,-6.768 l 0,-68.832 c -1e-5,-2.39991 0.43199,-4.65591 1.296,-6.768 0.95999,-2.2079 2.20799,-4.0799 3.744,-5.616 1.53599,-1.6319 3.35998,-2.8799 5.472,-3.744 2.11198,-0.95989 4.41598,-1.43989 6.912,-1.44 l 69.12,0 0,11.952 -69.12,0 c -1.53602,9e-5 -2.88002,0.57609 -4.032,1.728 -1.05602,1.05609 -1.58402,2.35209 -1.584,3.888 l 0,20.736 c -2e-5,1.63207 0.52798,3.02407 1.584,4.176 1.15198,1.05606 2.49598,1.58406 4.032,1.584 l 69.84,0 m 5.616,17.424 c -1e-4,-1.53595 -0.5761,-2.83195 -1.728,-3.888 -1.0561,-1.15195 -2.3521,-1.72795 -3.888,-1.728 l -75.456,0 0,30.528 c -2e-5,1.53602 0.52798,2.88002 1.584,4.032 1.15198,1.05601 2.49598,1.58401 4.032,1.584 l 69.84,0 c 1.5359,1e-5 2.8319,-0.52799 3.888,-1.584 1.1519,-1.15198 1.7279,-2.49598 1.728,-4.032 l 0,-24.912"
         style="font-size:144px;text-align:center;text-anchor:middle;fill:#5599ff"
         id="path3251" />
    </g>
    <g
       style="font-size:40px;font-style:normal;font-variant:normal;font-weight:300;font-stretch:normal;line-height:125%;letter-spacing:0px;word-spacing:0px;fill:#5599ff;fill-opacity:1;stroke:none;filter:url(#filter4630);font-family:Orbitron;-inkscape-font-specification:Orbitron Light"
       id="text4558">
      <path
         d="m 258.25013,139.27418 c -2e-5,1.63207 0.52798,3.02406 1.584,4.176 1.15198,1.05606 2.49598,1.58406 4.032,1.584 l 69.84,0 c 2.3999,6e-5 4.6559,0.48006 6.768,1.44 2.1119,0.86406 3.93589,2.06406 5.472,3.6 1.63189,1.53606 2.87989,3.40805 3.744,5.616 0.95989,2.11205 1.43989,4.36805 1.44,6.768 l 0,24.48 c -1.1e-4,2.40002 -0.48011,4.65602 -1.44,6.768 -0.86411,2.11201 -2.11211,3.98401 -3.744,5.616 -1.53611,1.53601 -3.3601,2.784 -5.472,3.744 -2.1121,0.864 -4.3681,1.296 -6.768,1.296 l -69.84,0 c -2.49602,0 -4.80002,-0.432 -6.912,-1.296 -2.11202,-0.96 -3.93601,-2.20799 -5.472,-3.744 -1.53601,-1.63199 -2.78401,-3.50399 -3.744,-5.616 -0.86401,-2.11198 -1.29601,-4.36798 -1.296,-6.768 l 0,-4.176 11.808,0 0,4.176 c -2e-5,1.53602 0.52798,2.88002 1.584,4.032 1.15198,1.05601 2.49598,1.58401 4.032,1.584 l 69.84,0 c 1.5359,1e-5 2.8319,-0.52799 3.888,-1.584 1.1519,-1.15198 1.7279,-2.49598 1.728,-4.032 l 0,-24.48 c -1e-4,-1.53595 -0.5761,-2.83195 -1.728,-3.888 -1.0561,-1.15195 -2.3521,-1.72795 -3.888,-1.728 l -87.264,0 0,-56.304 104.688,0 0,11.952 -87.264,0 c -1.53602,9e-5 -2.88002,0.57609 -4.032,1.728 -1.05602,1.05609 -1.58402,2.35209 -1.584,3.888 l 0,21.168"
         style="font-size:144px;text-align:center;text-anchor:middle;fill:#5599ff"
         id="path3254" />
    </g>
    <g
       style="font-size:40px;font-style:normal;font-variant:normal;font-weight:300;font-stretch:normal;line-height:125%;letter-spacing:0px;word-spacing:0px;fill:#5599ff;fill-opacity:1;stroke:none;filter:url(#filter4634);font-family:Orbitron;-inkscape-font-specification:Orbitron Light"
       id="text4562">
      <path
         d="m 350.49401,-34.229817 0,11.808 -16.128,0 0,26.7839996 -11.808,0 0,-26.7839996 -72.288,0 0,-13.248 c 11.99998,-10.75195 23.80797,-21.359939 35.424,-31.824 11.71195,-10.463918 23.51994,-21.119907 35.424,-31.968 l 13.248,0 0,65.232 16.128,0 m -85.104,0 57.168,0 0,-46.368 -57.168,46.368"
         style="font-size:144px;text-align:center;text-anchor:middle;fill:#5599ff"
         id="path3257" />
    </g>
    <g
       style="font-size:40px;font-style:normal;font-variant:normal;font-weight:300;font-stretch:normal;line-height:125%;letter-spacing:0px;word-spacing:0px;fill:#5599ff;fill-opacity:1;stroke:none;filter:url(#filter4638);font-family:Orbitron;-inkscape-font-specification:Orbitron Light"
       id="text4566">
      <path
         d="m 345.36001,-250.06982 c 1.72789,1.63206 3.11989,3.60005 4.176,5.904 1.05588,2.20805 1.58388,4.56005 1.584,7.056 l 0,24.048 c -1.2e-4,2.40002 -0.48012,4.65602 -1.44,6.768 -0.86411,2.11201 -2.11211,3.98401 -3.744,5.616 -1.53611,1.53601 -3.36011,2.784 -5.472,3.744 -2.1121,0.864 -4.3681,1.296 -6.768,1.296 l -69.84,0 c -2.49603,0 -4.80002,-0.432 -6.912,-1.296 -2.11202,-0.96 -3.98402,-2.20799 -5.616,-3.744 -1.53602,-1.63199 -2.78401,-3.50399 -3.744,-5.616 -0.86401,-2.11198 -1.29601,-4.36798 -1.296,-6.768 l 0,-2.304 11.952,0 0,2.304 c -2e-5,1.53602 0.52798,2.88002 1.584,4.032 1.15197,1.05601 2.49597,1.58401 4.032,1.584 l 69.84,0 c 1.5359,1e-5 2.8319,-0.52799 3.888,-1.584 1.1519,-1.15198 1.7279,-2.49598 1.728,-4.032 l 0,-24.048 c -10e-5,-1.53595 -0.5761,-2.83195 -1.728,-3.888 -1.0561,-1.15195 -2.3521,-1.72795 -3.888,-1.728 l -67.536,0 0,-11.808 62.928,0 c 1.5359,6e-5 2.8319,-0.52794 3.888,-1.584 1.1519,-1.15194 1.7279,-2.49593 1.728,-4.032 l 0,-21.744 c -10e-5,-1.53591 -0.5761,-2.83191 -1.728,-3.888 -1.0561,-1.15191 -2.3521,-1.72791 -3.888,-1.728 l -65.232,0 c -1.53603,9e-5 -2.88003,0.57609 -4.032,1.728 -1.05602,1.05609 -1.58402,2.35209 -1.584,3.888 l 0,3.744 -11.952,0 0,-3.744 c -1e-5,-2.39991 0.43199,-4.65591 1.296,-6.768 0.95999,-2.2079 2.20798,-4.0799 3.744,-5.616 1.63198,-1.6319 3.50398,-2.8799 5.616,-3.744 2.11198,-0.95989 4.41597,-1.43989 6.912,-1.44 l 65.232,0 c 2.3999,1.1e-4 4.6559,0.48011 6.768,1.44 2.2079,0.8641 4.07989,2.1121 5.616,3.744 1.53589,1.5361 2.73589,3.4081 3.6,5.616 0.95989,2.11209 1.43989,4.36809 1.44,6.768 l 0,21.744 c -1.1e-4,1.34407 -0.19211,2.68806 -0.576,4.032 -0.28811,1.24806 -0.67211,2.40006 -1.152,3.456 l 0.576,2.592"
         style="font-size:144px;text-align:center;text-anchor:middle;fill:#5599ff"
         id="path3260" />
    </g>
    <g
       style="font-size:40px;font-style:normal;font-variant:normal;font-weight:300;font-stretch:normal;line-height:125%;letter-spacing:0px;word-spacing:0px;fill:#5599ff;fill-opacity:1;stroke:none;filter:url(#filter4642);font-family:Orbitron;-inkscape-font-specification:Orbitron Light"
       id="text4570">
      <path
         d="m 335.70613,-499.46182 c 2.3999,1.1e-4 4.6559,0.48011 6.768,1.44 2.1119,0.8641 3.93589,2.1121 5.472,3.744 1.63189,1.5361 2.87989,3.4081 3.744,5.616 0.95989,2.11209 1.43989,4.36809 1.44,6.768 l 0,24.336 c -1.1e-4,2.40006 -0.48011,4.65606 -1.44,6.768 -0.86411,2.11206 -2.11211,3.98405 -3.744,5.616 -1.53611,1.53605 -3.3601,2.78405 -5.472,3.744 -2.1121,0.86405 -4.3681,1.29605 -6.768,1.296 l -69.84,0 c -1.53602,5e-5 -2.88002,0.57605 -4.032,1.728 -1.05602,1.05604 -1.58402,2.35204 -1.584,3.888 l 0,21.456 c -2e-5,1.53602 0.52798,2.88002 1.584,4.032 1.15198,1.05601 2.49598,1.58401 4.032,1.584 l 87.264,0 0,11.808 -104.688,0 0,-38.88 c -1e-5,-2.39996 0.43199,-4.65595 1.296,-6.768 0.95999,-2.20795 2.20799,-4.07995 3.744,-5.616 1.53599,-1.53594 3.35998,-2.73594 5.472,-3.6 2.11198,-0.95994 4.41598,-1.43994 6.912,-1.44 l 69.84,0 c 1.5359,6e-5 2.8319,-0.52794 3.888,-1.584 1.1519,-1.15194 1.7279,-2.49594 1.728,-4.032 l 0,-24.336 c -1e-4,-1.53591 -0.5761,-2.83191 -1.728,-3.888 -1.0561,-1.15191 -2.3521,-1.72791 -3.888,-1.728 l -69.84,0 c -1.53602,9e-5 -2.88002,0.57609 -4.032,1.728 -1.05602,1.05609 -1.58402,2.35209 -1.584,3.888 l 0,4.032 -11.808,0 0,-4.032 c -1e-5,-2.39991 0.43199,-4.65591 1.296,-6.768 0.95999,-2.2079 2.20799,-4.0799 3.744,-5.616 1.53599,-1.6319 3.35998,-2.8799 5.472,-3.744 2.11198,-0.95989 4.41598,-1.43989 6.912,-1.44 l 69.84,0"
         style="font-size:144px;text-align:center;text-anchor:middle;fill:#5599ff"
         id="path3263" />
    </g>
    <g
       style="font-size:40px;font-style:normal;font-variant:normal;font-weight:300;font-stretch:normal;line-height:125%;letter-spacing:0px;word-spacing:0px;fill:#5599ff;fill-opacity:1;stroke:none;filter:url(#filter4646);font-family:Orbitron;-inkscape-font-specification:Orbitron Light"
       id="text4574">
      <path
         d="m 299.09413,-699.31782 16.128,0 0,103.68 -11.952,0 0,-90.432 c -0.96003,1.24809 -2.16003,2.68809 -3.6,4.32 -1.34403,1.63209 -2.78402,3.36009 -4.32,5.184 -1.44002,1.72808 -2.88002,3.45608 -4.32,5.184 -1.44002,1.72808 -2.68802,3.21608 -3.744,4.464 l -15.408,0 27.216,-32.4"
         style="font-size:144px;text-align:center;text-anchor:middle;fill:#5599ff"
         id="path3266" />
    </g>
    <g
       style="font-size:36px;font-style:normal;font-variant:normal;font-weight:300;font-stretch:normal;line-height:125%;letter-spacing:0px;word-spacing:0px;fill:#aaccff;fill-opacity:1;stroke:none;filter:url(#filter4506);font-family:Orbitron;-inkscape-font-specification:Orbitron Light"
       id="text4434">
      <path
         d="m 68.771795,959.64296 c -2.24642,4e-5 -4.320018,-0.38876 -6.2208,-1.1664 -1.900815,-0.86396 -3.585613,-1.98716 -5.054401,-3.3696 -1.382409,-1.46876 -2.505608,-3.15356 -3.3696,-5.0544 -0.777607,-1.90075 -1.166406,-3.93115 -1.1664,-6.0912 l 0,-22.4208 c -6e-6,-2.15992 0.388793,-4.19032 1.1664,-6.0912 0.863992,-1.98712 1.987191,-3.67192 3.3696,-5.0544 1.468788,-1.46871 3.153586,-2.59191 5.054401,-3.3696 1.900782,-0.86391 3.97438,-1.29591 6.2208,-1.296 l 62.856005,0 c 2.15991,9e-5 4.19031,0.43209 6.0912,1.296 1.9007,0.77769 3.5423,1.90089 4.9248,3.3696 1.4687,1.38248 2.5919,3.06728 3.3696,5.0544 0.8639,1.90088 1.2959,3.93128 1.296,6.0912 l 0,61.9488 c -1e-4,2.16001 -0.4321,4.19041 -1.296,6.0912 -0.7777,1.90081 -1.9009,3.58561 -3.3696,5.0544 -1.3825,1.3824 -3.0241,2.5056 -4.9248,3.3696 -1.90089,0.7776 -3.93129,1.1664 -6.0912,1.1664 l -62.856005,0 c -3.456019,0 -6.566416,-0.9936 -9.331201,-2.9808 -2.67841,-1.9872 -4.536008,-4.53599 -5.5728,-7.6464 l 77.760006,0 c 1.38231,10e-6 2.54871,-0.47519 3.4992,-1.4256 1.03671,-1.03679 1.55511,-2.24639 1.5552,-3.6288 l 0,-18.792 c -9e-5,-1.38237 -0.51849,-2.54877 -1.5552,-3.4992 -0.95049,-1.03676 -2.11689,-1.55516 -3.4992,-1.5552 l -62.856005,0 m -5.0544,-15.6816 c -1.8e-5,1.38245 0.475182,2.59205 1.4256,3.6288 1.03678,0.95045 2.246379,1.42565 3.6288,1.4256 l 67.910405,0 0,-27.4752 c -9e-5,-1.38233 -0.51849,-2.54872 -1.5552,-3.4992 -0.95049,-1.03672 -2.11689,-1.55512 -3.4992,-1.5552 l -62.856005,0 c -1.382421,8e-5 -2.59202,0.51848 -3.6288,1.5552 -0.950418,0.95048 -1.425618,2.11687 -1.4256,3.4992 l 0,22.4208"
         style="font-size:129.6000061px;text-align:center;text-anchor:middle;fill:#aaccff"
         id="path3269" />
    </g>
    <g
       style="font-size:36px;font-style:normal;font-variant:normal;font-weight:300;font-stretch:normal;line-height:125%;letter-spacing:0px;word-spacing:0px;fill:#aaccff;fill-opacity:1;stroke:none;filter:url(#filter4510);font-family:Orbitron;-inkscape-font-specification:Orbitron Light"
       id="text4438">
      <path
         d="m 147.61472,738.59176 c -1e-4,3.45605 -1.2961,6.95525 -3.888,10.4976 2.5919,3.36964 3.8879,6.82564 3.888,10.368 l 0,22.032 c -1e-4,2.16001 -0.4321,4.19041 -1.296,6.0912 -0.7777,1.90081 -1.9009,3.58561 -3.3696,5.0544 -1.38249,1.3824 -3.02409,2.5056 -4.9248,3.3696 -1.90089,0.7776 -3.93129,1.1664 -6.0912,1.1664 l -62.856002,0 c -2.246421,0 -4.320019,-0.3888 -6.220801,-1.1664 -1.900815,-0.864 -3.542413,-1.9872 -4.9248,-3.3696 -1.38241,-1.46879 -2.505609,-3.15359 -3.3696,-5.0544 -0.777608,-1.90079 -1.166407,-3.93119 -1.1664,-6.0912 l 0,-22.032 c -7e-6,-3.54236 1.295991,-6.99836 3.888,-10.368 -2.592009,-3.54235 -3.888007,-7.04155 -3.888,-10.4976 l 0,-19.0512 c -7e-6,-2.15992 0.388792,-4.19032 1.1664,-6.0912 0.863991,-1.98712 1.98719,-3.67192 3.3696,-5.0544 1.382387,-1.46871 3.023985,-2.59191 4.9248,-3.3696 1.900782,-0.86391 3.97438,-1.29591 6.220801,-1.296 l 62.856002,0 c 1.81431,9e-5 3.54231,0.38889 5.184,1.1664 1.72791,0.69129 3.28311,1.68489 4.6656,2.9808 1.3823,1.20968 2.5487,2.63528 3.4992,4.2768 1.0367,1.55528 1.8143,3.15368 2.3328,4.7952 l 0,21.6432 m -10.6272,20.8656 c -9e-5,-1.38236 -0.51849,-2.54876 -1.5552,-3.4992 -0.95049,-1.03676 -2.11689,-1.55516 -3.4992,-1.5552 l -62.856002,0 c -1.382422,4e-5 -2.592021,0.51844 -3.628801,1.5552 -0.950418,0.95044 -1.425618,2.11684 -1.4256,3.4992 l 0,22.032 c -1.8e-5,1.38241 0.475182,2.59201 1.4256,3.6288 1.03678,0.95041 2.246379,1.42561 3.628801,1.4256 l 62.856002,0 c 1.38231,10e-6 2.54871,-0.47519 3.4992,-1.4256 1.03671,-1.03679 1.55511,-2.24639 1.5552,-3.6288 l 0,-22.032 m 0,-39.7872 c -9e-5,-1.38233 -0.51849,-2.54872 -1.5552,-3.4992 -0.95049,-1.03672 -2.11689,-1.55512 -3.4992,-1.5552 l -62.856002,0 c -1.382422,8e-5 -2.592021,0.51848 -3.628801,1.5552 -0.950418,0.95048 -1.425618,2.11687 -1.4256,3.4992 l 0,20.4768 c -1.8e-5,1.38245 0.475182,2.59205 1.4256,3.6288 1.03678,0.95045 2.246379,1.42565 3.628801,1.4256 l 62.856002,0 c 1.38231,5e-5 2.54871,-0.47515 3.4992,-1.4256 1.03671,-1.03675 1.55511,-2.24635 1.5552,-3.6288 l 0,-20.4768"
         style="font-size:129.6000061px;text-align:center;text-anchor:middle;fill:#aaccff"
         id="path3272" />
    </g>
    <g
       style="font-size:36px;font-style:normal;font-variant:normal;font-weight:300;font-stretch:normal;line-height:125%;letter-spacing:0px;word-spacing:0px;fill:#aaccff;fill-opacity:1;stroke:none;filter:url(#filter4514);font-family:Orbitron;-inkscape-font-specification:Orbitron Light"
       id="text4442">
      <path
         d="m 61.227944,516.48616 0,-10.7568 62.208006,0 c 2.15993,9e-5 4.19033,0.43209 6.0912,1.296 1.90073,0.77769 3.54233,1.90089 4.9248,3.3696 1.46872,1.38248 2.59192,3.06728 3.3696,5.0544 0.86392,1.90088 1.29592,3.93128 1.296,6.0912 l 0,77.6304 -10.6272,0 0,-77.6304 c -7e-5,-1.38233 -0.51847,-2.54872 -1.5552,-3.4992 -0.95047,-1.03672 -2.11687,-1.55512 -3.4992,-1.5552 l -62.208006,0"
         style="font-size:129.6000061px;text-align:center;text-anchor:middle;fill:#aaccff"
         id="path3275" />
    </g>
    <g
       style="font-size:36px;font-style:normal;font-variant:normal;font-weight:300;font-stretch:normal;line-height:125%;letter-spacing:0px;word-spacing:0px;fill:#aaccff;fill-opacity:1;stroke:none;filter:url(#filter4518);font-family:Orbitron;-inkscape-font-specification:Orbitron Light"
       id="text4446">
      <path
         d="m 133.05812,345.38699 c 2.15992,5e-5 4.19031,0.43205 6.0912,1.296 1.90071,0.77765 3.54231,1.85765 4.9248,3.24 1.46871,1.38245 2.5919,3.06724 3.3696,5.0544 0.8639,1.90084 1.2959,3.93124 1.296,6.0912 l 0,22.4208 c -1e-4,2.16001 -0.4321,4.19041 -1.296,6.0912 -0.7777,1.90081 -1.90089,3.58561 -3.3696,5.0544 -1.38249,1.3824 -3.02409,2.5056 -4.9248,3.3696 -1.90089,0.7776 -3.93128,1.1664 -6.0912,1.1664 l -62.855999,0 c -2.246421,0 -4.320019,-0.3888 -6.220801,-1.1664 -1.900815,-0.864 -3.542413,-1.9872 -4.9248,-3.3696 -1.38241,-1.46879 -2.505609,-3.15359 -3.3696,-5.0544 -0.777608,-1.90079 -1.166407,-3.93119 -1.1664,-6.0912 l 0,-61.9488 c -7e-6,-2.15992 0.388792,-4.19032 1.1664,-6.0912 0.863991,-1.98712 1.98719,-3.67192 3.3696,-5.0544 1.382387,-1.46871 3.023985,-2.59191 4.9248,-3.3696 1.900782,-0.86391 3.97438,-1.29591 6.220801,-1.296 l 62.207999,0 0,10.7568 -62.207999,0 c -1.382422,8e-5 -2.592021,0.51848 -3.6288,1.5552 -0.950419,0.95048 -1.425619,2.11688 -1.425601,3.4992 l 0,18.6624 c -1.8e-5,1.46885 0.475182,2.72165 1.425601,3.7584 1.036779,0.95045 2.246378,1.42565 3.6288,1.4256 l 62.855999,0 m 5.0544,15.6816 c -9e-5,-1.38236 -0.51849,-2.54876 -1.5552,-3.4992 -0.95048,-1.03676 -2.11688,-1.55516 -3.4992,-1.5552 l -67.9104,0 0,27.4752 c -1.8e-5,1.38241 0.475182,2.59201 1.425601,3.6288 1.036779,0.95041 2.246378,1.42561 3.6288,1.4256 l 62.855999,0 c 1.38232,10e-6 2.54872,-0.47519 3.4992,-1.4256 1.03671,-1.03679 1.55511,-2.24639 1.5552,-3.6288 l 0,-22.4208"
         style="font-size:129.6000061px;text-align:center;text-anchor:middle;fill:#aaccff"
         id="path3278" />
    </g>
    <g
       style="font-size:36px;font-style:normal;font-variant:normal;font-weight:300;font-stretch:normal;line-height:125%;letter-spacing:0px;word-spacing:0px;fill:#aaccff;fill-opacity:1;stroke:none;filter:url(#filter4522);font-family:Orbitron;-inkscape-font-specification:Orbitron Light"
       id="text4450">
      <path
         d="m 62.303972,140.59179 c -1.8e-5,1.46885 0.475182,2.72165 1.4256,3.7584 1.03678,0.95045 2.246378,1.42565 3.6288,1.4256 l 62.856008,0 c 2.15991,5e-5 4.19031,0.43205 6.0912,1.296 1.9007,0.77765 3.5423,1.85765 4.9248,3.24 1.4687,1.38245 2.5919,3.06724 3.3696,5.0544 0.86389,1.90084 1.29589,3.93124 1.296,6.0912 l 0,22.032 c -1.1e-4,2.16001 -0.43211,4.19041 -1.296,6.0912 -0.7777,1.90081 -1.9009,3.58561 -3.3696,5.0544 -1.3825,1.3824 -3.0241,2.5056 -4.9248,3.3696 -1.90089,0.7776 -3.93129,1.1664 -6.0912,1.1664 l -62.856008,0 c -2.246421,0 -4.320019,-0.3888 -6.2208,-1.1664 -1.900815,-0.864 -3.542414,-1.9872 -4.9248,-3.3696 -1.382411,-1.46879 -2.50561,-3.15359 -3.3696,-5.0544 -0.777608,-1.90079 -1.166408,-3.93119 -1.166401,-6.0912 l 0,-3.7584 10.627201,0 0,3.7584 c -1.8e-5,1.38241 0.475182,2.59201 1.4256,3.6288 1.03678,0.95041 2.246378,1.42561 3.6288,1.4256 l 62.856008,0 c 1.38231,1e-5 2.54871,-0.47519 3.4992,-1.4256 1.0367,-1.03679 1.5551,-2.24639 1.5552,-3.6288 l 0,-22.032 c -1e-4,-1.38236 -0.5185,-2.54876 -1.5552,-3.4992 -0.95049,-1.03676 -2.11689,-1.55516 -3.4992,-1.5552 l -78.537609,0 0,-50.6736 94.219209,0 0,10.7568 -78.537608,0 c -1.382422,8e-5 -2.59202,0.51848 -3.6288,1.5552 -0.950418,0.95048 -1.425618,2.11688 -1.4256,3.4992 l 0,19.0512"
         style="font-size:129.6000061px;text-align:center;text-anchor:middle;fill:#aaccff"
         id="path3281" />
    </g>
    <g
       style="font-size:36px;font-style:normal;font-variant:normal;font-weight:300;font-stretch:normal;line-height:125%;letter-spacing:0px;word-spacing:0px;fill:#aaccff;fill-opacity:1;stroke:none;filter:url(#filter4526);font-family:Orbitron;-inkscape-font-specification:Orbitron Light"
       id="text4454">
      <path
         d="m 145.48305,-35.561819 0,10.6272 -14.5152,0 0,24.1056016 -10.6272,0 0,-24.1056016 -65.059201,0 0,-11.9232 C 66.081438,-46.534574 76.708628,-56.081765 87.163051,-65.49942 97.703808,-74.916947 108.331,-84.507338 119.04465,-94.270622 l 11.9232,0 0,58.708803 14.5152,0 m -76.5936,0 51.4512,0 0,-41.731202 -51.4512,41.731202"
         style="font-size:129.6000061px;text-align:center;text-anchor:middle;fill:#aaccff"
         id="path3284" />
    </g>
    <g
       style="font-size:36px;font-style:normal;font-variant:normal;font-weight:300;font-stretch:normal;line-height:125%;letter-spacing:0px;word-spacing:0px;fill:#aaccff;fill-opacity:1;stroke:none;filter:url(#filter4530);font-family:Orbitron;-inkscape-font-specification:Orbitron Light"
       id="text4458">
      <path
         d="m 140.69465,-249.81781 c 1.55511,1.46885 2.80791,3.24004 3.7584,5.3136 0.9503,1.98724 1.4255,4.10404 1.4256,6.3504 l 0,21.6432 c -1e-4,2.16001 -0.4321,4.19041 -1.296,6.0912 -0.7777,1.90081 -1.90089,3.58561 -3.3696,5.0544 -1.38249,1.3824 -3.02409,2.5056 -4.9248,3.3696 -1.90089,0.7776 -3.93128,1.1664 -6.0912,1.1664 l -62.856,0 c -2.24642,0 -4.320018,-0.3888 -6.2208,-1.1664 -1.900814,-0.864 -3.585613,-1.9872 -5.0544,-3.3696 -1.38241,-1.46879 -2.505609,-3.15359 -3.3696,-5.0544 -0.777607,-1.90079 -1.166407,-3.93119 -1.1664,-6.0912 l 0,-2.0736 10.7568,0 0,2.0736 c -1.7e-5,1.38241 0.475182,2.59201 1.4256,3.6288 1.03678,0.95041 2.246379,1.42561 3.6288,1.4256 l 62.856,0 c 1.38232,1e-5 2.54872,-0.47519 3.4992,-1.4256 1.03671,-1.03679 1.55511,-2.24639 1.5552,-3.6288 l 0,-21.6432 c -9e-5,-1.38236 -0.51849,-2.54876 -1.5552,-3.4992 -0.95048,-1.03676 -2.11688,-1.55516 -3.4992,-1.5552 l -60.782399,0 0,-10.6272 56.635199,0 c 1.38232,5e-5 2.54872,-0.47515 3.4992,-1.4256 1.03672,-1.03675 1.55512,-2.24635 1.5552,-3.6288 l 0,-19.5696 c -8e-5,-1.38232 -0.51848,-2.54872 -1.5552,-3.4992 -0.95048,-1.03672 -2.11688,-1.55512 -3.4992,-1.5552 l -58.7088,0 c -1.382421,8e-5 -2.59202,0.51848 -3.6288,1.5552 -0.950418,0.95048 -1.425617,2.11688 -1.4256,3.4992 l 0,3.3696 -10.7568,0 0,-3.3696 c -7e-6,-2.15992 0.388793,-4.19032 1.1664,-6.0912 0.863991,-1.98712 1.98719,-3.67192 3.3696,-5.0544 1.468787,-1.46871 3.153586,-2.59191 5.0544,-3.3696 1.900782,-0.86391 3.97438,-1.29591 6.2208,-1.296 l 58.7088,0 c 2.15992,9e-5 4.19032,0.43209 6.0912,1.296 1.98711,0.77769 3.67191,1.90089 5.0544,3.3696 1.38231,1.38248 2.46231,3.06728 3.24,5.0544 0.86391,1.90088 1.29591,3.93128 1.296,6.0912 l 0,19.5696 c -9e-5,1.20965 -0.17289,2.41925 -0.5184,3.6288 -0.25929,1.12325 -0.60489,2.16005 -1.0368,3.1104 l 0.5184,2.3328"
         style="font-size:129.6000061px;text-align:center;text-anchor:middle;fill:#aaccff"
         id="path3287" />
    </g>
    <g
       style="font-size:36px;font-style:normal;font-variant:normal;font-weight:300;font-stretch:normal;line-height:125%;letter-spacing:0px;word-spacing:0px;fill:#aaccff;fill-opacity:1;stroke:none;filter:url(#filter4534);font-family:Orbitron;-inkscape-font-specification:Orbitron Light"
       id="text4462">
      <path
         d="m 132.21438,-494.27061 c 2.15991,9e-5 4.19031,0.43209 6.0912,1.296 1.90071,0.77769 3.54231,1.90089 4.9248,3.3696 1.4687,1.38248 2.5919,3.06728 3.3696,5.0544 0.8639,1.90088 1.2959,3.93128 1.296,6.0912 l 0,21.9024 c -1e-4,2.16005 -0.4321,4.19045 -1.296,6.0912 -0.7777,1.90085 -1.9009,3.58564 -3.3696,5.0544 -1.38249,1.38244 -3.02409,2.50564 -4.9248,3.3696 -1.90089,0.77764 -3.93129,1.16644 -6.0912,1.1664 l -62.856,0 c -1.382422,4e-5 -2.592021,0.51844 -3.6288,1.5552 -0.950419,0.95044 -1.425618,2.11683 -1.4256,3.4992 l 0,19.3104 c -1.8e-5,1.38241 0.475181,2.59201 1.4256,3.6288 1.036779,0.95041 2.246378,1.42561 3.6288,1.4256 l 78.5376,0 0,10.6272 -94.219201,0 0,-34.992 c -7e-6,-2.15996 0.388792,-4.19036 1.1664,-6.0912 0.863991,-1.98716 1.98719,-3.67196 3.3696,-5.0544 1.382387,-1.38235 3.023986,-2.46235 4.924801,-3.24 1.900781,-0.86395 3.974379,-1.29595 6.2208,-1.296 l 62.856,0 c 1.38232,5e-5 2.54871,-0.47515 3.4992,-1.4256 1.03671,-1.03675 1.55511,-2.24635 1.5552,-3.6288 l 0,-21.9024 c -9e-5,-1.38232 -0.51849,-2.54872 -1.5552,-3.4992 -0.95049,-1.03672 -2.11688,-1.55512 -3.4992,-1.5552 l -62.856,0 c -1.382422,8e-5 -2.592021,0.51848 -3.6288,1.5552 -0.950419,0.95048 -1.425618,2.11688 -1.4256,3.4992 l 0,3.6288 -10.627201,0 0,-3.6288 c -7e-6,-2.15992 0.388792,-4.19032 1.1664,-6.0912 0.863991,-1.98712 1.98719,-3.67192 3.3696,-5.0544 1.382387,-1.46871 3.023986,-2.59191 4.924801,-3.3696 1.900781,-0.86391 3.974379,-1.29591 6.2208,-1.296 l 62.856,0"
         style="font-size:129.6000061px;text-align:center;text-anchor:middle;fill:#aaccff"
         id="path3290" />
    </g>
    <g
       style="font-size:36px;font-style:normal;font-variant:normal;font-weight:300;font-stretch:normal;line-height:125%;letter-spacing:0px;word-spacing:0px;fill:#aaccff;fill-opacity:1;stroke:none;filter:url(#filter4538);font-family:Orbitron;-inkscape-font-specification:Orbitron Light"
       id="text4466">
      <path
         d="m 98.539971,-694.13384 14.515199,0 0,93.312 -10.7568,0 0,-81.3888 c -0.86403,1.12328 -1.94403,2.41928 -3.239999,3.888 -1.209624,1.46887 -2.505622,3.02407 -3.888,4.6656 -1.29602,1.55527 -2.592019,3.11047 -3.888,4.6656 -1.296016,1.55527 -2.419215,2.89446 -3.3696,4.0176 l -13.867201,0 24.494401,-29.16"
         style="font-size:129.6000061px;text-align:center;text-anchor:middle;fill:#aaccff"
         id="path3293" />
    </g>
    <g
       style="font-size:36px;font-style:normal;font-variant:normal;font-weight:300;font-stretch:normal;line-height:125%;letter-spacing:0px;word-spacing:0px;fill:#aaccff;fill-opacity:1;stroke:none;font-family:Orbitron;-inkscape-font-specification:Orbitron Light"
       id="text4218">
      <path
         d="m 68.771795,959.64296 c -2.24642,4e-5 -4.320018,-0.38876 -6.2208,-1.1664 -1.900815,-0.86396 -3.585613,-1.98716 -5.054401,-3.3696 -1.382409,-1.46876 -2.505608,-3.15356 -3.3696,-5.0544 -0.777607,-1.90075 -1.166406,-3.93115 -1.1664,-6.0912 l 0,-22.4208 c -6e-6,-2.15992 0.388793,-4.19032 1.1664,-6.0912 0.863992,-1.98712 1.987191,-3.67192 3.3696,-5.0544 1.468788,-1.46871 3.153586,-2.59191 5.054401,-3.3696 1.900782,-0.86391 3.97438,-1.29591 6.2208,-1.296 l 62.856005,0 c 2.15991,9e-5 4.19031,0.43209 6.0912,1.296 1.9007,0.77769 3.5423,1.90089 4.9248,3.3696 1.4687,1.38248 2.5919,3.06728 3.3696,5.0544 0.8639,1.90088 1.2959,3.93128 1.296,6.0912 l 0,61.9488 c -1e-4,2.16001 -0.4321,4.19041 -1.296,6.0912 -0.7777,1.90081 -1.9009,3.58561 -3.3696,5.0544 -1.3825,1.3824 -3.0241,2.5056 -4.9248,3.3696 -1.90089,0.7776 -3.93129,1.1664 -6.0912,1.1664 l -62.856005,0 c -3.456019,0 -6.566416,-0.9936 -9.331201,-2.9808 -2.67841,-1.9872 -4.536008,-4.53599 -5.5728,-7.6464 l 77.760006,0 c 1.38231,10e-6 2.54871,-0.47519 3.4992,-1.4256 1.03671,-1.03679 1.55511,-2.24639 1.5552,-3.6288 l 0,-18.792 c -9e-5,-1.38237 -0.51849,-2.54877 -1.5552,-3.4992 -0.95049,-1.03676 -2.11689,-1.55516 -3.4992,-1.5552 l -62.856005,0 m -5.0544,-15.6816 c -1.8e-5,1.38245 0.475182,2.59205 1.4256,3.6288 1.03678,0.95045 2.246379,1.42565 3.6288,1.4256 l 67.910405,0 0,-27.4752 c -9e-5,-1.38233 -0.51849,-2.54872 -1.5552,-3.4992 -0.95049,-1.03672 -2.11689,-1.55512 -3.4992,-1.5552 l -62.856005,0 c -1.382421,8e-5 -2.59202,0.51848 -3.6288,1.5552 -0.950418,0.95048 -1.425618,2.11687 -1.4256,3.4992 l 0,22.4208"
         style="font-size:129.6000061px;text-align:center;text-anchor:middle;fill:#aaccff"
         id="path3296" />
    </g>
    <g
       style="font-size:36px;font-style:normal;font-variant:normal;font-weight:300;font-stretch:normal;line-height:125%;letter-spacing:0px;word-spacing:0px;fill:#aaccff;fill-opacity:1;stroke:none;font-family:Orbitron;-inkscape-font-specification:Orbitron Light"
       id="text4222">
      <path
         d="m 147.61472,738.59176 c -1e-4,3.45605 -1.2961,6.95525 -3.888,10.4976 2.5919,3.36964 3.8879,6.82564 3.888,10.368 l 0,22.032 c -1e-4,2.16001 -0.4321,4.19041 -1.296,6.0912 -0.7777,1.90081 -1.9009,3.58561 -3.3696,5.0544 -1.38249,1.3824 -3.02409,2.5056 -4.9248,3.3696 -1.90089,0.7776 -3.93129,1.1664 -6.0912,1.1664 l -62.856002,0 c -2.246421,0 -4.320019,-0.3888 -6.220801,-1.1664 -1.900815,-0.864 -3.542413,-1.9872 -4.9248,-3.3696 -1.38241,-1.46879 -2.505609,-3.15359 -3.3696,-5.0544 -0.777608,-1.90079 -1.166407,-3.93119 -1.1664,-6.0912 l 0,-22.032 c -7e-6,-3.54236 1.295991,-6.99836 3.888,-10.368 -2.592009,-3.54235 -3.888007,-7.04155 -3.888,-10.4976 l 0,-19.0512 c -7e-6,-2.15992 0.388792,-4.19032 1.1664,-6.0912 0.863991,-1.98712 1.98719,-3.67192 3.3696,-5.0544 1.382387,-1.46871 3.023985,-2.59191 4.9248,-3.3696 1.900782,-0.86391 3.97438,-1.29591 6.220801,-1.296 l 62.856002,0 c 1.81431,9e-5 3.54231,0.38889 5.184,1.1664 1.72791,0.69129 3.28311,1.68489 4.6656,2.9808 1.3823,1.20968 2.5487,2.63528 3.4992,4.2768 1.0367,1.55528 1.8143,3.15368 2.3328,4.7952 l 0,21.6432 m -10.6272,20.8656 c -9e-5,-1.38236 -0.51849,-2.54876 -1.5552,-3.4992 -0.95049,-1.03676 -2.11689,-1.55516 -3.4992,-1.5552 l -62.856002,0 c -1.382422,4e-5 -2.592021,0.51844 -3.628801,1.5552 -0.950418,0.95044 -1.425618,2.11684 -1.4256,3.4992 l 0,22.032 c -1.8e-5,1.38241 0.475182,2.59201 1.4256,3.6288 1.03678,0.95041 2.246379,1.42561 3.628801,1.4256 l 62.856002,0 c 1.38231,10e-6 2.54871,-0.47519 3.4992,-1.4256 1.03671,-1.03679 1.55511,-2.24639 1.5552,-3.6288 l 0,-22.032 m 0,-39.7872 c -9e-5,-1.38233 -0.51849,-2.54872 -1.5552,-3.4992 -0.95049,-1.03672 -2.11689,-1.55512 -3.4992,-1.5552 l -62.856002,0 c -1.382422,8e-5 -2.592021,0.51848 -3.628801,1.5552 -0.950418,0.95048 -1.425618,2.11687 -1.4256,3.4992 l 0,20.4768 c -1.8e-5,1.38245 0.475182,2.59205 1.4256,3.6288 1.03678,0.95045 2.246379,1.42565 3.628801,1.4256 l 62.856002,0 c 1.38231,5e-5 2.54871,-0.47515 3.4992,-1.4256 1.03671,-1.03675 1.55511,-2.24635 1.5552,-3.6288 l 0,-20.4768"
         style="font-size:129.6000061px;text-align:center;text-anchor:middle;fill:#aaccff"
         id="path3299" />
    </g>
    <g
       style="font-size:36px;font-style:normal;font-variant:normal;font-weight:300;font-stretch:normal;line-height:125%;letter-spacing:0px;word-spacing:0px;fill:#aaccff;fill-opacity:1;stroke:none;font-family:Orbitron;-inkscape-font-specification:Orbitron Light"
       id="text4226">
      <path
         d="m 61.227944,516.48616 0,-10.7568 62.208006,0 c 2.15993,9e-5 4.19033,0.43209 6.0912,1.296 1.90073,0.77769 3.54233,1.90089 4.9248,3.3696 1.46872,1.38248 2.59192,3.06728 3.3696,5.0544 0.86392,1.90088 1.29592,3.93128 1.296,6.0912 l 0,77.6304 -10.6272,0 0,-77.6304 c -7e-5,-1.38233 -0.51847,-2.54872 -1.5552,-3.4992 -0.95047,-1.03672 -2.11687,-1.55512 -3.4992,-1.5552 l -62.208006,0"
         style="font-size:129.6000061px;text-align:center;text-anchor:middle;fill:#aaccff"
         id="path3302" />
    </g>
    <g
       style="font-size:36px;font-style:normal;font-variant:normal;font-weight:300;font-stretch:normal;line-height:125%;letter-spacing:0px;word-spacing:0px;fill:#aaccff;fill-opacity:1;stroke:none;font-family:Orbitron;-inkscape-font-specification:Orbitron Light"
       id="text4230">
      <path
         d="m 133.05812,345.38699 c 2.15992,5e-5 4.19031,0.43205 6.0912,1.296 1.90071,0.77765 3.54231,1.85765 4.9248,3.24 1.46871,1.38245 2.5919,3.06724 3.3696,5.0544 0.8639,1.90084 1.2959,3.93124 1.296,6.0912 l 0,22.4208 c -1e-4,2.16001 -0.4321,4.19041 -1.296,6.0912 -0.7777,1.90081 -1.90089,3.58561 -3.3696,5.0544 -1.38249,1.3824 -3.02409,2.5056 -4.9248,3.3696 -1.90089,0.7776 -3.93128,1.1664 -6.0912,1.1664 l -62.855999,0 c -2.246421,0 -4.320019,-0.3888 -6.220801,-1.1664 -1.900815,-0.864 -3.542413,-1.9872 -4.9248,-3.3696 -1.38241,-1.46879 -2.505609,-3.15359 -3.3696,-5.0544 -0.777608,-1.90079 -1.166407,-3.93119 -1.1664,-6.0912 l 0,-61.9488 c -7e-6,-2.15992 0.388792,-4.19032 1.1664,-6.0912 0.863991,-1.98712 1.98719,-3.67192 3.3696,-5.0544 1.382387,-1.46871 3.023985,-2.59191 4.9248,-3.3696 1.900782,-0.86391 3.97438,-1.29591 6.220801,-1.296 l 62.207999,0 0,10.7568 -62.207999,0 c -1.382422,8e-5 -2.592021,0.51848 -3.6288,1.5552 -0.950419,0.95048 -1.425619,2.11688 -1.425601,3.4992 l 0,18.6624 c -1.8e-5,1.46885 0.475182,2.72165 1.425601,3.7584 1.036779,0.95045 2.246378,1.42565 3.6288,1.4256 l 62.855999,0 m 5.0544,15.6816 c -9e-5,-1.38236 -0.51849,-2.54876 -1.5552,-3.4992 -0.95048,-1.03676 -2.11688,-1.55516 -3.4992,-1.5552 l -67.9104,0 0,27.4752 c -1.8e-5,1.38241 0.475182,2.59201 1.425601,3.6288 1.036779,0.95041 2.246378,1.42561 3.6288,1.4256 l 62.855999,0 c 1.38232,10e-6 2.54872,-0.47519 3.4992,-1.4256 1.03671,-1.03679 1.55511,-2.24639 1.5552,-3.6288 l 0,-22.4208"
         style="font-size:129.6000061px;text-align:center;text-anchor:middle;fill:#aaccff"
         id="path3305" />
    </g>
    <g
       style="font-size:36px;font-style:normal;font-variant:normal;font-weight:300;font-stretch:normal;line-height:125%;letter-spacing:0px;word-spacing:0px;fill:#aaccff;fill-opacity:1;stroke:none;font-family:Orbitron;-inkscape-font-specification:Orbitron Light"
       id="text4234">
      <path
         d="m 62.303972,140.59179 c -1.8e-5,1.46885 0.475182,2.72165 1.4256,3.7584 1.03678,0.95045 2.246378,1.42565 3.6288,1.4256 l 62.856008,0 c 2.15991,5e-5 4.19031,0.43205 6.0912,1.296 1.9007,0.77765 3.5423,1.85765 4.9248,3.24 1.4687,1.38245 2.5919,3.06724 3.3696,5.0544 0.86389,1.90084 1.29589,3.93124 1.296,6.0912 l 0,22.032 c -1.1e-4,2.16001 -0.43211,4.19041 -1.296,6.0912 -0.7777,1.90081 -1.9009,3.58561 -3.3696,5.0544 -1.3825,1.3824 -3.0241,2.5056 -4.9248,3.3696 -1.90089,0.7776 -3.93129,1.1664 -6.0912,1.1664 l -62.856008,0 c -2.246421,0 -4.320019,-0.3888 -6.2208,-1.1664 -1.900815,-0.864 -3.542414,-1.9872 -4.9248,-3.3696 -1.382411,-1.46879 -2.50561,-3.15359 -3.3696,-5.0544 -0.777608,-1.90079 -1.166408,-3.93119 -1.166401,-6.0912 l 0,-3.7584 10.627201,0 0,3.7584 c -1.8e-5,1.38241 0.475182,2.59201 1.4256,3.6288 1.03678,0.95041 2.246378,1.42561 3.6288,1.4256 l 62.856008,0 c 1.38231,1e-5 2.54871,-0.47519 3.4992,-1.4256 1.0367,-1.03679 1.5551,-2.24639 1.5552,-3.6288 l 0,-22.032 c -1e-4,-1.38236 -0.5185,-2.54876 -1.5552,-3.4992 -0.95049,-1.03676 -2.11689,-1.55516 -3.4992,-1.5552 l -78.537609,0 0,-50.6736 94.219209,0 0,10.7568 -78.537608,0 c -1.382422,8e-5 -2.59202,0.51848 -3.6288,1.5552 -0.950418,0.95048 -1.425618,2.11688 -1.4256,3.4992 l 0,19.0512"
         style="font-size:129.6000061px;text-align:center;text-anchor:middle;fill:#aaccff"
         id="path3308" />
    </g>
    <g
       style="font-size:36px;font-style:normal;font-variant:normal;font-weight:300;font-stretch:normal;line-height:125%;letter-spacing:0px;word-spacing:0px;fill:#aaccff;fill-opacity:1;stroke:none;font-family:Orbitron;-inkscape-font-specification:Orbitron Light"
       id="text4238">
      <path
         d="m 145.48305,-35.561819 0,10.6272 -14.5152,0 0,24.1056016 -10.6272,0 0,-24.1056016 -65.059201,0 0,-11.9232 C 66.081438,-46.534574 76.708628,-56.081765 87.163051,-65.49942 97.703808,-74.916947 108.331,-84.507338 119.04465,-94.270622 l 11.9232,0 0,58.708803 14.5152,0 m -76.5936,0 51.4512,0 0,-41.731202 -51.4512,41.731202"
         style="font-size:129.6000061px;text-align:center;text-anchor:middle;fill:#aaccff"
         id="path3311" />
    </g>
    <g
       style="font-size:36px;font-style:normal;font-variant:normal;font-weight:300;font-stretch:normal;line-height:125%;letter-spacing:0px;word-spacing:0px;fill:#aaccff;fill-opacity:1;stroke:none;font-family:Orbitron;-inkscape-font-specification:Orbitron Light"
       id="text4242">
      <path
         d="m 140.69465,-249.81781 c 1.55511,1.46885 2.80791,3.24004 3.7584,5.3136 0.9503,1.98724 1.4255,4.10404 1.4256,6.3504 l 0,21.6432 c -1e-4,2.16001 -0.4321,4.19041 -1.296,6.0912 -0.7777,1.90081 -1.90089,3.58561 -3.3696,5.0544 -1.38249,1.3824 -3.02409,2.5056 -4.9248,3.3696 -1.90089,0.7776 -3.93128,1.1664 -6.0912,1.1664 l -62.856,0 c -2.24642,0 -4.320018,-0.3888 -6.2208,-1.1664 -1.900814,-0.864 -3.585613,-1.9872 -5.0544,-3.3696 -1.38241,-1.46879 -2.505609,-3.15359 -3.3696,-5.0544 -0.777607,-1.90079 -1.166407,-3.93119 -1.1664,-6.0912 l 0,-2.0736 10.7568,0 0,2.0736 c -1.7e-5,1.38241 0.475182,2.59201 1.4256,3.6288 1.03678,0.95041 2.246379,1.42561 3.6288,1.4256 l 62.856,0 c 1.38232,1e-5 2.54872,-0.47519 3.4992,-1.4256 1.03671,-1.03679 1.55511,-2.24639 1.5552,-3.6288 l 0,-21.6432 c -9e-5,-1.38236 -0.51849,-2.54876 -1.5552,-3.4992 -0.95048,-1.03676 -2.11688,-1.55516 -3.4992,-1.5552 l -60.782399,0 0,-10.6272 56.635199,0 c 1.38232,5e-5 2.54872,-0.47515 3.4992,-1.4256 1.03672,-1.03675 1.55512,-2.24635 1.5552,-3.6288 l 0,-19.5696 c -8e-5,-1.38232 -0.51848,-2.54872 -1.5552,-3.4992 -0.95048,-1.03672 -2.11688,-1.55512 -3.4992,-1.5552 l -58.7088,0 c -1.382421,8e-5 -2.59202,0.51848 -3.6288,1.5552 -0.950418,0.95048 -1.425617,2.11688 -1.4256,3.4992 l 0,3.3696 -10.7568,0 0,-3.3696 c -7e-6,-2.15992 0.388793,-4.19032 1.1664,-6.0912 0.863991,-1.98712 1.98719,-3.67192 3.3696,-5.0544 1.468787,-1.46871 3.153586,-2.59191 5.0544,-3.3696 1.900782,-0.86391 3.97438,-1.29591 6.2208,-1.296 l 58.7088,0 c 2.15992,9e-5 4.19032,0.43209 6.0912,1.296 1.98711,0.77769 3.67191,1.90089 5.0544,3.3696 1.38231,1.38248 2.46231,3.06728 3.24,5.0544 0.86391,1.90088 1.29591,3.93128 1.296,6.0912 l 0,19.5696 c -9e-5,1.20965 -0.17289,2.41925 -0.5184,3.6288 -0.25929,1.12325 -0.60489,2.16005 -1.0368,3.1104 l 0.5184,2.3328"
         style="font-size:129.6000061px;text-align:center;text-anchor:middle;fill:#aaccff"
         id="path3314" />
    </g>
    <g
       style="font-size:36px;font-style:normal;font-variant:normal;font-weight:300;font-stretch:normal;line-height:125%;letter-spacing:0px;word-spacing:0px;fill:#aaccff;fill-opacity:1;stroke:none;font-family:Orbitron;-inkscape-font-specification:Orbitron Light"
       id="text4246">
      <path
         d="m 132.21438,-494.27061 c 2.15991,9e-5 4.19031,0.43209 6.0912,1.296 1.90071,0.77769 3.54231,1.90089 4.9248,3.3696 1.4687,1.38248 2.5919,3.06728 3.3696,5.0544 0.8639,1.90088 1.2959,3.93128 1.296,6.0912 l 0,21.9024 c -1e-4,2.16005 -0.4321,4.19045 -1.296,6.0912 -0.7777,1.90085 -1.9009,3.58564 -3.3696,5.0544 -1.38249,1.38244 -3.02409,2.50564 -4.9248,3.3696 -1.90089,0.77764 -3.93129,1.16644 -6.0912,1.1664 l -62.856,0 c -1.382422,4e-5 -2.592021,0.51844 -3.6288,1.5552 -0.950419,0.95044 -1.425618,2.11683 -1.4256,3.4992 l 0,19.3104 c -1.8e-5,1.38241 0.475181,2.59201 1.4256,3.6288 1.036779,0.95041 2.246378,1.42561 3.6288,1.4256 l 78.5376,0 0,10.6272 -94.219201,0 0,-34.992 c -7e-6,-2.15996 0.388792,-4.19036 1.1664,-6.0912 0.863991,-1.98716 1.98719,-3.67196 3.3696,-5.0544 1.382387,-1.38235 3.023986,-2.46235 4.924801,-3.24 1.900781,-0.86395 3.974379,-1.29595 6.2208,-1.296 l 62.856,0 c 1.38232,5e-5 2.54871,-0.47515 3.4992,-1.4256 1.03671,-1.03675 1.55511,-2.24635 1.5552,-3.6288 l 0,-21.9024 c -9e-5,-1.38232 -0.51849,-2.54872 -1.5552,-3.4992 -0.95049,-1.03672 -2.11688,-1.55512 -3.4992,-1.5552 l -62.856,0 c -1.382422,8e-5 -2.592021,0.51848 -3.6288,1.5552 -0.950419,0.95048 -1.425618,2.11688 -1.4256,3.4992 l 0,3.6288 -10.627201,0 0,-3.6288 c -7e-6,-2.15992 0.388792,-4.19032 1.1664,-6.0912 0.863991,-1.98712 1.98719,-3.67192 3.3696,-5.0544 1.382387,-1.46871 3.023986,-2.59191 4.924801,-3.3696 1.900781,-0.86391 3.974379,-1.29591 6.2208,-1.296 l 62.856,0"
         style="font-size:129.6000061px;text-align:center;text-anchor:middle;fill:#aaccff"
         id="path3317" />
    </g>
    <g
       style="font-size:36px;font-style:normal;font-variant:normal;font-weight:300;font-stretch:normal;line-height:125%;letter-spacing:0px;word-spacing:0px;fill:#aaccff;fill-opacity:1;stroke:none;font-family:Orbitron;-inkscape-font-specification:Orbitron Light"
       id="text4250">
      <path
         d="m 98.539971,-694.13384 14.515199,0 0,93.312 -10.7568,0 0,-81.3888 c -0.86403,1.12328 -1.94403,2.41928 -3.239999,3.888 -1.209624,1.46887 -2.505622,3.02407 -3.888,4.6656 -1.29602,1.55527 -2.592019,3.11047 -3.888,4.6656 -1.296016,1.55527 -2.419215,2.89446 -3.3696,4.0176 l -13.867201,0 24.494401,-29.16"
         style="font-size:129.6000061px;text-align:center;text-anchor:middle;fill:#aaccff"
         id="path3320" />
    </g>
    <g
       style="font-size:40px;font-style:normal;font-variant:normal;font-weight:300;font-stretch:normal;line-height:125%;letter-spacing:0px;word-spacing:0px;fill:#5599ff;fill-opacity:1;stroke:none;font-family:Orbitron;-inkscape-font-specification:Orbitron Light"
       id="text4254">
      <path
         d="m 265.28676,960.44218 c -2.49603,5e-5 -4.80002,-0.43195 -6.912,-1.296 -2.11202,-0.95995 -3.98402,-2.20795 -5.616,-3.744 -1.53601,-1.63195 -2.78401,-3.50394 -3.744,-5.616 -0.86401,-2.11194 -1.29601,-4.36794 -1.296,-6.768 l 0,-24.912 c -1e-5,-2.39991 0.43199,-4.65591 1.296,-6.768 0.95999,-2.2079 2.20799,-4.0799 3.744,-5.616 1.63198,-1.6319 3.50398,-2.8799 5.616,-3.744 2.11198,-0.95989 4.41597,-1.43989 6.912,-1.44 l 69.84,0 c 2.3999,1.1e-4 4.6559,0.48011 6.768,1.44 2.11189,0.8641 3.93589,2.1121 5.472,3.744 1.63189,1.5361 2.87989,3.4081 3.744,5.616 0.95988,2.11209 1.43988,4.36809 1.44,6.768 l 0,68.832 c -1.2e-4,2.40002 -0.48012,4.65602 -1.44,6.768 -0.86411,2.11201 -2.11211,3.98401 -3.744,5.616 -1.53611,1.53602 -3.36011,2.78402 -5.472,3.74402 -2.1121,0.864 -4.3681,1.296 -6.768,1.296 l -69.84,0 c -3.84003,0 -7.29602,-1.104 -10.368,-3.312 -2.97602,-2.20801 -5.04001,-5.04001 -6.192,-8.49602 l 86.4,0 c 1.5359,10e-6 2.8319,-0.52799 3.888,-1.584 1.1519,-1.15198 1.7279,-2.49598 1.728,-4.032 l 0,-20.88 c -10e-5,-1.53596 -0.5761,-2.83196 -1.728,-3.888 -1.0561,-1.15195 -2.3521,-1.72795 -3.888,-1.728 l -69.84,0 m -5.616,-17.424 c -2e-5,1.53606 0.52798,2.88006 1.584,4.032 1.15197,1.05606 2.49597,1.58406 4.032,1.584 l 75.456,0 0,-30.528 c -10e-5,-1.53591 -0.5761,-2.83191 -1.728,-3.888 -1.0561,-1.15191 -2.3521,-1.72791 -3.888,-1.728 l -69.84,0 c -1.53603,9e-5 -2.88003,0.57609 -4.032,1.728 -1.05602,1.05609 -1.58402,2.35209 -1.584,3.888 l 0,24.912"
         style="font-size:144px;text-align:center;text-anchor:middle;fill:#5599ff"
         id="path3323" />
    </g>
    <g
       style="font-size:40px;font-style:normal;font-variant:normal;font-weight:300;font-stretch:normal;line-height:125%;letter-spacing:0px;word-spacing:0px;fill:#5599ff;fill-opacity:1;stroke:none;font-family:Orbitron;-inkscape-font-specification:Orbitron Light"
       id="text4258">
      <path
         d="m 352.84888,737.27418 c -1.1e-4,3.84006 -1.44011,7.72806 -4.32,11.664 2.87989,3.74405 4.31989,7.58405 4.32,11.52 l 0,24.48 c -1.1e-4,2.40002 -0.48011,4.65602 -1.44,6.768 -0.86411,2.11201 -2.11211,3.98401 -3.744,5.616 -1.53611,1.53601 -3.3601,2.784 -5.472,3.744 -2.1121,0.864 -4.3681,1.296 -6.768,1.296 l -69.84,0 c -2.49602,0 -4.80002,-0.432 -6.912,-1.296 -2.11202,-0.96 -3.93601,-2.20799 -5.472,-3.744 -1.53601,-1.63199 -2.78401,-3.50399 -3.744,-5.616 -0.86401,-2.11198 -1.29601,-4.36798 -1.296,-6.768 l 0,-24.48 c -1e-5,-3.93595 1.43999,-7.77595 4.32,-11.52 -2.88001,-3.93594 -4.32001,-7.82394 -4.32,-11.664 l 0,-21.168 c -1e-5,-2.39991 0.43199,-4.65591 1.296,-6.768 0.95999,-2.2079 2.20799,-4.0799 3.744,-5.616 1.53599,-1.6319 3.35998,-2.8799 5.472,-3.744 2.11198,-0.95989 4.41598,-1.43989 6.912,-1.44 l 69.84,0 c 2.0159,1.1e-4 3.9359,0.43211 5.76,1.296 1.9199,0.7681 3.6479,1.8721 5.184,3.312 1.53589,1.3441 2.83189,2.9281 3.888,4.752 1.15189,1.7281 2.01589,3.50409 2.592,5.328 l 0,24.048 m -11.808,23.184 c -1e-4,-1.53595 -0.5761,-2.83195 -1.728,-3.888 -1.0561,-1.15195 -2.3521,-1.72795 -3.888,-1.728 l -69.84,0 c -1.53602,5e-5 -2.88002,0.57605 -4.032,1.728 -1.05602,1.05605 -1.58402,2.35205 -1.584,3.888 l 0,24.48 c -2e-5,1.53602 0.52798,2.88002 1.584,4.032 1.15198,1.05601 2.49598,1.58401 4.032,1.584 l 69.84,0 c 1.5359,10e-6 2.8319,-0.52799 3.888,-1.584 1.1519,-1.15198 1.7279,-2.49598 1.728,-4.032 l 0,-24.48 m 0,-44.208 c -1e-4,-1.53591 -0.5761,-2.83191 -1.728,-3.888 -1.0561,-1.15191 -2.3521,-1.72791 -3.888,-1.728 l -69.84,0 c -1.53602,9e-5 -2.88002,0.57609 -4.032,1.728 -1.05602,1.05609 -1.58402,2.35209 -1.584,3.888 l 0,22.752 c -2e-5,1.53606 0.52798,2.88006 1.584,4.032 1.15198,1.05606 2.49598,1.58406 4.032,1.584 l 69.84,0 c 1.5359,6e-5 2.8319,-0.52794 3.888,-1.584 1.1519,-1.15194 1.7279,-2.49594 1.728,-4.032 l 0,-22.752"
         style="font-size:144px;text-align:center;text-anchor:middle;fill:#5599ff"
         id="path3326" />
    </g>
    <g
       style="font-size:40px;font-style:normal;font-variant:normal;font-weight:300;font-stretch:normal;line-height:125%;letter-spacing:0px;word-spacing:0px;fill:#5599ff;fill-opacity:1;stroke:none;font-family:Orbitron;-inkscape-font-specification:Orbitron Light"
       id="text4262">
      <path
         d="m 256.90051,512.49018 0,-11.952 69.12,0 c 2.39992,1.1e-4 4.65592,0.48011 6.768,1.44 2.11192,0.8641 3.93592,2.1121 5.472,3.744 1.63191,1.5361 2.87991,3.4081 3.744,5.616 0.95991,2.11209 1.43991,4.36809 1.44,6.768 l 0,86.256 -11.808,0 0,-86.256 c -8e-5,-1.53591 -0.57608,-2.83191 -1.728,-3.888 -1.05608,-1.15191 -2.35208,-1.72791 -3.888,-1.728 l -69.12,0"
         style="font-size:144px;text-align:center;text-anchor:middle;fill:#5599ff"
         id="path3329" />
    </g>
    <g
       style="font-size:40px;font-style:normal;font-variant:normal;font-weight:300;font-stretch:normal;line-height:125%;letter-spacing:0px;word-spacing:0px;fill:#5599ff;fill-opacity:1;stroke:none;font-family:Orbitron;-inkscape-font-specification:Orbitron Light"
       id="text4266">
      <path
         d="m 336.54988,344.60218 c 2.3999,6e-5 4.6559,0.48006 6.768,1.44 2.1119,0.86406 3.93589,2.06406 5.472,3.6 1.63189,1.53606 2.87989,3.40805 3.744,5.616 0.95989,2.11205 1.43989,4.36805 1.44,6.768 l 0,24.912 c -1.1e-4,2.40002 -0.48011,4.65602 -1.44,6.768 -0.86411,2.11201 -2.11211,3.98401 -3.744,5.616 -1.53611,1.53601 -3.3601,2.784 -5.472,3.744 -2.1121,0.864 -4.3681,1.296 -6.768,1.296 l -69.84,0 c -2.49602,0 -4.80002,-0.432 -6.912,-1.296 -2.11202,-0.96 -3.93601,-2.20799 -5.472,-3.744 -1.53601,-1.63199 -2.78401,-3.50399 -3.744,-5.616 -0.86401,-2.11198 -1.29601,-4.36798 -1.296,-6.768 l 0,-68.832 c -1e-5,-2.39991 0.43199,-4.65591 1.296,-6.768 0.95999,-2.2079 2.20799,-4.0799 3.744,-5.616 1.53599,-1.6319 3.35998,-2.8799 5.472,-3.744 2.11198,-0.95989 4.41598,-1.43989 6.912,-1.44 l 69.12,0 0,11.952 -69.12,0 c -1.53602,9e-5 -2.88002,0.57609 -4.032,1.728 -1.05602,1.05609 -1.58402,2.35209 -1.584,3.888 l 0,20.736 c -2e-5,1.63207 0.52798,3.02407 1.584,4.176 1.15198,1.05606 2.49598,1.58406 4.032,1.584 l 69.84,0 m 5.616,17.424 c -1e-4,-1.53595 -0.5761,-2.83195 -1.728,-3.888 -1.0561,-1.15195 -2.3521,-1.72795 -3.888,-1.728 l -75.456,0 0,30.528 c -2e-5,1.53602 0.52798,2.88002 1.584,4.032 1.15198,1.05601 2.49598,1.58401 4.032,1.584 l 69.84,0 c 1.5359,1e-5 2.8319,-0.52799 3.888,-1.584 1.1519,-1.15198 1.7279,-2.49598 1.728,-4.032 l 0,-24.912"
         style="font-size:144px;text-align:center;text-anchor:middle;fill:#5599ff"
         id="path3332" />
    </g>
    <g
       style="font-size:40px;font-style:normal;font-variant:normal;font-weight:300;font-stretch:normal;line-height:125%;letter-spacing:0px;word-spacing:0px;fill:#5599ff;fill-opacity:1;stroke:none;font-family:Orbitron;-inkscape-font-specification:Orbitron Light"
       id="text4270">
      <path
         d="m 258.25013,139.27418 c -2e-5,1.63207 0.52798,3.02406 1.584,4.176 1.15198,1.05606 2.49598,1.58406 4.032,1.584 l 69.84,0 c 2.3999,6e-5 4.6559,0.48006 6.768,1.44 2.1119,0.86406 3.93589,2.06406 5.472,3.6 1.63189,1.53606 2.87989,3.40805 3.744,5.616 0.95989,2.11205 1.43989,4.36805 1.44,6.768 l 0,24.48 c -1.1e-4,2.40002 -0.48011,4.65602 -1.44,6.768 -0.86411,2.11201 -2.11211,3.98401 -3.744,5.616 -1.53611,1.53601 -3.3601,2.784 -5.472,3.744 -2.1121,0.864 -4.3681,1.296 -6.768,1.296 l -69.84,0 c -2.49602,0 -4.80002,-0.432 -6.912,-1.296 -2.11202,-0.96 -3.93601,-2.20799 -5.472,-3.744 -1.53601,-1.63199 -2.78401,-3.50399 -3.744,-5.616 -0.86401,-2.11198 -1.29601,-4.36798 -1.296,-6.768 l 0,-4.176 11.808,0 0,4.176 c -2e-5,1.53602 0.52798,2.88002 1.584,4.032 1.15198,1.05601 2.49598,1.58401 4.032,1.584 l 69.84,0 c 1.5359,1e-5 2.8319,-0.52799 3.888,-1.584 1.1519,-1.15198 1.7279,-2.49598 1.728,-4.032 l 0,-24.48 c -1e-4,-1.53595 -0.5761,-2.83195 -1.728,-3.888 -1.0561,-1.15195 -2.3521,-1.72795 -3.888,-1.728 l -87.264,0 0,-56.304 104.688,0 0,11.952 -87.264,0 c -1.53602,9e-5 -2.88002,0.57609 -4.032,1.728 -1.05602,1.05609 -1.58402,2.35209 -1.584,3.888 l 0,21.168"
         style="font-size:144px;text-align:center;text-anchor:middle;fill:#5599ff"
         id="path3335" />
    </g>
    <g
       style="font-size:40px;font-style:normal;font-variant:normal;font-weight:300;font-stretch:normal;line-height:125%;letter-spacing:0px;word-spacing:0px;fill:#5599ff;fill-opacity:1;stroke:none;font-family:Orbitron;-inkscape-font-specification:Orbitron Light"
       id="text4274">
      <path
         d="m 350.49401,-34.229817 0,11.808 -16.128,0 0,26.7839996 -11.808,0 0,-26.7839996 -72.288,0 0,-13.248 c 11.99998,-10.75195 23.80797,-21.359939 35.424,-31.824 11.71195,-10.463918 23.51994,-21.119907 35.424,-31.968 l 13.248,0 0,65.232 16.128,0 m -85.104,0 57.168,0 0,-46.368 -57.168,46.368"
         style="font-size:144px;text-align:center;text-anchor:middle;fill:#5599ff"
         id="path3338" />
    </g>
    <g
       style="font-size:40px;font-style:normal;font-variant:normal;font-weight:300;font-stretch:normal;line-height:125%;letter-spacing:0px;word-spacing:0px;fill:#5599ff;fill-opacity:1;stroke:none;font-family:Orbitron;-inkscape-font-specification:Orbitron Light"
       id="text4278">
      <path
         d="m 345.36001,-250.06982 c 1.72789,1.63206 3.11989,3.60005 4.176,5.904 1.05588,2.20805 1.58388,4.56005 1.584,7.056 l 0,24.048 c -1.2e-4,2.40002 -0.48012,4.65602 -1.44,6.768 -0.86411,2.11201 -2.11211,3.98401 -3.744,5.616 -1.53611,1.53601 -3.36011,2.784 -5.472,3.744 -2.1121,0.864 -4.3681,1.296 -6.768,1.296 l -69.84,0 c -2.49603,0 -4.80002,-0.432 -6.912,-1.296 -2.11202,-0.96 -3.98402,-2.20799 -5.616,-3.744 -1.53602,-1.63199 -2.78401,-3.50399 -3.744,-5.616 -0.86401,-2.11198 -1.29601,-4.36798 -1.296,-6.768 l 0,-2.304 11.952,0 0,2.304 c -2e-5,1.53602 0.52798,2.88002 1.584,4.032 1.15197,1.05601 2.49597,1.58401 4.032,1.584 l 69.84,0 c 1.5359,1e-5 2.8319,-0.52799 3.888,-1.584 1.1519,-1.15198 1.7279,-2.49598 1.728,-4.032 l 0,-24.048 c -10e-5,-1.53595 -0.5761,-2.83195 -1.728,-3.888 -1.0561,-1.15195 -2.3521,-1.72795 -3.888,-1.728 l -67.536,0 0,-11.808 62.928,0 c 1.5359,6e-5 2.8319,-0.52794 3.888,-1.584 1.1519,-1.15194 1.7279,-2.49593 1.728,-4.032 l 0,-21.744 c -10e-5,-1.53591 -0.5761,-2.83191 -1.728,-3.888 -1.0561,-1.15191 -2.3521,-1.72791 -3.888,-1.728 l -65.232,0 c -1.53603,9e-5 -2.88003,0.57609 -4.032,1.728 -1.05602,1.05609 -1.58402,2.35209 -1.584,3.888 l 0,3.744 -11.952,0 0,-3.744 c -1e-5,-2.39991 0.43199,-4.65591 1.296,-6.768 0.95999,-2.2079 2.20798,-4.0799 3.744,-5.616 1.63198,-1.6319 3.50398,-2.8799 5.616,-3.744 2.11198,-0.95989 4.41597,-1.43989 6.912,-1.44 l 65.232,0 c 2.3999,1.1e-4 4.6559,0.48011 6.768,1.44 2.2079,0.8641 4.07989,2.1121 5.616,3.744 1.53589,1.5361 2.73589,3.4081 3.6,5.616 0.95989,2.11209 1.43989,4.36809 1.44,6.768 l 0,21.744 c -1.1e-4,1.34407 -0.19211,2.68806 -0.576,4.032 -0.28811,1.24806 -0.67211,2.40006 -1.152,3.456 l 0.576,2.592"
         style="font-size:144px;text-align:center;text-anchor:middle;fill:#5599ff"
         id="path3341" />
    </g>
    <g
       style="font-size:40px;font-style:normal;font-variant:normal;font-weight:300;font-stretch:normal;line-height:125%;letter-spacing:0px;word-spacing:0px;fill:#5599ff;fill-opacity:1;stroke:none;font-family:Orbitron;-inkscape-font-specification:Orbitron Light"
       id="text4282">
      <path
         d="m 335.70613,-499.46182 c 2.3999,1.1e-4 4.6559,0.48011 6.768,1.44 2.1119,0.8641 3.93589,2.1121 5.472,3.744 1.63189,1.5361 2.87989,3.4081 3.744,5.616 0.95989,2.11209 1.43989,4.36809 1.44,6.768 l 0,24.336 c -1.1e-4,2.40006 -0.48011,4.65606 -1.44,6.768 -0.86411,2.11206 -2.11211,3.98405 -3.744,5.616 -1.53611,1.53605 -3.3601,2.78405 -5.472,3.744 -2.1121,0.86405 -4.3681,1.29605 -6.768,1.296 l -69.84,0 c -1.53602,5e-5 -2.88002,0.57605 -4.032,1.728 -1.05602,1.05604 -1.58402,2.35204 -1.584,3.888 l 0,21.456 c -2e-5,1.53602 0.52798,2.88002 1.584,4.032 1.15198,1.05601 2.49598,1.58401 4.032,1.584 l 87.264,0 0,11.808 -104.688,0 0,-38.88 c -1e-5,-2.39996 0.43199,-4.65595 1.296,-6.768 0.95999,-2.20795 2.20799,-4.07995 3.744,-5.616 1.53599,-1.53594 3.35998,-2.73594 5.472,-3.6 2.11198,-0.95994 4.41598,-1.43994 6.912,-1.44 l 69.84,0 c 1.5359,6e-5 2.8319,-0.52794 3.888,-1.584 1.1519,-1.15194 1.7279,-2.49594 1.728,-4.032 l 0,-24.336 c -1e-4,-1.53591 -0.5761,-2.83191 -1.728,-3.888 -1.0561,-1.15191 -2.3521,-1.72791 -3.888,-1.728 l -69.84,0 c -1.53602,9e-5 -2.88002,0.57609 -4.032,1.728 -1.05602,1.05609 -1.58402,2.35209 -1.584,3.888 l 0,4.032 -11.808,0 0,-4.032 c -1e-5,-2.39991 0.43199,-4.65591 1.296,-6.768 0.95999,-2.2079 2.20799,-4.0799 3.744,-5.616 1.53599,-1.6319 3.35998,-2.8799 5.472,-3.744 2.11198,-0.95989 4.41598,-1.43989 6.912,-1.44 l 69.84,0"
         style="font-size:144px;text-align:center;text-anchor:middle;fill:#5599ff"
         id="path3344" />
    </g>
    <g
       style="font-size:40px;font-style:normal;font-variant:normal;font-weight:300;font-stretch:normal;line-height:125%;letter-spacing:0px;word-spacing:0px;fill:#5599ff;fill-opacity:1;stroke:none;font-family:Orbitron;-inkscape-font-specification:Orbitron Light"
       id="text4286">
      <path
         d="m 299.09413,-699.31782 16.128,0 0,103.68 -11.952,0 0,-90.432 c -0.96003,1.24809 -2.16003,2.68809 -3.6,4.32 -1.34403,1.63209 -2.78402,3.36009 -4.32,5.184 -1.44002,1.72808 -2.88002,3.45608 -4.32,5.184 -1.44002,1.72808 -2.68802,3.21608 -3.744,4.464 l -15.408,0 27.216,-32.4"
         style="font-size:144px;text-align:center;text-anchor:middle;fill:#5599ff"
         id="path3347" />
    </g>
  </g>
</svg>
