<?xml version="1.0" encoding="UTF-8" standalone="no"?>
<!-- Created with Inkscape (http://www.inkscape.org/) -->

<svg
   xmlns:dc="http://purl.org/dc/elements/1.1/"
   xmlns:cc="http://creativecommons.org/ns#"
   xmlns:rdf="http://www.w3.org/1999/02/22-rdf-syntax-ns#"
   xmlns:svg="http://www.w3.org/2000/svg"
   xmlns="http://www.w3.org/2000/svg"
   xmlns:xlink="http://www.w3.org/1999/xlink"
   xmlns:sodipodi="http://sodipodi.sourceforge.net/DTD/sodipodi-0.dtd"
   xmlns:inkscape="http://www.inkscape.org/namespaces/inkscape"
   width="800"
   height="600"
   id="svg2"
   version="1.1"
   inkscape:version="0.48.2 r9819"
   sodipodi:docname="buttons.svg">
  <defs
     id="defs4">
    <linearGradient
       id="linearGradient5889">
      <stop
         id="stop5891"
         offset="0"
         style="stop-color:#80b3ff;stop-opacity:1;" />
      <stop
         style="stop-color:#4779c3;stop-opacity:1;"
         offset="0.75"
         id="stop5893" />
      <stop
         id="stop5895"
         offset="1"
         style="stop-color:#80b3ff;stop-opacity:0;" />
    </linearGradient>
    <linearGradient
       id="linearGradient5881">
      <stop
         id="stop5883"
         offset="0"
         style="stop-color:#070d15;stop-opacity:1;" />
      <stop
         style="stop-color:#102544;stop-opacity:1;"
         offset="0.80000001"
         id="stop5885" />
      <stop
         id="stop5887"
         offset="1"
         style="stop-color:#375b90;stop-opacity:1;" />
    </linearGradient>
    <radialGradient
       inkscape:collect="always"
       xlink:href="#linearGradient5254"
       id="radialGradient5260"
       cx="32"
       cy="32"
       fx="32"
       fy="32"
       r="25"
       gradientUnits="userSpaceOnUse"
       gradientTransform="matrix(1.0000022,0,0,1.0219334,0.00686812,-1.4038043)" />
    <linearGradient
       id="linearGradient5254">
      <stop
         style="stop-color:#002255;stop-opacity:1;"
         offset="0"
         id="stop5256" />
      <stop
         id="stop5262"
         offset="0.80000001"
         style="stop-color:#002255;stop-opacity:1;" />
      <stop
         style="stop-color:#5686ce;stop-opacity:1;"
         offset="1"
         id="stop5258" />
    </linearGradient>
    <radialGradient
       inkscape:collect="always"
       xlink:href="#linearGradient5244"
       id="radialGradient5250"
       cx="32"
       cy="32"
       fx="32"
       fy="32"
       r="32"
       gradientUnits="userSpaceOnUse" />
    <linearGradient
       id="linearGradient5244">
      <stop
         style="stop-color:#80b3ff;stop-opacity:1;"
         offset="0"
         id="stop5246" />
      <stop
         id="stop5252"
         offset="0.75"
         style="stop-color:#80b3ff;stop-opacity:1;" />
      <stop
         style="stop-color:#80b3ff;stop-opacity:0;"
         offset="1"
         id="stop5248" />
    </linearGradient>
    <radialGradient
       r="32"
       fy="32"
       fx="32"
       cy="32"
       cx="32"
       gradientUnits="userSpaceOnUse"
       id="radialGradient5288"
       xlink:href="#linearGradient5244"
       inkscape:collect="always"
       gradientTransform="matrix(3.1250069,0,0,3.1935484,0.02145776,847.97508)" />
    <radialGradient
       inkscape:collect="always"
       xlink:href="#linearGradient5254"
       id="radialGradient5899"
       gradientUnits="userSpaceOnUse"
       cx="100"
       cy="900"
       fx="100"
       fy="900"
       r="80" />
    <filter
       inkscape:collect="always"
       id="filter6023"
       x="-0.25714287"
       width="1.5142857"
       y="-0.22499999"
       height="1.45"
       color-interpolation-filters="sRGB">
      <feGaussianBlur
         inkscape:collect="always"
         stdDeviation="7.5"
         id="feGaussianBlur6025" />
    </filter>
    <radialGradient
       inkscape:collect="always"
       xlink:href="#linearGradient5881"
       id="radialGradient6029"
       gradientUnits="userSpaceOnUse"
       cx="100"
       cy="900"
       fx="100"
       fy="900"
       r="80" />
    <filter
       inkscape:collect="always"
       id="filter6035"
       x="-0.25714287"
       width="1.5142857"
       y="-0.22499999"
       height="1.45"
       color-interpolation-filters="sRGB">
      <feGaussianBlur
         inkscape:collect="always"
         stdDeviation="7.5"
         id="feGaussianBlur6037" />
    </filter>
    <radialGradient
       inkscape:collect="always"
       xlink:href="#linearGradient5254"
       id="radialGradient6978"
       gradientUnits="userSpaceOnUse"
       cx="100"
       cy="900"
       fx="100"
       fy="900"
       r="80" />
    <filter
       inkscape:collect="always"
       id="filter7020"
       x="-0.24422035"
       width="1.4884408"
       y="-0.23592305"
       height="1.4718461"
       color-interpolation-filters="sRGB">
      <feGaussianBlur
         inkscape:collect="always"
         stdDeviation="9.830127"
         id="feGaussianBlur7022" />
    </filter>
    <filter
       inkscape:collect="always"
       id="filter7056"
       x="-0.24422035"
       width="1.4884408"
       y="-0.23592305"
       height="1.4718461"
       color-interpolation-filters="sRGB">
      <feGaussianBlur
         inkscape:collect="always"
         stdDeviation="9.830127"
         id="feGaussianBlur7058" />
    </filter>
    <filter
       inkscape:collect="always"
       id="filter7064"
       x="-0.22666667"
       width="1.4533333"
       y="-0.255"
       height="1.51"
       color-interpolation-filters="sRGB">
      <feGaussianBlur
         inkscape:collect="always"
         stdDeviation="8.5"
         id="feGaussianBlur7066" />
    </filter>
    <filter
       inkscape:collect="always"
       id="filter7072"
       x="-0.22666667"
       width="1.4533333"
       y="-0.255"
       height="1.51"
       color-interpolation-filters="sRGB">
      <feGaussianBlur
         inkscape:collect="always"
         stdDeviation="8.5"
         id="feGaussianBlur7074" />
    </filter>
    <filter
       inkscape:collect="always"
       id="filter7116"
       x="-0.21600001"
       width="1.432"
       y="-0.27000001"
       height="1.54"
       color-interpolation-filters="sRGB">
      <feGaussianBlur
         inkscape:collect="always"
         stdDeviation="9"
         id="feGaussianBlur7118" />
    </filter>
    <filter
       inkscape:collect="always"
       id="filter7132"
       x="-0.21600001"
       width="1.432"
       y="-0.27000001"
       height="1.54"
       color-interpolation-filters="sRGB">
      <feGaussianBlur
         inkscape:collect="always"
         stdDeviation="9"
         id="feGaussianBlur7134" />
    </filter>
    <filter
       inkscape:collect="always"
       id="filter3863"
       x="-0.21818183"
       width="1.4363637"
       y="-0.26666662"
       height="1.5333333"
       color-interpolation-filters="sRGB">
      <feGaussianBlur
         inkscape:collect="always"
         stdDeviation="10.000001"
         id="feGaussianBlur3865" />
    </filter>
    <filter
       inkscape:collect="always"
       id="filter3869"
       x="-0.21818183"
       width="1.4363637"
       y="-0.26666662"
       height="1.5333333"
       color-interpolation-filters="sRGB">
      <feGaussianBlur
         inkscape:collect="always"
         stdDeviation="10.000001"
         id="feGaussianBlur3871" />
    </filter>
    <filter
       inkscape:collect="always"
       id="filter3896"
       x="-0.23999999"
       width="1.48"
       y="-0.23999999"
       height="1.48"
       color-interpolation-filters="sRGB">
      <feGaussianBlur
         inkscape:collect="always"
         stdDeviation="12"
         id="feGaussianBlur3898" />
    </filter>
    <filter
       inkscape:collect="always"
       id="filter3904"
       x="-0.23999999"
       width="1.48"
       y="-0.23999999"
       height="1.48"
       color-interpolation-filters="sRGB">
      <feGaussianBlur
         inkscape:collect="always"
         stdDeviation="12"
         id="feGaussianBlur3906" />
    </filter>
  </defs>
  <sodipodi:namedview
     id="base"
     pagecolor="#ffffff"
     bordercolor="#666666"
     borderopacity="1.0"
     inkscape:pageopacity="0.0"
     inkscape:pageshadow="2"
     inkscape:zoom="1.8101934"
     inkscape:cx="705.47432"
     inkscape:cy="254.74583"
     inkscape:document-units="px"
     inkscape:current-layer="layer1"
     showgrid="true"
     inkscape:window-width="1440"
     inkscape:window-height="774"
     inkscape:window-x="0"
     inkscape:window-y="0"
     inkscape:window-maximized="1">
    <inkscape:grid
       type="xygrid"
       id="grid2985"
       empspacing="10"
       visible="true"
       enabled="true"
       snapvisiblegridlinesonly="true"
       originx="0px"
       dotted="false"
       color="#00aeff"
       opacity="0.1254902"
       spacingx="10px"
       spacingy="10px" />
  </sodipodi:namedview>
  <metadata
     id="metadata7">
    <rdf:RDF>
      <cc:Work
         rdf:about="">
        <dc:format>image/svg+xml</dc:format>
        <dc:type
           rdf:resource="http://purl.org/dc/dcmitype/StillImage" />
        <dc:title />
      </cc:Work>
    </rdf:RDF>
  </metadata>
  <g
     inkscape:label="Layer 1"
     inkscape:groupmode="layer"
     id="layer1"
     transform="translate(0,-452.36218)">
    <path
       style="fill:none;stroke:#aaccff;stroke-width:33.33333206;stroke-linecap:butt;stroke-linejoin:miter;stroke-miterlimit:4;stroke-opacity:1;stroke-dasharray:none;filter:url(#filter3869)"
       d="m 46,952.36218 40,36.00002 70,-90.00002"
       id="path3867"
       inkscape:connector-curvature="0"
       sodipodi:nodetypes="ccc"
       transform="matrix(0.9,0,0,0.9,10.1,-305.6638)" />
    <path
       inkscape:connector-curvature="0"
       id="path5905"
       d="m 470,912.36218 0,80 70,-40 -70,-40"
       style="fill:#aaccff;stroke:none;filter:url(#filter6023)"
       transform="matrix(1.5517241,0,0,1.5517241,-278.6207,-525.44121)" />
    <path
       style="fill:#aaccff;stroke:none"
       d="m 450.68965,890.29321 0,124.13789 108.62069,-62.06892 -108.62069,-62.06897"
       id="path5901"
       inkscape:connector-curvature="0" />
    <path
       style="fill:#5599ff;stroke:none;filter:url(#filter6035)"
       d="m 670,912.36218 0,80 70,-40 -70,-40"
       id="path6033"
       inkscape:connector-curvature="0"
       transform="matrix(1.7241379,0,0,1.7241379,-510.51724,-689.64158)" />
    <path
       inkscape:connector-curvature="0"
       id="path6031"
       d="m 644.65517,883.39666 0,137.93104 120.68966,-68.96552 -120.68966,-68.96552"
       style="fill:#5599ff;stroke:none" />
    <g
       id="g7000"
       transform="matrix(1.2229514,0,0,1.2229514,-22.29514,140.88648)"
       style="filter:url(#filter7020)">
      <path
         id="path7002"
         d="m 100,460 c -22.09139,0 -40,17.90861 -40,40 0,22.09139 17.90861,40 40,40 22.09139,0 40,-17.90861 40,-40 0,-22.09139 -17.90861,-40 -40,-40 z m 0,15 c 13.80712,0 25,11.19288 25,25 0,13.80712 -11.19288,25 -25,25 -13.807119,0 -25,-11.19288 -25,-25 0,-13.80712 11.192881,-25 25,-25 z"
         style="fill:#aaccff;fill-opacity:1;stroke:none"
         inkscape:connector-curvature="0" />
      <path
         inkscape:tile-y0="450"
         inkscape:tile-x0="82"
         inkscape:tile-h="20"
         inkscape:tile-w="36"
         inkscape:tile-cy="500"
         inkscape:tile-cx="100"
         sodipodi:nodetypes="ccccc"
         inkscape:transform-center-y="-40"
         inkscape:connector-curvature="0"
         id="path7004"
         d="m 82,470 8,-20 20,0 8,20 z"
         style="fill:#aaccff;stroke:none" />
      <path
         inkscape:tile-y0="450"
         inkscape:tile-x0="82"
         sodipodi:nodetypes="ccccc"
         inkscape:transform-center-y="-40"
         inkscape:connector-curvature="0"
         id="path7006"
         d="m 116.98076,469.41154 21.32051,-3.07179 10,17.3205 -13.32051,16.92821 z"
         style="fill:#aaccff;stroke:none" />
      <path
         inkscape:tile-y0="450"
         inkscape:tile-x0="82"
         sodipodi:nodetypes="ccccc"
         inkscape:transform-center-y="-40"
         inkscape:connector-curvature="0"
         id="path7008"
         d="m 134.98076,499.41154 13.32051,16.92821 -10,17.3205 -21.32051,-3.07179 z"
         style="fill:#aaccff;stroke:none" />
      <path
         inkscape:tile-y0="450"
         inkscape:tile-x0="82"
         sodipodi:nodetypes="ccccc"
         inkscape:transform-center-y="-40"
         inkscape:connector-curvature="0"
         id="path7010"
         d="m 118,530 -8,20 -20,0 -8,-20 z"
         style="fill:#aaccff;stroke:none" />
      <path
         inkscape:tile-y0="450"
         inkscape:tile-x0="82"
         sodipodi:nodetypes="ccccc"
         inkscape:transform-center-y="-40"
         inkscape:connector-curvature="0"
         id="path7012"
         d="m 83.019238,530.58846 -21.320508,3.07179 -10,-17.3205 13.320508,-16.92821 z"
         style="fill:#aaccff;stroke:none" />
      <path
         inkscape:tile-y0="450"
         inkscape:tile-x0="82"
         sodipodi:nodetypes="ccccc"
         inkscape:transform-center-y="-40"
         inkscape:connector-curvature="0"
         id="path7014"
         d="m 65.019238,500.58846 -13.320508,-16.92821 10,-17.3205 21.320508,3.07179 z"
         style="fill:#aaccff;stroke:none" />
    </g>
    <g
       transform="matrix(1.2229514,0,0,1.2229514,-22.29514,140.88648)"
       id="g6746">
      <path
         inkscape:connector-curvature="0"
         style="fill:#aaccff;fill-opacity:1;stroke:none"
         d="m 100,460 c -22.09139,0 -40,17.90861 -40,40 0,22.09139 17.90861,40 40,40 22.09139,0 40,-17.90861 40,-40 0,-22.09139 -17.90861,-40 -40,-40 z m 0,15 c 13.80712,0 25,11.19288 25,25 0,13.80712 -11.19288,25 -25,25 -13.807119,0 -25,-11.19288 -25,-25 0,-13.80712 11.192881,-25 25,-25 z"
         id="path6748" />
      <path
         style="fill:#aaccff;stroke:none"
         d="m 82,470 8,-20 20,0 8,20 z"
         id="path6750"
         inkscape:connector-curvature="0"
         inkscape:transform-center-y="-40"
         sodipodi:nodetypes="ccccc"
         inkscape:tile-cx="100"
         inkscape:tile-cy="500"
         inkscape:tile-w="36"
         inkscape:tile-h="20"
         inkscape:tile-x0="82"
         inkscape:tile-y0="450" />
      <path
         style="fill:#aaccff;stroke:none"
         d="m 116.98076,469.41154 21.32051,-3.07179 10,17.3205 -13.32051,16.92821 z"
         id="use6752"
         inkscape:connector-curvature="0"
         inkscape:transform-center-y="-40"
         sodipodi:nodetypes="ccccc"
         inkscape:tile-x0="82"
         inkscape:tile-y0="450" />
      <path
         style="fill:#aaccff;stroke:none"
         d="m 134.98076,499.41154 13.32051,16.92821 -10,17.3205 -21.32051,-3.07179 z"
         id="use6754"
         inkscape:connector-curvature="0"
         inkscape:transform-center-y="-40"
         sodipodi:nodetypes="ccccc"
         inkscape:tile-x0="82"
         inkscape:tile-y0="450" />
      <path
         style="fill:#aaccff;stroke:none"
         d="m 118,530 -8,20 -20,0 -8,-20 z"
         id="use6756"
         inkscape:connector-curvature="0"
         inkscape:transform-center-y="-40"
         sodipodi:nodetypes="ccccc"
         inkscape:tile-x0="82"
         inkscape:tile-y0="450" />
      <path
         style="fill:#aaccff;stroke:none"
         d="m 83.019238,530.58846 -21.320508,3.07179 -10,-17.3205 13.320508,-16.92821 z"
         id="use6758"
         inkscape:connector-curvature="0"
         inkscape:transform-center-y="-40"
         sodipodi:nodetypes="ccccc"
         inkscape:tile-x0="82"
         inkscape:tile-y0="450" />
      <path
         style="fill:#aaccff;stroke:none"
         d="m 65.019238,500.58846 -13.320508,-16.92821 10,-17.3205 21.320508,3.07179 z"
         id="use6760"
         inkscape:connector-curvature="0"
         inkscape:transform-center-y="-40"
         sodipodi:nodetypes="ccccc"
         inkscape:tile-x0="82"
         inkscape:tile-y0="450" />
    </g>
    <g
       style="fill:#5599ff;filter:url(#filter7056)"
       transform="matrix(1.3588349,0,0,1.3588349,164.11678,72.944714)"
       id="g7040">
      <path
         inkscape:connector-curvature="0"
         style="fill:#5599ff;fill-opacity:1;stroke:none"
         d="m 100,460 c -22.09139,0 -40,17.90861 -40,40 0,22.09139 17.90861,40 40,40 22.09139,0 40,-17.90861 40,-40 0,-22.09139 -17.90861,-40 -40,-40 z m 0,15 c 13.80712,0 25,11.19288 25,25 0,13.80712 -11.19288,25 -25,25 -13.807119,0 -25,-11.19288 -25,-25 0,-13.80712 11.192881,-25 25,-25 z"
         id="path7042" />
      <path
         style="fill:#5599ff;stroke:none"
         d="m 82,470 8,-20 20,0 8,20 z"
         id="path7044"
         inkscape:connector-curvature="0"
         inkscape:transform-center-y="-40"
         sodipodi:nodetypes="ccccc"
         inkscape:tile-cx="100"
         inkscape:tile-cy="500"
         inkscape:tile-w="36"
         inkscape:tile-h="20"
         inkscape:tile-x0="82"
         inkscape:tile-y0="450" />
      <path
         style="fill:#5599ff;stroke:none"
         d="m 116.98076,469.41154 21.32051,-3.07179 10,17.3205 -13.32051,16.92821 z"
         id="path7046"
         inkscape:connector-curvature="0"
         inkscape:transform-center-y="-40"
         sodipodi:nodetypes="ccccc"
         inkscape:tile-x0="82"
         inkscape:tile-y0="450" />
      <path
         style="fill:#5599ff;stroke:none"
         d="m 134.98076,499.41154 13.32051,16.92821 -10,17.3205 -21.32051,-3.07179 z"
         id="path7048"
         inkscape:connector-curvature="0"
         inkscape:transform-center-y="-40"
         sodipodi:nodetypes="ccccc"
         inkscape:tile-x0="82"
         inkscape:tile-y0="450" />
      <path
         style="fill:#5599ff;stroke:none"
         d="m 118,530 -8,20 -20,0 -8,-20 z"
         id="path7050"
         inkscape:connector-curvature="0"
         inkscape:transform-center-y="-40"
         sodipodi:nodetypes="ccccc"
         inkscape:tile-x0="82"
         inkscape:tile-y0="450" />
      <path
         style="fill:#5599ff;stroke:none"
         d="m 83.019238,530.58846 -21.320508,3.07179 -10,-17.3205 13.320508,-16.92821 z"
         id="path7052"
         inkscape:connector-curvature="0"
         inkscape:transform-center-y="-40"
         sodipodi:nodetypes="ccccc"
         inkscape:tile-x0="82"
         inkscape:tile-y0="450" />
      <path
         style="fill:#5599ff;stroke:none"
         d="m 65.019238,500.58846 -13.320508,-16.92821 10,-17.3205 21.320508,3.07179 z"
         id="path7054"
         inkscape:connector-curvature="0"
         inkscape:transform-center-y="-40"
         sodipodi:nodetypes="ccccc"
         inkscape:tile-x0="82"
         inkscape:tile-y0="450" />
    </g>
    <g
       id="g7024"
       transform="matrix(1.3588349,0,0,1.3588349,164.11678,72.944714)"
       style="fill:#5599ff">
      <path
         id="path7026"
         d="m 100,460 c -22.09139,0 -40,17.90861 -40,40 0,22.09139 17.90861,40 40,40 22.09139,0 40,-17.90861 40,-40 0,-22.09139 -17.90861,-40 -40,-40 z m 0,15 c 13.80712,0 25,11.19288 25,25 0,13.80712 -11.19288,25 -25,25 -13.807119,0 -25,-11.19288 -25,-25 0,-13.80712 11.192881,-25 25,-25 z"
         style="fill:#5599ff;fill-opacity:1;stroke:none"
         inkscape:connector-curvature="0" />
      <path
         inkscape:tile-y0="450"
         inkscape:tile-x0="82"
         inkscape:tile-h="20"
         inkscape:tile-w="36"
         inkscape:tile-cy="500"
         inkscape:tile-cx="100"
         sodipodi:nodetypes="ccccc"
         inkscape:transform-center-y="-40"
         inkscape:connector-curvature="0"
         id="path7028"
         d="m 82,470 8,-20 20,0 8,20 z"
         style="fill:#5599ff;stroke:none" />
      <path
         inkscape:tile-y0="450"
         inkscape:tile-x0="82"
         sodipodi:nodetypes="ccccc"
         inkscape:transform-center-y="-40"
         inkscape:connector-curvature="0"
         id="path7030"
         d="m 116.98076,469.41154 21.32051,-3.07179 10,17.3205 -13.32051,16.92821 z"
         style="fill:#5599ff;stroke:none" />
      <path
         inkscape:tile-y0="450"
         inkscape:tile-x0="82"
         sodipodi:nodetypes="ccccc"
         inkscape:transform-center-y="-40"
         inkscape:connector-curvature="0"
         id="path7032"
         d="m 134.98076,499.41154 13.32051,16.92821 -10,17.3205 -21.32051,-3.07179 z"
         style="fill:#5599ff;stroke:none" />
      <path
         inkscape:tile-y0="450"
         inkscape:tile-x0="82"
         sodipodi:nodetypes="ccccc"
         inkscape:transform-center-y="-40"
         inkscape:connector-curvature="0"
         id="path7034"
         d="m 118,530 -8,20 -20,0 -8,-20 z"
         style="fill:#5599ff;stroke:none" />
      <path
         inkscape:tile-y0="450"
         inkscape:tile-x0="82"
         sodipodi:nodetypes="ccccc"
         inkscape:transform-center-y="-40"
         inkscape:connector-curvature="0"
         id="path7036"
         d="m 83.019238,530.58846 -21.320508,3.07179 -10,-17.3205 13.320508,-16.92821 z"
         style="fill:#5599ff;stroke:none" />
      <path
         inkscape:tile-y0="450"
         inkscape:tile-x0="82"
         sodipodi:nodetypes="ccccc"
         inkscape:transform-center-y="-40"
         inkscape:connector-curvature="0"
         id="path7038"
         d="m 65.019238,500.58846 -13.320508,-16.92821 10,-17.3205 21.320508,3.07179 z"
         style="fill:#5599ff;stroke:none" />
    </g>
    <path
       sodipodi:nodetypes="csscccccsscc"
       inkscape:connector-curvature="0"
       id="path7062"
       d="m 500,792.36218 c 0,0 -40,0 -40,-40 0,-20 20,-40 40,-40 40,0 40,40 40,40 l 10,0 -20,20 -20,-20 10,0 c 0,0 0,-20 -20,-20 -9.42809,0 -20,10.57191 -20,20 0,20 20,20 20,20 z"
       style="fill:#aaccff;stroke:none;filter:url(#filter7064)"
       transform="matrix(-1.3761468,0,0,1.3761468,1193.9541,-282.99862)" />
    <path
       style="fill:#aaccff;stroke:none"
       d="m 505.88076,807.40805 c 0,0 55.04588,0 55.04588,-55.04587 0,-27.52294 -27.52294,-55.04587 -55.04588,-55.04587 -55.04587,0 -55.04587,55.04587 -55.04587,55.04587 l -13.76147,0 27.52294,27.52294 27.52293,-27.52294 -13.76146,0 c 0,0 0,-27.52294 27.52293,-27.52294 12.97444,0 27.52294,14.5485 27.52294,27.52294 0,27.52294 -27.52294,27.52294 -27.52294,27.52294 z"
       id="path7060"
       inkscape:connector-curvature="0"
       sodipodi:nodetypes="csscccccsscc" />
    <path
       style="fill:#5599ff;stroke:none;filter:url(#filter7072)"
       d="m 700,792.36218 c 0,0 -40,0 -40,-40 0,-20 20,-40 40,-40 40,0 40,40 40,40 l 10,0 -20,20 -20,-20 10,0 c 0,0 0,-20 -20,-20 -9.42809,0 -20,10.57191 -20,20 0,20 20,20 20,20 z"
       id="path7070"
       inkscape:connector-curvature="0"
       sodipodi:nodetypes="csscccccsscc"
       transform="matrix(-1.529052,0,0,1.529052,1776.9817,-398.03871)" />
    <path
       sodipodi:nodetypes="csscccccsscc"
       inkscape:connector-curvature="0"
       id="path7068"
       d="m 706.64528,813.52426 c 0,0 61.16208,0 61.16208,-61.16208 0,-30.58104 -30.58104,-61.16208 -61.16208,-61.16208 -61.16208,0 -61.16208,61.16208 -61.16208,61.16208 l -15.29052,0 30.58104,30.58104 30.58104,-30.58104 -15.29052,0 c 0,0 0,-30.58104 30.58104,-30.58104 14.41604,0 30.58104,16.165 30.58104,30.58104 0,30.58104 -30.58104,30.58104 -30.58104,30.58104 z"
       style="fill:#5599ff;stroke:none" />
    <g
       transform="matrix(1.2569832,0,0,1.2569832,-36.268155,-244.74113)"
       id="g7110"
       style="filter:url(#filter7116)">
      <path
         style="fill:#aaccff;stroke:none"
         d="m 60,860 0,80 60,0 0,-20 -10,0 0,10 -40,0 0,-60 40,0 0,10 10,0 0,-20 z"
         id="path7112"
         inkscape:connector-curvature="0"
         transform="translate(0,52.36218)"
         sodipodi:nodetypes="ccccccccccccc" />
      <path
         style="fill:#aaccff;stroke:none"
         d="m 90,890 0,20 40,0 0,20 30,-30 -30,-30 0,20 z"
         id="path7114"
         inkscape:connector-curvature="0"
         transform="translate(0,52.36218)"
         sodipodi:nodetypes="cccccccc" />
    </g>
    <g
       id="g7080"
       transform="matrix(1.2569832,0,0,1.2569832,-36.268155,-244.74113)">
      <path
         sodipodi:nodetypes="ccccccccccccc"
         transform="translate(0,52.36218)"
         inkscape:connector-curvature="0"
         id="path7076"
         d="m 60,860 0,80 60,0 0,-20 -10,0 0,10 -40,0 0,-60 40,0 0,10 10,0 0,-20 z"
         style="fill:#aaccff;stroke:none" />
      <path
         sodipodi:nodetypes="cccccccc"
         transform="translate(0,52.36218)"
         inkscape:connector-curvature="0"
         id="path7078"
         d="m 90,890 0,20 40,0 0,20 30,-30 -30,-30 0,20 z"
         style="fill:#aaccff;stroke:none" />
    </g>
    <g
       style="fill:#5599ff;filter:url(#filter7132)"
       id="g7126"
       transform="matrix(1.396648,0,0,1.396648,146.36872,-377.75307)">
      <path
         sodipodi:nodetypes="ccccccccccccc"
         transform="translate(0,52.36218)"
         inkscape:connector-curvature="0"
         id="path7128"
         d="m 60,860 0,80 60,0 0,-20 -10,0 0,10 -40,0 0,-60 40,0 0,10 10,0 0,-20 z"
         style="fill:#5599ff;stroke:none" />
      <path
         sodipodi:nodetypes="cccccccc"
         transform="translate(0,52.36218)"
         inkscape:connector-curvature="0"
         id="path7130"
         d="m 90,890 0,20 40,0 0,20 30,-30 -30,-30 0,20 z"
         style="fill:#5599ff;stroke:none" />
    </g>
    <g
       transform="matrix(1.396648,0,0,1.396648,146.36872,-377.75307)"
       id="g7120"
       style="fill:#5599ff">
      <path
         style="fill:#5599ff;stroke:none"
         d="m 60,860 0,80 60,0 0,-20 -10,0 0,10 -40,0 0,-60 40,0 0,10 10,0 0,-20 z"
         id="path7122"
         inkscape:connector-curvature="0"
         transform="translate(0,52.36218)"
         sodipodi:nodetypes="ccccccccccccc" />
      <path
         style="fill:#5599ff;stroke:none"
         d="m 90,890 0,20 40,0 0,20 30,-30 -30,-30 0,20 z"
         id="path7124"
         inkscape:connector-curvature="0"
         transform="translate(0,52.36218)"
         sodipodi:nodetypes="cccccccc" />
    </g>
    <path
       sodipodi:nodetypes="ccc"
       inkscape:connector-curvature="0"
       id="path3861"
       d="m 246,552.36216 40,36.00002 70,-90.00002"
       style="fill:none;stroke:#5599ff;stroke-width:30;stroke-linecap:butt;stroke-linejoin:miter;stroke-miterlimit:4;stroke-opacity:1;stroke-dasharray:none;filter:url(#filter3863)" />
    <path
       style="fill:none;stroke:#5599ff;stroke-width:30;stroke-linecap:butt;stroke-linejoin:miter;stroke-miterlimit:4;stroke-opacity:1;stroke-dasharray:none"
       d="m 246,552.36216 40,36.00002 70,-90.00002"
       id="path3089"
       inkscape:connector-curvature="0"
       sodipodi:nodetypes="ccc" />
    <path
       sodipodi:nodetypes="ccc"
       inkscape:connector-curvature="0"
       id="path3859"
       d="m 51.5,551.46216 36,32.40002 63,-81.00002"
       style="fill:none;stroke:#aaccff;stroke-width:29.99999809;stroke-linecap:butt;stroke-linejoin:miter;stroke-miterlimit:4;stroke-opacity:1;stroke-dasharray:none" />
    <path
       inkscape:connector-curvature="0"
       id="path3894"
       d="m 640,512.36218 40,40 -40,40 20,20 40,-40 40,40 20,-20 -40,-40 40,-40 -20,-20 -40,40 -40,-40 z"
       style="fill:#5599ff;stroke:none;filter:url(#filter3896)" />
    <path
       style="fill:#5599ff;stroke:none"
       d="m 640,512.36218 40,40 -40,40 20,20 40,-40 40,40 20,-20 -40,-40 40,-40 -20,-20 -40,40 -40,-40 z"
       id="path3892"
       inkscape:connector-curvature="0" />
    <path
       style="fill:#aaccff;stroke:none;filter:url(#filter3904)"
       d="m 440,512.36218 40,40 -40,40 20,20 40,-40 40,40 20,-20 -40,-40 40,-40 -20,-20 -40,40 -40,-40 z"
       id="path3902"
       inkscape:connector-curvature="0"
       transform="matrix(0.9,0,0,0.9,50,55.236218)" />
    <path
       inkscape:connector-curvature="0"
       id="path3900"
       d="m 446,516.36218 36,36 -36,36 18,18 36,-36 36,36 18,-18 -36,-36 36,-36 -18,-18 -36,36 -36,-36 z"
       style="fill:#aaccff;stroke:none" />
  </g>
</svg>
